<?xml version="1.0" encoding="UTF-8"?>
<svg xmlns="http://www.w3.org/2000/svg" xmlns:xlink="http://www.w3.org/1999/xlink" width="2001pt" height="418pt" viewBox="0 0 2001 418" version="1.1">
<g id="surface1">
<path style=" stroke:none;fill-rule:nonzero;fill:rgb(6.666667%,6.666667%,6.666667%);fill-opacity:1;" d="M 507.015625 66.371094 L 507.015625 180.976562 C 516.714844 180.976562 525.527344 180.976562 532.203125 180.976562 C 563.808594 180.976562 602.085938 171.660156 602.085938 125.3125 C 602.230469 108.890625 595.519531 93.152344 583.566406 81.894531 C 571.613281 70.632812 555.507812 64.871094 539.128906 65.992188 L 507.015625 65.992188 M 1768.617188 270.269531 C 1819.738281 184.882812 1869.351562 92.691406 1919.71875 1.257812 L 1995.273438 412.332031 L 1919.71875 412.332031 L 1887.359375 228.082031 L 1772.015625 414.726562 C 1770.761719 414.925781 1769.632812 415.601562 1768.867188 416.613281 L 1649.621094 230.472656 C 1635.894531 289.160156 1625.445312 351 1613.355469 412.332031 L 1541.957031 412.332031 L 1617.511719 3.652344 Z M 1072.148438 30.226562 L 1072.148438 110.074219 C 1038.277344 86.019531 1000.5 67.757812 957.308594 68.765625 C 743.246094 73.925781 809.226562 479.332031 1071.519531 302.257812 L 1071.519531 382.234375 C 1035.003906 405.910156 961.96875 424.421875 919.15625 415.859375 C 654.722656 363.46875 720.832031 -4.28125 952.019531 0.25 C 993.574219 1.007812 1037.015625 5.917969 1072.148438 30.476562 M 572.371094 0 C 642.757812 0 682.675781 54.027344 682.675781 116.117188 C 682.675781 159.820312 657.492188 218.003906 599.316406 227.199219 L 707.230469 412.332031 L 614.175781 412.332031 L 507.773438 228.960938 C 507.503906 229.429688 507.503906 230.003906 507.773438 230.472656 L 507.773438 412.332031 L 425.925781 412.332031 L 425.925781 0 Z M 370.898438 412.332031 L 289.550781 412.332031 C 276.960938 382.234375 252.910156 324.171875 252.910156 324.171875 L 127.617188 324.171875 L 92.109375 412.332031 L 5.726562 412.332031 C 38.214844 335.257812 62.894531 278.707031 90.472656 215.234375 C 120.566406 146.21875 148.144531 84.757812 186.046875 1.890625 Z M 153.179688 261.203125 L 226.464844 261.203125 L 188.691406 179.71875 Z M 1486.554688 412.332031 L 1405.710938 412.332031 C 1393.121094 382.234375 1369.070312 324.171875 1369.070312 324.171875 L 1243.90625 324.171875 L 1208.269531 412.332031 L 1122.011719 412.332031 C 1154.5 335.257812 1179.179688 278.707031 1206.757812 215.234375 C 1236.726562 146.21875 1264.933594 84.757812 1302.710938 1.890625 Z M 1268.710938 261.203125 L 1342.121094 261.203125 L 1304.347656 179.71875 Z M 1268.710938 261.203125 "/>
</g>
</svg>
