<svg id="Layer_1" data-name="Layer 1" xmlns="http://www.w3.org/2000/svg" xmlns:xlink="http://www.w3.org/1999/xlink" viewBox="0 0 238.49 59.36"><defs><style>.cls-1{fill:#b3b5b8;}.cls-2{fill:url(#linear-gradient);}</style><linearGradient id="linear-gradient" x1="5.32" y1="21.1" x2="243.81" y2="21.1" gradientUnits="userSpaceOnUse"><stop offset="0.03" stop-color="#7acdcd"/><stop offset="1" stop-color="#00add8"/></linearGradient></defs><title>Centralite_LogoWebai</title><path class="cls-1" d="M78.64,46.94c2.65,0,3.49,1.19,3.49,3.54v6.12a1.43,1.43,0,0,1-.71.13,1.86,1.86,0,0,1-.73-0.13l-0.27-1.17a2.94,2.94,0,0,1-2.87,1.48c-1.72,0-2.83-1-2.83-3.05S75.94,51,78.22,51a19.6,19.6,0,0,1,2.08.11V50.43a1.66,1.66,0,0,0-1.88-2,7.6,7.6,0,0,0-2.45.46,1.44,1.44,0,0,1-.42-0.55,1.58,1.58,0,0,1-.11-0.77A7.94,7.94,0,0,1,78.64,46.94Zm-0.18,5.3c-1.22,0-1.86.48-1.86,1.63a1.42,1.42,0,0,0,1.59,1.64c1.44,0,2.12-1.22,2.12-2.52V52.35C79.88,52.31,79.15,52.24,78.46,52.24Z" transform="translate(-5.32 -1.95)"/><path class="cls-1" d="M86.6,56.61a2.61,2.61,0,0,1-.91.13,2.37,2.37,0,0,1-.91-0.13V43.16A2.39,2.39,0,0,1,85.69,43a2.63,2.63,0,0,1,.91.13V56.61Z" transform="translate(-5.32 -1.95)"/><path class="cls-1" d="M91.2,56.61a2.61,2.61,0,0,1-.91.13,2.37,2.37,0,0,1-.91-0.13V43.16A2.39,2.39,0,0,1,90.29,43a2.63,2.63,0,0,1,.91.13V56.61Z" transform="translate(-5.32 -1.95)"/><path class="cls-1" d="M100.15,53.28c0,1.66.53,2.16,1.83,2.16a5,5,0,0,0,.77-0.07,2.11,2.11,0,0,1,.13.73,2,2,0,0,1-.09.66,5.24,5.24,0,0,1-1.32.16c-2.25,0-3.14-1.22-3.14-3.54V48.5H96.92a1.87,1.87,0,0,1-.11-0.68,1.79,1.79,0,0,1,.11-0.69h1.41V45.46a3.1,3.1,0,0,1,1.83-.37v2h2.38a1.75,1.75,0,0,1,.11.68,2,2,0,0,1-.11.69h-2.38v4.79Z" transform="translate(-5.32 -1.95)"/><path class="cls-1" d="M108.26,46.94c2.52,0,4.06,1.37,4.06,5s-1.55,5-4.06,5-4.06-1.37-4.06-5S105.76,46.94,108.26,46.94Zm0,1.41c-1.33,0-2.19.77-2.19,3.58s0.86,3.58,2.19,3.58,2.17-.77,2.17-3.58S109.59,48.35,108.26,48.35Z" transform="translate(-5.32 -1.95)"/><path class="cls-1" d="M122.36,46.94a2.17,2.17,0,0,1,0,1.44l-1.52-.07a3.34,3.34,0,0,1,.51,1.92c0,2-1.22,3.29-3.58,3.29a5.33,5.33,0,0,1-.8-0.05,1.61,1.61,0,0,0-.35,1.06c0.2,1.68,5.72-.11,5.72,3.65,0,1.79-1.74,3.12-4.7,3.12-2.74,0-3.89-1.08-3.89-2.54a3.1,3.1,0,0,1,1.63-2.52,1.43,1.43,0,0,1-.4-1.06,3.29,3.29,0,0,1,.88-2,3,3,0,0,1-1.66-2.92c0-2,1.24-3.29,3.58-3.29a4.4,4.4,0,0,1,2,.42Zm-6,9.79a2.21,2.21,0,0,0-.84,1.66c0,0.91.68,1.61,2.17,1.61,1.88,0,2.91-.68,2.91-1.64C120.61,56.86,118,57.25,116.37,56.74Zm1.41-8.51a1.75,1.75,0,0,0-1.85,2,1.84,1.84,0,1,0,3.67,0A1.74,1.74,0,0,0,117.77,48.22Z" transform="translate(-5.32 -1.95)"/><path class="cls-1" d="M125.59,52.5c0.15,2.17,1,2.87,2.54,2.87a4.43,4.43,0,0,0,2.16-.53,1.89,1.89,0,0,1,.58,1.32,5.39,5.39,0,0,1-3,.77c-2.81,0-4.13-1.73-4.13-5s1.63-4.93,4.06-4.93c2.25,0,3.62,1.24,3.62,3.67a7.81,7.81,0,0,1-.2,1.88h-5.59Zm2.17-4.11c-1.19,0-2,.78-2.17,2.81h3.91a6.34,6.34,0,0,0,.05-0.82A1.71,1.71,0,0,0,127.76,48.39Z" transform="translate(-5.32 -1.95)"/><path class="cls-1" d="M136,53.28c0,1.66.53,2.16,1.83,2.16a5,5,0,0,0,.77-0.07,2.11,2.11,0,0,1,.13.73,2,2,0,0,1-.09.66,5.24,5.24,0,0,1-1.32.16c-2.25,0-3.14-1.22-3.14-3.54V48.5h-1.41a1.87,1.87,0,0,1-.11-0.68,1.79,1.79,0,0,1,.11-0.69h1.41V45.46A3.1,3.1,0,0,1,136,45.1v2h2.38a1.75,1.75,0,0,1,.11.68,2,2,0,0,1-.11.69H136v4.79Z" transform="translate(-5.32 -1.95)"/><path class="cls-1" d="M147.85,56.61a2.6,2.6,0,0,1-.91.13,2.48,2.48,0,0,1-.91-0.13V50a1.47,1.47,0,0,0-1.7-1.61,2.5,2.5,0,0,0-2.06,1.17v7a2.73,2.73,0,0,1-.91.13,2.37,2.37,0,0,1-.91-0.13V43.16a2.39,2.39,0,0,1,.91-0.13,2.76,2.76,0,0,1,.91.13v4.93A3.54,3.54,0,0,1,145,46.94a2.58,2.58,0,0,1,2.83,2.76v6.91Z" transform="translate(-5.32 -1.95)"/><path class="cls-1" d="M151.92,52.5c0.15,2.17,1,2.87,2.54,2.87a4.43,4.43,0,0,0,2.16-.53,1.89,1.89,0,0,1,.58,1.32,5.39,5.39,0,0,1-3,.77c-2.81,0-4.13-1.73-4.13-5s1.63-4.93,4.06-4.93c2.25,0,3.62,1.24,3.62,3.67a7.81,7.81,0,0,1-.2,1.88h-5.59Zm2.17-4.11c-1.19,0-2,.78-2.17,2.81h3.91a6.34,6.34,0,0,0,.05-0.82A1.71,1.71,0,0,0,154.1,48.39Z" transform="translate(-5.32 -1.95)"/><path class="cls-1" d="M163.9,47a2.88,2.88,0,0,1,1.59.46,2.07,2.07,0,0,1-.8,1.53,1.85,1.85,0,0,0-1.13-.38A2.36,2.36,0,0,0,161.67,50v6.65a2.61,2.61,0,0,1-.91.13,2.37,2.37,0,0,1-.91-0.13V47.25a2.39,2.39,0,0,1,.91-0.13,2.63,2.63,0,0,1,.91.13v1.26A2.66,2.66,0,0,1,163.9,47Z" transform="translate(-5.32 -1.95)"/><path class="cls-1" d="M178.19,56.61a2.6,2.6,0,0,1-.91.13,2.48,2.48,0,0,1-.91-0.13V50a1.47,1.47,0,0,0-1.7-1.61,2.5,2.5,0,0,0-2.06,1.17v7a2.73,2.73,0,0,1-.91.13,2.37,2.37,0,0,1-.91-0.13V47.25a2.39,2.39,0,0,1,.91-0.13,2.76,2.76,0,0,1,.91.13v0.84a3.54,3.54,0,0,1,2.76-1.15,2.58,2.58,0,0,1,2.83,2.76v6.91Z" transform="translate(-5.32 -1.95)"/><path class="cls-1" d="M184.43,46.94c2.52,0,4.06,1.37,4.06,5s-1.55,5-4.06,5-4.06-1.37-4.06-5S181.93,46.94,184.43,46.94Zm0,1.41c-1.33,0-2.19.77-2.19,3.58s0.86,3.58,2.19,3.58,2.17-.77,2.17-3.58S185.76,48.35,184.43,48.35Z" transform="translate(-5.32 -1.95)"/><path class="cls-1" d="M197.07,51.66a12.75,12.75,0,0,1-.49-2.63H196.5a11.73,11.73,0,0,1-.51,2.63l-1.44,5a3.52,3.52,0,0,1-1,.13,3.82,3.82,0,0,1-1.06-.13l-2.76-9.36a2.76,2.76,0,0,1,.91-0.13,1.45,1.45,0,0,1,.79.13l1.74,5.83a11.47,11.47,0,0,1,.38,1.79h0.05a15,15,0,0,1,.4-1.79l1.68-5.83a3.93,3.93,0,0,1,1-.13,2.45,2.45,0,0,1,.9.13L199.15,53a10,10,0,0,1,.37,1.83h0.05a17.1,17.1,0,0,1,.46-1.81l1.72-5.81a2.18,2.18,0,0,1,.8-0.13,1.72,1.72,0,0,1,.79.13l-2.76,9.36a3.77,3.77,0,0,1-1,.13,4,4,0,0,1-1.06-.13Z" transform="translate(-5.32 -1.95)"/><path class="cls-2" d="M224.54,26.66a16.21,16.21,0,0,0-9.65,0,2.87,2.87,0,0,0-1.6,1.6,16.21,16.21,0,0,0,0,9.65,2.87,2.87,0,0,0,1.6,1.6,16.21,16.21,0,0,0,9.65,0,2.87,2.87,0,0,0,1.6-1.6,16.21,16.21,0,0,0,0-9.65A2.87,2.87,0,0,0,224.54,26.66Zm-2.44-9.72a2.87,2.87,0,0,0,1.6-1.6,16.21,16.21,0,0,0,0-9.65,2.87,2.87,0,0,0-1.6-1.6,16.21,16.21,0,0,0-9.65,0,2.87,2.87,0,0,0-1.6,1.6,16.21,16.21,0,0,0,0,9.65,2.87,2.87,0,0,0,1.6,1.6A16.21,16.21,0,0,0,222.1,16.95Zm21,0a2.87,2.87,0,0,0-1.6-1.6,16.21,16.21,0,0,0-9.65,0,2.87,2.87,0,0,0-1.6,1.6,16.21,16.21,0,0,0,0,9.65,2.87,2.87,0,0,0,1.6,1.6,16.21,16.21,0,0,0,9.65,0,2.87,2.87,0,0,0,1.6-1.6A16.21,16.21,0,0,0,243.08,17ZM115.24,12.61a29.15,29.15,0,0,0-5.59-.5c-3.39,0-7.74.41-7.74,5.86V37a0.61,0.61,0,0,0,.69.69h4.17a0.61,0.61,0,0,0,.69-0.69V19.39c0-2,.82-2.47,3.57-2.47h4.17a0.62,0.62,0,0,0,.78-0.69V13.43A0.8,0.8,0,0,0,115.24,12.61ZM97.29,33.08h-2c-2.24,0-2.84-.41-2.84-2.43v-14H97A0.65,0.65,0,0,0,97.7,16V13.07A0.64,0.64,0,0,0,97,12.38H92.44V6a0.57,0.57,0,0,0-.78-0.64L87.49,6.38a0.68,0.68,0,0,0-.64.73v5.27H84.24a0.64,0.64,0,0,0-.73.69V16a0.65,0.65,0,0,0,.73.73h2.61V32.3c0,5.49,3.71,5.59,7.28,5.59a20.6,20.6,0,0,0,3.25-.32,0.74,0.74,0,0,0,.69-0.82v-3C98.07,33.26,97.84,33.08,97.29,33.08ZM69,12.11a54.83,54.83,0,0,0-10.26.73,0.61,0.61,0,0,0-.64.73V37a0.58,0.58,0,0,0,.64.69H63A0.61,0.61,0,0,0,63.69,37V16.91H69c4.3,0,5.36.27,5.36,7.05V37a0.61,0.61,0,0,0,.69.69h4.12A0.64,0.64,0,0,0,79.85,37V23C79.85,13.39,77.51,12.11,69,12.11Zm109.75,21h-2c-2.24,0-2.84-.41-2.84-2.43v-14h4.53A0.65,0.65,0,0,0,179.2,16V13.07a0.64,0.64,0,0,0-.73-0.69h-4.53V6a0.57,0.57,0,0,0-.78-0.64L169,6.38a0.68,0.68,0,0,0-.64.73v5.27h-2.61a0.64,0.64,0,0,0-.73.69V16a0.65,0.65,0,0,0,.73.73h2.61V32.3c0,5.49,3.71,5.59,7.28,5.59a20.6,20.6,0,0,0,3.25-.32,0.74,0.74,0,0,0,.69-0.82v-3C179.57,33.26,179.34,33.08,178.79,33.08ZM54,21.91q0-.8-0.12-1.53,0-.36-0.08-0.7-0.09-.69-0.22-1.3a11.92,11.92,0,0,0-.46-1.67,7.16,7.16,0,0,0-.91-1.76,5.57,5.57,0,0,0-.6-0.7c-1.62-1.6-4.2-2.14-8.24-2.14-8.93,0-10.94,2.56-10.94,12.91q0,1,0,1.84,0,0.44,0,.86,0,0.83.11,1.58t0.17,1.42q0.1,0.67.25,1.27a7.14,7.14,0,0,0,2.2,4,6,6,0,0,0,1.2.79,7.68,7.68,0,0,0,1,.4l0.39,0.12a11.9,11.9,0,0,0,1.29.3l0.63,0.1a28,28,0,0,0,3.7.21c1.47,0,2.91,0,4.29-.11,1-.06,2-0.15,3-0.26l0.93-.13,0.15,0a0.62,0.62,0,0,0,.45-0.42,1.08,1.08,0,0,0,0-.32V33.76a0.61,0.61,0,0,0-.69-0.69H43.68a14.4,14.4,0,0,1-2.16-.13l-0.3-.05-0.55-.13a4.19,4.19,0,0,1-.48-0.18,3.3,3.3,0,0,1-.43-0.22,3.4,3.4,0,0,1-1.44-2.25q-0.07-.29-0.13-0.63c-0.05-.33-0.1-0.69-0.13-1.08S38,27.58,38,27.12H52.52c1.28,0,1.56-.37,1.56-1.24V24.51q0-1,0-2Q54,22.21,54,21.91ZM38,23.14c0-4.94,1.1-6.23,5.36-6.23,4.07,0,5.08,1.28,5.13,6.23H38ZM28.4,2.95a51.9,51.9,0,0,0-8.74-.55c-11.4,0-14.33,4-14.33,17.72S8.25,37.88,19.65,37.88a57.25,57.25,0,0,0,8.74-.55,0.93,0.93,0,0,0,.87-1V33.44a0.61,0.61,0,0,0-.69-0.69H19.65c-7.14,0-8.38-2.88-8.38-12.64S12.51,7.53,19.65,7.53h8.93a0.62,0.62,0,0,0,.69-0.73V3.91A0.89,0.89,0,0,0,28.4,2.95Zm132-.68a7.14,7.14,0,0,0-4.25,0,1.26,1.26,0,0,0-.71.71,7.14,7.14,0,0,0,0,4.25,1.26,1.26,0,0,0,.71.71,7.14,7.14,0,0,0,4.25,0,1.26,1.26,0,0,0,.71-0.71,7.14,7.14,0,0,0,0-4.25A1.26,1.26,0,0,0,160.36,2.27Zm-0.07,10.07h-4.17a0.61,0.61,0,0,0-.69.69V37a0.61,0.61,0,0,0,.69.69h4.17A0.61,0.61,0,0,0,161,37V13A0.61,0.61,0,0,0,160.29,12.34Zm-32.51-.23c-1.17,0-2.37,0-3.62.11-0.94.06-1.91,0.16-2.91,0.32l-1,.17-0.16,0a0.69,0.69,0,0,0-.33.16l-0.07.09a0.93,0.93,0,0,0-.08.45v2.79c0,0.07,0,.13,0,0.19a0.45,0.45,0,0,0,.49.49h7.7c3.66,0,5.17,1.1,5.17,3.66V23h-6.64a14.92,14.92,0,0,0-4.88.64,6.85,6.85,0,0,0-.68.28,5,5,0,0,0-2.7,3.14,9.78,9.78,0,0,0-.43,2.69q0,0.26,0,.53,0,0.62,0,1.18a7.76,7.76,0,0,0,1.11,3.86,4.61,4.61,0,0,0,.71.83,4.72,4.72,0,0,0,.57.45,5.4,5.4,0,0,0,.64.37c1.59,0.77,3.79,1,6.59,1,1.22,0,2.45,0,3.63-.1,0.71,0,1.41-.09,2.08-0.15l1.3-.14,1.21-.17,1.1-.21c0.35-.07.67-0.15,1-0.24a1.47,1.47,0,0,0,.65-0.38,1,1,0,0,0,.24-0.52,2.61,2.61,0,0,0,0-.42V19.62C138.5,14.67,135.84,12.11,127.78,12.11ZM133,32.76a24.71,24.71,0,0,1-5.22.5c-3.39,0-4.62-.64-4.62-3.25,0-2.29,1.1-3.07,3.53-3.07H133v5.81ZM148.8,2.63h-4.17a0.61,0.61,0,0,0-.69.69V37a0.61,0.61,0,0,0,.69.69h4.17a0.61,0.61,0,0,0,.69-0.69V3.32A0.61,0.61,0,0,0,148.8,2.63Zm44.82,9.48c-8.93,0-10.94,2.56-10.94,12.91s2,12.87,10.94,12.87a56.63,56.63,0,0,0,8.2-.5,0.69,0.69,0,0,0,.64-0.78V33.76a0.61,0.61,0,0,0-.69-0.69h-7.83c-4.44,0-5.54-1.1-5.68-6h14.51c1.28,0,1.56-.37,1.56-1.24V24.51C204.24,14.58,202.23,12.11,193.62,12.11Zm-5.36,11c0-4.94,1.1-6.23,5.36-6.23,4.07,0,5.08,1.28,5.13,6.23H188.27Z" transform="translate(-5.32 -1.95)"/></svg>