<svg height="143.4196mm" viewBox="0 0 527.18317 508.17969" width="148.78281mm" xmlns="http://www.w3.org/2000/svg"><g transform="translate(-41.863677 -54.960636)"><path d="m231.83305 331.1362h350.90851v240.30496h-350.90851z" fill="#fd0" stroke="#fd0" stroke-width="1.01974" transform="matrix(1 0 -.17484833 .98459538 0 0)"/><path d="m231.83305 331.1362h350.90851v240.30496h-350.90851z" fill="#fd0" stroke="#fd0" stroke-width="1.01974" transform="matrix(1 0 -.17484833 .98459538 0 0)"/><path d="m234.64549 56.346092h343.55481v120.91451h-343.55481z" fill="#fd0" stroke="#fd0" stroke-width="1.075199" transform="matrix(1 0 -.17364818 .98480775 0 0)"/><g fill="#666" stroke="#666"><path d="m97.080116 229.12294h49.233135v85.222343h-49.233135z" stroke-width="1.075199" transform="matrix(1 0 -.17364818 .98480775 0 0)"/><path d="m150.08815 294.07742h28.905901v21.491331h-28.905901z" stroke-width="1.13915" transform="matrix(1 0 -.19459309 .98088406 0 0)"/><path d="m172.48657 228.78741h47.581017v60.058266h-47.581017z" stroke-width="1.075199" transform="matrix(1 0 -.17364818 .98480775 0 0)"/><path d="m233.61496 228.78741h47.581017v60.058266h-47.581017z" stroke-width="1.075199" transform="matrix(1 0 -.17364818 .98480775 0 0)"/><path d="m230.96987 284.93326c-5.30703 13.42578-11.89593 25.57106-31.24537 24.96948l-33.54765-.32855 3.94678-21.02693 8.55136.32856c4.92743-.34071 4.19666-2.73672 4.93348-4.59966v-.32853z" fill-rule="evenodd" stroke-width=".99485"/><path d="m296.18723 229.09264h43.25v85.295837h-43.25z" stroke-width="1.075199" transform="matrix(1 0 -.17364818 .98480775 0 0)"/><path d="m362.59909 228.58492h43.25v85.295837h-43.25z" stroke-width="1.075199" transform="matrix(1 0 -.17364818 .98480775 0 0)"/><path d="m171.06439 192.59908h9.986393v21.237619h-9.986393z" stroke-width="1.091966" transform="matrix(1 0 -.16789843 .9858043 0 0)"/><path d="m201.63939 192.51762h9.985102v21.300566h-9.985102z" stroke-width="1.093513" transform="matrix(1 0 -.16738062 .98589235 0 0)"/><path d="m213.68208 201.19453h2.918587v3.27557h-2.918587z" stroke-width="1.075199" transform="matrix(1 0 -.17364818 .98480775 0 0)"/><path d="m213.76445 192.70171h5.683564v4.367426h-5.683564z" stroke-width="1.075199" transform="matrix(1 0 -.17364818 .98480775 0 0)"/><path d="m213.64546 209.67543h5.683564v4.367426h-5.683564z" stroke-width="1.075199" transform="matrix(1 0 -.17364818 .98480775 0 0)"/><path d="m149.21622 189.80301 12.47438.17834c6.35199 7.42914 3.40085 19.20652-4.59373 20.74937l-11.78194.0619 1.38248-4.91598h4.60822c1.91794-.26815 2.81627-2.23586 3.8402-3.99424.19258-1.03347.11293-2.34874 0-3.68698-1.3029-2.2981-2.84386-2.92971-4.45463-3.07246l-1.9969-.15364-1.8433 11.06094z" fill-rule="evenodd" stroke-width="1.000039"/></g><path d="m235.71576 192.8266h104.96621v21.235424h-104.96621z" fill="#010198" stroke="#010198" stroke-width="1.075199" transform="matrix(1 0 -.17364818 .98480775 0 0)"/><path d="m343.6879 192.8266h62.738426v21.235424h-62.738426z" fill="#010198" stroke="#010198" stroke-width="1.075199" transform="matrix(1 0 -.17364818 .98480775 0 0)"/><path d="m410.10413 192.8266h38.206093v21.235424h-38.206093z" fill="#010198" stroke="#010198" stroke-width="1.075199" transform="matrix(1 0 -.17364818 .98480775 0 0)"/><path d="m453.24146 192.97031h22.531042v21.230856h-22.531042z" fill="#010198" stroke="#010198" stroke-width="1.065118" transform="matrix(1 0 -.17710074 .98419273 0 0)"/><path d="m479.83411 192.97148h14.486855v21.230877h-14.486855z" fill="#010198" stroke="#010198" stroke-width="1.065215" transform="matrix(1 0 -.17713253 .98418701 0 0)"/><path d="m499.03299 192.8266h8.445558v21.235424h-8.445558z" fill="#010198" stroke="#010198" stroke-width="1.075199" transform="matrix(1 0 -.17364818 .98480775 0 0)"/><path d="m513.79419 192.97467h6.039137v21.230932h-6.039137z" fill="#010198" stroke="#010198" stroke-width="1.065477" transform="matrix(1 0 -.17721856 .98417152 0 0)"/><path d="m525.85266 192.93896h4.835755v21.36405h-4.835755z" fill="#010198" stroke="#010198" stroke-width="1.059356" transform="matrix(1 0 -.17960235 .98373929 0 0)"/><path d="m536.17426 192.97786h2.819633v21.230989h-2.819633z" fill="#010198" stroke="#010198" stroke-width="1.065737" transform="matrix(1 0 -.17730416 .9841561 0 0)"/><path d="m545.82788 192.8266h2.815186v21.235424h-2.815186z" fill="#010198" stroke="#010198" stroke-width="1.075199" transform="matrix(1 0 -.17364818 .98480775 0 0)"/><path d="m558.95721 192.85426h1.332496v21.584026h-1.332496z" fill="#010198" stroke="#010198" stroke-width="1.052641" transform="matrix(1 0 -.18287798 .98313562 0 0)"/><path d="m567.91907 192.91266h1.330529v21.398233h-1.330529z" fill="#010198" stroke="#010198" stroke-width="1.060022" transform="matrix(1 0 -.17980804 .98370172 0 0)"/><path d="m579.79944 192.7251h.798006v21.535765h-.798006z" fill="#010198" stroke="#010198" stroke-width="1.063216" transform="matrix(1 0 -.17859011 .98392356 0 0)"/><path d="m307.37047 307.97566-14.90423-36.94776 7.84434-44.33731 15.4272 38.73145z" fill="#666" fill-rule="evenodd" stroke="#666" stroke-width=".973126"/><path d="m285.67554 225.7066h14.049367v44.908825h-14.049367z" fill="#666" stroke="#666" stroke-width="1.087654"/><path d="m308.7287 264.1304h14.054832v44.441349h-14.054832z" fill="#666" stroke="#666" stroke-width="1.082189"/><path d="m184.55727 279.00388h45.317383v7.482031h-45.317383z" fill="#666" stroke="#666" stroke-width=".797331"/><path d="m211.04503 192.70171h5.683564v4.367426h-5.683564z" fill="#666" stroke="#666" stroke-width="1.075199" transform="matrix(1 0 -.17364818 .98480775 0 0)"/><path d="m211.8233 201.2892h4.739594v3.488516h-4.739594z" fill="#666" stroke="#666" stroke-width=".877519" transform="matrix(1 0 -.1812907 .98342955 0 0)"/><path d="m206.8299 209.01669h4.671954v4.125163h-4.671954z" fill="#666" stroke="#666" stroke-width=".947404" transform="matrix(1 0 -.15112367 .98851486 0 0)"/><path d="m171.79536 207.67184h4.610683v4.768384h-4.610683z" fill="#666" stroke="#666" stroke-width="1.011891" transform="matrix(1 0 -.1290236 .99164152 0 0)"/><path d="m172.91092 191.57552h4.610683v4.768384h-4.610683z" fill="#666" stroke="#666" stroke-width="1.011891" transform="matrix(1 0 -.1290236 .99164152 0 0)"/></g></svg>