<?xml version="1.0" encoding="utf-8"?>
<!-- Generator: Adobe Illustrator 21.0.2, SVG Export Plug-In . SVG Version: 6.00 Build 0)  -->
<svg version="1.1" id="Layer_1" xmlns="http://www.w3.org/2000/svg" xmlns:xlink="http://www.w3.org/1999/xlink" x="0px" y="0px"
	 viewBox="0 0 800 400" style="enable-background:new 0 0 800 400;" xml:space="preserve">
<style type="text/css">
	.st0{fill:#23145F;}
	.st1{fill:#FF5959;}
</style>
<path class="st0" d="M160.4,138.7v27.6h53.3v18.7h-53.3v26.7h60.1v18.7h-81.2V120h81.2v18.7H160.4z"/>
<path class="st1" d="M335.2,276.4H139.3v-18.7h195.9V276.4z"/>
<path class="st0" d="M333,230.2l-72.4-65.5v65.5h-21.1V120h2.3l72.4,66.7V120h21.1v110.2H333z"/>
<path class="st0" d="M439.1,184.9h-31.5v91.5h-21.1v-91.5H355v-18.7h84.2V184.9z"/>
<path class="st0" d="M502.4,278.4c-7.1,0-13.6-1.1-19.4-3.3c-5.8-2.2-10.8-5.3-14.9-9.3c-4.1-4-7.3-8.9-9.6-14.6
	c-2.3-5.7-3.4-12.1-3.4-19.1v-65.8h21.1V232c0,5.5,0.9,10.1,2.7,13.7c1.8,3.6,4,6.5,6.7,8.6c2.7,2.1,5.5,3.6,8.6,4.4
	c3.1,0.8,5.8,1.2,8.2,1.2c2.4,0,5.1-0.4,8.2-1.2c3.1-0.8,5.9-2.3,8.6-4.4c2.7-2.1,4.9-5,6.7-8.6c1.8-3.6,2.7-8.2,2.7-13.7v-65.8
	h21.1V232c0,7-1.1,13.4-3.3,19.1c-2.2,5.7-5.4,10.6-9.5,14.6c-4.1,4-9.1,7.1-14.9,9.3C516.2,277.3,509.6,278.4,502.4,278.4z"/>
<path class="st0" d="M590.5,241.4v35.1h-21.1V166.2h50.1c5.6,0,10.8,0.9,15.5,2.8c4.7,1.9,8.7,4.5,12,7.8c3.3,3.4,5.9,7.4,7.8,12
	c1.9,4.7,2.8,9.8,2.8,15.3c0,4.1-0.6,8.1-1.7,12c-1.1,3.9-2.6,7.4-4.6,10.5c-2,3.1-4.4,5.8-7.2,8.1c-2.9,2.3-6,3.8-9.4,4.7l27.4,37
	h-25.1l-25.5-35.1H590.5z M590.5,223h24c4.4,0,8-0.6,10.9-1.7c2.9-1.1,5.1-2.6,6.8-4.4c1.7-1.8,2.8-3.8,3.4-6.1
	c0.6-2.3,0.9-4.5,0.9-6.9c0-2.7-0.4-5.2-1.3-7.5c-0.9-2.3-2.2-4.3-3.9-6c-1.8-1.7-4-3.1-6.8-4.1c-2.8-1-6.1-1.5-10-1.5h-24V223z"/>
</svg>
