<?xml version="1.0" encoding="UTF-8" standalone="no"?>
<svg
	xmlns="http://www.w3.org/2000/svg"
	width="90"
	height="82"
	viewBox="0 0 90 82"
	version="1.1">
<path
	d="m 26.95,66.453001 -11,11 -11,-11 22,0 z"
	style="fill:#65c1c2" />
<path
	d="m 43.05,41.453001 c -2.3,-2.7 -2.2,-4.2 -0.8,-5.6 1.7,-1.7 3.5,-1 5.5,0.9 l -4.7,4.7 z m 23.6,-30 c 1.7,-1.6999994 3.5,-0.999999 5.5,0.9 l -4.7,4.7 c -2.4,-2.7 -2.3,-4.1 -0.8,-5.6 z m 14.2,4.8 c -2.1,3.2 -5.9,8.4 -9.8,4.5 l 9.9,-9.9 c -0.9,-0.8999994 -1.5,-1.6999992 -2.1,-2.1999992 -5.3,-5.3000001 -11.3,-5.4000001 -16,-0.7000001 -3.1,3.0999993 -4,6.6999993 -3.1,10.0999993 l -3.1,-3.5 c -0.8,0.4 -4.6,3.8 -1.8,8.8 l -3.5,-2.9 -4.7,4.7 6.4,6.4 c -4.9,-3.9 -10.2,-3.5 -14.4,0.7 -4.5,4.5 -4.2,10 -0.8,14.5 l -0.7,-0.7 c -4.5,-4.5 -9.4,-2.9 -11.8,-0.5 -1.9,1.9 -3,4.4 -2.5,6.2 l -9.7,-9.7 -5.2,5.2 19.2,19.2 10.3,0 -6.9,-6.9 c -3.6,-3.7 -3.7,-5.6 -1.9,-7.4 1.7,-1.7 3.7,-0.6 7.2,2.8 l 6.8,6.8 5.1,-5.1 -6.5,-6.5 c 4.7,3.5 10.3,3.7 15.3,-1.3 0,0 0.1,-0.1 0.1,-0.1 l 0,0 c 3.1,-2.8 4,-5.6 4,-5.6 l -3.9,-2.6 c -2.1,3.2 -5.8,8.4 -9.7,4.5 l 9.9,-9.9 6.2,6.2 5.4,-5.4 -7.7,-7.7 c -3.6,-3.6 -1.5,-7 0,-8.3 0.7,1.5 1.7,2.9 3,4.2 5,5 11.4,6 17.1,0.4 0,0 0.1,-0.1 0.1,-0.1 l 0,0 c 3.1,-2.8 4,-5.6 4,-5.6 l -4.2,-2.6 z"
	style="fill:#393e47;fill-opacity:1" />
</svg>
