<svg xmlns="http://www.w3.org/2000/svg" xmlns:svg="http://www.w3.org/2000/svg" xmlns:xlink="http://www.w3.org/1999/xlink" id="Layer_1" width="354" height="127" x="0" y="0" enable-background="new 10 10.132 380 129.736" version="1.1" viewBox="10 10.132 354 127" xml:space="preserve"><metadata id="metadata79"/><g id="g3" transform="translate(-0.50001037,-2.368)"><g id="g5"><defs id="defs7"><rect id="SVGID_1_" width="380" height="129" x="9.5" y="10.5"/></defs><clipPath id="SVGID_2_"><use id="use11" width="380" height="129.736" x="0" y="0" overflow="visible" xlink:href="#SVGID_1_"/></clipPath></g><g id="g15"><defs id="defs17"><rect id="SVGID_3_" width="380" height="129" x="9.5" y="10.5"/></defs><clipPath id="SVGID_4_"><use id="use21" width="380" height="129.736" x="0" y="0" overflow="visible" xlink:href="#SVGID_3_"/></clipPath><rect id="rect23" width="354" height="127" x="10.5" y="12.5" fill="#fc0" stroke="none" clip-path="url(#SVGID_4_)"/></g><g id="g25"><defs id="defs27"><rect id="SVGID_5_" width="380" height="129" x="9.5" y="10.5"/></defs><clipPath id="SVGID_6_"><use id="use31" width="380" height="129.736" x="0" y="0" overflow="visible" xlink:href="#SVGID_5_"/></clipPath><path id="path33" fill="#039" stroke="none" d="m 10.5,12.5 h 354 v 127 h -354 v -127 z m 176.988,121.768 c 95.437,0 172.821,-25.941 172.821,-57.918 0,-31.979 -77.385,-57.902 -172.821,-57.902 -95.433,0 -172.809,25.924 -172.809,57.902 0,31.975 77.376,57.918 172.809,57.918" clip-path="url(#SVGID_6_)"/></g><g id="g35"><defs id="defs37"><rect id="SVGID_7_" width="380" height="129" x="9.5" y="10.5"/></defs><clipPath id="SVGID_8_"><use id="use41" width="380" height="129.736" x="0" y="0" overflow="visible" xlink:href="#SVGID_7_"/></clipPath><path id="path43" fill="#039" fill-opacity="1" stroke="none" d="m 146.5,95.857 c 0,0 0.612,-0.53 0.694,-0.858 0.229,-1.067 -0.154,-2.103 -0.154,-2.103 L 137.5,77.857 V 77.76 l 0.042,15.807 0.272,1.254 0.518,0.68 H 108.17 l 0.497,-0.68 0.26,-1.344 -0.012,-41.164 -0.263,-1.192 -0.493,-0.621 h 30.174 l -0.506,0.662 -0.26,1.317 -0.018,14.752 10.929,-14.3 c 0,0 0.226,-0.56 0.226,-1.367 0,-0.508 -0.497,-1.336 -0.497,-1.336 l 30.03,0.034 -13.067,18.582 15.748,25.166 1.179,0.904 1.341,0.586 H 146.5 v 0.357 z" clip-path="url(#SVGID_8_)"/></g><g id="g45"><defs id="defs47"><rect id="SVGID_9_" width="380" height="129" x="9.5" y="10.5"/></defs><clipPath id="SVGID_10_"><use id="use51" width="380" height="129.736" x="0" y="0" overflow="visible" xlink:href="#SVGID_9_"/></clipPath><path id="polygon53" fill="#039" fill-opacity="1" stroke="none" d="m 91.426,93.688 0.267,1.406 0.49,0.844 -30.146,-0.081 0.355,-0.858 0.108,-1.433 0,-41.209 -0.122,-1.213 -0.353,-0.644 30.17,0 -0.502,0.662 -0.255,1.317 z" clip-path="url(#SVGID_10_)"/></g><g id="g55"><defs id="defs57"><rect id="SVGID_11_" width="380" height="129" x="9.5" y="10.5"/></defs><clipPath id="SVGID_12_"><use id="use61" width="380" height="129.736" x="0" y="0" overflow="visible" xlink:href="#SVGID_11_"/></clipPath><path id="polygon63" fill="#039" fill-opacity="1" stroke="none" d="m 235.211,67.105 1.371,-0.25 0.84,-0.492 -0.024,12.721 -0.882,-0.516 -1.305,-0.257 -16.711,0.019 0,4.17 21.819,0 1.537,-0.306 0.756,-0.583 0.05,14.355 -52.857,-0.103 0.484,-0.858 0.211,-1.437 0,-41.211 -0.223,-1.431 -0.51,-0.87 52.682,0.099 0.041,13.81 -0.857,-0.364 -1.434,-0.101 -21.699,0 0,3.669 z" clip-path="url(#SVGID_12_)"/></g><g id="g65"><defs id="defs67"><rect id="SVGID_13_" width="380" height="129" x="9.5" y="10.5"/></defs><clipPath id="SVGID_14_"><use id="use71" width="380" height="129.736" x="0" y="0" overflow="visible" xlink:href="#SVGID_13_"/></clipPath><path id="path73" fill="#039" fill-opacity="1" stroke="none" d="m 285.449,69.522 -3.547,7.978 h 7.105 l -3.558,-7.978 z M 267.298,52.421 c 0,0 0.224,-0.806 0.128,-1.448 -0.087,-0.628 -0.505,-0.868 -0.505,-0.868 l 40.885,0.012 c 0,0 -0.421,0.228 -0.509,0.871 -0.092,0.627 0.131,1.444 0.131,1.444 l 17.85,41.817 0.568,0.89 0.786,0.719 -32.288,0.056 c 0,0 0.495,-1.044 0.444,-1.479 -0.051,-0.463 -0.211,-1.06 -0.211,-1.06 L 292.48,87.5 h -14.054 l -2.298,5.874 c 0,0 -0.218,0.051 -0.218,0.503 0,0.88 0.529,1.623 0.529,1.623 h -26.037 c 0,0 0.896,-0.354 1.391,-1.437 0.404,-0.856 0.326,-0.806 0.326,-0.806 l 15.179,-40.836 z" clip-path="url(#SVGID_14_)"/></g></g></svg>