<svg xmlns="http://www.w3.org/2000/svg" xmlns:xlink="http://www.w3.org/1999/xlink" width="160" height="70" viewBox="0 0 160 70"><defs><path id="a" d="M0 62.083v6.96h6.042v-6.96z"/></defs><clipPath id="b"><use xlink:href="#a" overflow="visible"/></clipPath><g clip-path="url(#b)"><defs><path id="c" d="M0 61.703h6.075v8.504H0z"/></defs><clipPath id="d"><use xlink:href="#c" overflow="visible"/></clipPath><g clip-path="url(#d)"><defs><path id="e" d="M0 65.582v-.02c0-1.913 1.43-3.48 3.463-3.48 1.036 0 1.716.31 2.3.76.126.097.232.26.232.472 0 .328-.26.577-.586.577-.164 0-.278-.057-.356-.115-.46-.375-.958-.606-1.6-.606-1.276 0-2.217 1.057-2.217 2.373v.02c0 1.316.93 2.384 2.216 2.384.71 0 1.19-.23 1.68-.644.085-.076.21-.134.354-.134.296 0 .556.25.556.547 0 .183-.086.327-.192.422-.632.557-1.35.904-2.435.904-1.957 0-3.415-1.53-3.415-3.462"/></defs><clipPath id="f"><use xlink:href="#e" overflow="visible"/></clipPath><g clip-path="url(#f)"><defs><path id="g" d="M0 61.703h6.075v8.504H0z"/></defs><clipPath id="h"><use xlink:href="#g" overflow="visible"/></clipPath><path clip-path="url(#h)" d="M-6.075 56.008h18.192v19.11H-6.075z"/></g></g></g><defs><path id="i" d="M10.44 65.582v-.02c0-1.893 1.458-3.48 3.52-3.48 2.06 0 3.5 1.568 3.5 3.462v.02c0 1.894-1.458 3.48-3.52 3.48-2.062 0-3.5-1.568-3.5-3.462m5.782 0v-.02c0-1.307-.95-2.393-2.282-2.393s-2.263 1.065-2.263 2.373v.02c0 1.307.95 2.384 2.282 2.384s2.262-1.057 2.262-2.365"/></defs><clipPath id="j"><use xlink:href="#i" overflow="visible"/></clipPath><path clip-path="url(#j)" d="M4.364 56.008h19.17v19.11H4.364z"/><defs><path id="k" d="M22.143 65.582v-.02c0-1.893 1.46-3.48 3.52-3.48 2.062 0 3.5 1.568 3.5 3.462v.02c0 1.894-1.457 3.48-3.52 3.48s-3.5-1.568-3.5-3.462m5.783 0v-.02c0-1.307-.95-2.393-2.282-2.393-1.333 0-2.263 1.065-2.263 2.373v.02c0 1.307.95 2.384 2.283 2.384s2.263-1.057 2.263-2.365"/></defs><clipPath id="l"><use xlink:href="#k" overflow="visible"/></clipPath><path clip-path="url(#l)" d="M16.07 56.008h19.17v19.11H16.07z"/><defs><path id="m" d="M34.146 62.736c0-.326.26-.587.594-.587.326 0 .585.26.585.586v5.115h3.04c.297 0 .538.24.538.538 0 .3-.24.54-.537.54H34.74c-.335 0-.594-.26-.594-.596v-5.596z"/></defs><clipPath id="n"><use xlink:href="#m" overflow="visible"/></clipPath><path clip-path="url(#n)" d="M28.07 56.075h16.907v18.927H28.07z"/><defs><path id="o" d="M43.7 62.736c0-.326.26-.587.596-.587.326 0 .585.26.585.586v5.652c0 .328-.258.587-.584.587-.336 0-.595-.26-.595-.587v-5.652z"/></defs><clipPath id="p"><use xlink:href="#o" overflow="visible"/></clipPath><path clip-path="url(#p)" d="M37.626 56.075h13.33V75.05h-13.33z"/><defs><path id="q" d="M50.224 62.755c0-.326.26-.595.594-.595h.125c.288 0 .45.144.614.345l3.357 4.355v-4.133c0-.317.26-.577.575-.577.324 0 .583.26.583.577v5.652c0 .326-.25.585-.575.585h-.048c-.277 0-.45-.144-.614-.355l-3.452-4.48v4.268c0 .317-.258.577-.575.577-.327 0-.586-.26-.586-.577v-5.643z"/></defs><clipPath id="r"><use xlink:href="#q" overflow="visible"/></clipPath><path clip-path="url(#r)" d="M44.15 56.075h18V75.05h-18z"/><defs><path id="s" d="M61.057 65.582v-.02c0-1.883 1.44-3.48 3.463-3.48 1.007 0 1.68.242 2.292.684.116.086.24.25.24.48 0 .318-.26.587-.586.587-.153 0-.268-.067-.364-.134-.432-.32-.9-.53-1.63-.53-1.237 0-2.178 1.086-2.178 2.374v.02c0 1.383.91 2.403 2.283 2.403.633 0 1.208-.203 1.62-.51v-1.26h-1.324c-.287 0-.527-.22-.527-.508s.24-.52.527-.52h1.87c.336 0 .595.258.595.595v1.798c0 .336-.135.575-.412.75-.576.384-1.382.73-2.39.73-2.098 0-3.48-1.5-3.48-3.46"/></defs><clipPath id="t"><use xlink:href="#s" overflow="visible"/></clipPath><path clip-path="url(#t)" d="M54.982 56.008h18.432v19.11H54.982z"/><g><defs><path id="u" d="M83.333 68.84l-.7-.71c-.565.547-1.247.893-2.072.893-1.255 0-2.195-.76-2.195-1.922v-.02c0-.864.508-1.49 1.43-1.884-.385-.49-.557-.912-.557-1.403v-.02c0-.902.73-1.69 1.927-1.69 1.065 0 1.785.72 1.785 1.624v.02c0 .883-.586 1.413-1.468 1.75l1.14 1.162c.203-.29.385-.617.558-.963.047-.106.2-.28.44-.28.28 0 .51.232.51.5 0 .087-.03.184-.068.26-.22.413-.47.818-.73 1.182l.748.75c.116.115.182.23.182.403 0 .297-.22.528-.518.528-.17.003-.287-.055-.41-.18m-1.382-1.394l-1.496-1.528c-.633.278-.902.692-.902 1.125v.02c0 .566.47.98 1.123.98.47 0 .89-.23 1.275-.597m-.048-3.652v-.02c0-.45-.316-.758-.758-.758-.48 0-.806.336-.806.806v.02c0 .337.135.587.508 1 .692-.25 1.056-.557 1.056-1.048"/></defs><clipPath id="v"><use xlink:href="#u" overflow="visible"/></clipPath><path clip-path="url(#v)" d="M72.29 56.008h18.047v19.09H72.29z"/></g><g><defs><path id="w" d="M95.51 62.736c0-.326.26-.587.594-.587.326 0 .585.26.585.586v2.26h3.203v-2.26c0-.326.258-.587.585-.587.336 0 .594.26.594.586v5.652c0 .328-.258.587-.594.587-.327 0-.585-.26-.585-.587V66.09H96.69v2.298c0 .328-.26.587-.585.587-.335 0-.594-.26-.594-.587v-5.652z"/></defs><clipPath id="x"><use xlink:href="#w" overflow="visible"/></clipPath><path clip-path="url(#x)" d="M89.436 56.075h17.712V75.05H89.436z"/></g><g><defs><path id="y" d="M106.352 68.332v-5.538c0-.336.26-.595.594-.595h3.904c.288 0 .527.24.527.528 0 .297-.24.528-.527.528h-3.318v1.75h2.887c.286 0 .526.24.526.54 0 .288-.24.518-.527.518h-2.888v1.808h3.366c.288 0 .528.24.528.528 0 .298-.24.528-.528.528h-3.95c-.337 0-.596-.26-.596-.596"/></defs><clipPath id="z"><use xlink:href="#y" overflow="visible"/></clipPath><path clip-path="url(#z)" d="M100.277 56.124H117.5V75h-17.223z"/></g><g><defs><path id="A" d="M115.946 68.157l2.494-5.575c.135-.298.374-.48.71-.48h.058c.335 0 .565.182.7.48l2.494 5.575c.047.088.067.174.067.25 0 .318-.24.568-.557.568-.278 0-.47-.164-.576-.414l-.546-1.26h-3.26l-.565 1.3c-.096.24-.298.375-.547.375-.306 0-.546-.24-.546-.548-.003-.087.025-.173.074-.27zm4.392-1.902l-1.18-2.72-1.18 2.72h2.36z"/></defs><clipPath id="B"><use xlink:href="#A" overflow="visible"/></clipPath><path clip-path="url(#B)" d="M109.794 56.028h18.748V75.05h-18.748z"/></g><g><defs><path id="C" d="M128.178 63.294h-1.63c-.308 0-.547-.25-.547-.548 0-.297.24-.547.547-.547h4.46c.297 0 .537.25.537.546 0 .298-.24.548-.537.548h-1.64v5.094c0 .328-.268.588-.594.588-.326 0-.594-.26-.594-.588v-5.094z"/></defs><clipPath id="D"><use xlink:href="#C" overflow="visible"/></clipPath><path clip-path="url(#D)" d="M119.926 56.125h17.693V75.05h-17.694z"/></g><g><defs><path id="E" d="M136.362 62.736c0-.326.26-.587.595-.587.326 0 .585.26.585.586v5.652c0 .328-.26.587-.585.587-.336 0-.595-.26-.595-.587v-5.652z"/></defs><clipPath id="F"><use xlink:href="#E" overflow="visible"/></clipPath><path clip-path="url(#F)" d="M130.287 56.075h13.33V75.05h-13.33z"/></g><g><defs><path id="G" d="M142.885 62.755c0-.326.26-.595.594-.595h.124c.288 0 .45.144.614.345l3.357 4.355v-4.133c0-.317.26-.577.575-.577.325 0 .585.26.585.577v5.652c0 .326-.25.585-.575.585h-.048c-.277 0-.45-.144-.614-.355l-3.452-4.48v4.268c0 .317-.258.577-.575.577-.325 0-.584-.26-.584-.577v-5.643z"/></defs><clipPath id="H"><use xlink:href="#G" overflow="visible"/></clipPath><path clip-path="url(#H)" d="M136.81 56.075h18V75.05h-18z"/></g><g><defs><path id="I" d="M153.717 65.582v-.02c0-1.883 1.44-3.48 3.463-3.48 1.007 0 1.68.242 2.292.684.116.086.24.25.24.48 0 .318-.26.587-.586.587-.153 0-.268-.067-.364-.134-.432-.32-.9-.53-1.63-.53-1.237 0-2.178 1.086-2.178 2.374v.02c0 1.383.91 2.403 2.283 2.403.633 0 1.208-.203 1.62-.51v-1.26h-1.324c-.286 0-.527-.22-.527-.508s.24-.52.527-.52h1.87c.336 0 .595.258.595.595v1.798c0 .336-.135.575-.412.75-.576.384-1.382.73-2.39.73-2.098 0-3.48-1.5-3.48-3.46"/></defs><clipPath id="J"><use xlink:href="#I" overflow="visible"/></clipPath><path clip-path="url(#J)" d="M147.643 56.008h18.432v19.11h-18.432z"/></g><g><defs><path id="K" d="M18.096 46.932H.44l8.83-15.326h17.653z"/></defs><clipPath id="L"><use xlink:href="#K" overflow="visible"/></clipPath><path clip-path="url(#L)" fill="#ED3124" d="M-5.634 25.53h38.632v27.476H-5.634z"/></g><g><defs><path id="M" d="M35.75 46.932h17.657L44.58 31.606H26.923z"/></defs><clipPath id="N"><use xlink:href="#M" overflow="visible"/></clipPath><path clip-path="url(#N)" fill="#ED3124" d="M20.85 25.53h38.63v27.476H20.85z"/></g><g><defs><path id="O" d="M35.75 16.283L26.925.957l-8.828 15.326 8.828 15.323z"/></defs><clipPath id="P"><use xlink:href="#O" overflow="visible"/></clipPath><path clip-path="url(#P)" fill="#ED3124" d="M12.02-5.117h29.805V37.68H12.02z"/></g><g><defs><path id="Q" d="M61.333 40.438h7.072v-2.57h-7.072v-3.162h7.957v-2.572H58.337V46.96h11.16v-2.57h-8.164z"/></defs><clipPath id="R"><use xlink:href="#Q" overflow="visible"/></clipPath><path clip-path="url(#R)" d="M52.263 26.06h23.31v26.976h-23.31z"/></g><g><defs><path id="S" d="M61.128 18.643l3.14 11.022H67.148l3.142-11.022v11.022h2.79V14.84h-4.276l-3.096 10.406-3.096-10.406H58.337v14.825h2.79z"/></defs><clipPath id="T"><use xlink:href="#S" overflow="visible"/></clipPath><path clip-path="url(#T)" d="M52.262 8.765h26.893V35.74H52.262z"/></g><g><defs><path id="U" d="M0 .957h160v68.086H0z"/></defs><clipPath id="V"><use xlink:href="#U" overflow="visible"/></clipPath><g clip-path="url(#V)"><defs><path id="W" d="M69.25 14.32h89.904v34.02H69.25z"/></defs><clipPath id="X"><use xlink:href="#W" overflow="visible"/></clipPath><g clip-path="url(#X)"><defs><path id="Y" d="M126.24 14.84h2.978v14.825h-2.98z"/></defs><clipPath id="Z"><use xlink:href="#Y" overflow="visible"/></clipPath><g clip-path="url(#Z)"><defs><path id="aa" d="M0 .957h160.37v69.25H0z"/></defs><clipPath id="ab"><use xlink:href="#aa" overflow="visible"/></clipPath><path clip-path="url(#ab)" d="M120.164 8.766h15.128V35.74h-15.128z"/></g></g><g clip-path="url(#X)"><defs><path id="ac" d="M128.666 32.134h2.978v14.828h-2.978z"/></defs><clipPath id="ad"><use xlink:href="#ac" overflow="visible"/></clipPath><g clip-path="url(#ad)"><defs><path id="ae" d="M0 .957h160.37v69.25H0z"/></defs><clipPath id="af"><use xlink:href="#ae" overflow="visible"/></clipPath><path clip-path="url(#af)" d="M122.592 26.06h15.127v26.977H122.59z"/></g></g><g clip-path="url(#X)"><defs><path id="ag" d="M155.705 14.84h2.98v14.825h-2.98z"/></defs><clipPath id="ah"><use xlink:href="#ag" overflow="visible"/></clipPath><g clip-path="url(#ah)"><defs><path id="ai" d="M0 .957h160.37v69.25H0z"/></defs><clipPath id="aj"><use xlink:href="#ai" overflow="visible"/></clipPath><path clip-path="url(#aj)" d="M149.63 8.766h15.13V35.74h-15.13z"/></g></g><g clip-path="url(#X)"><defs><path id="ak" d="M74.268 14.84h2.98v14.825h-2.98z"/></defs><clipPath id="al"><use xlink:href="#ak" overflow="visible"/></clipPath><g clip-path="url(#al)"><defs><path id="am" d="M0 .957h160.37v69.25H0z"/></defs><clipPath id="an"><use xlink:href="#am" overflow="visible"/></clipPath><path clip-path="url(#an)" d="M68.193 8.766h15.13V35.74h-15.13z"/></g></g><g clip-path="url(#X)"><defs><path id="ao" d="M151.543 20.622h-5.922V14.84h-2.93v14.824h2.93v-6.472h5.923v6.472h2.93V14.84h-2.93z"/></defs><clipPath id="ap"><use xlink:href="#ao" overflow="visible"/></clipPath><g clip-path="url(#ap)"><defs><path id="aq" d="M0 .957h160.37v69.25H0z"/></defs><clipPath id="ar"><use xlink:href="#aq" overflow="visible"/></clipPath><path clip-path="url(#ar)" d="M136.615 8.765h23.934V35.74h-23.935z"/></g></g><g clip-path="url(#X)"><defs><path id="as" d="M81.654 29.664h3.04V17.408h3.616V14.84H78.04v2.568h3.614z"/></defs><clipPath id="at"><use xlink:href="#as" overflow="visible"/></clipPath><g clip-path="url(#at)"><defs><path id="au" d="M0 .957h160.37v69.25H0z"/></defs><clipPath id="av"><use xlink:href="#au" overflow="visible"/></clipPath><path clip-path="url(#av)" d="M71.966 8.765h22.42V35.74h-22.42z"/></g></g><g clip-path="url(#X)"><defs><path id="aw" d="M108.83 46.962h3.04V34.706h3.614v-2.572h-10.271v2.572h3.616z"/></defs><clipPath id="ax"><use xlink:href="#aw" overflow="visible"/></clipPath><g clip-path="url(#ax)"><defs><path id="ay" d="M0 .957h160.37v69.25H0z"/></defs><clipPath id="az"><use xlink:href="#ay" overflow="visible"/></clipPath><path clip-path="url(#az)" d="M99.14 26.06h22.42v26.976H99.14z"/></g></g><g clip-path="url(#X)"><defs><path id="aA" d="M106.795 30.076c3.793 0 5.903-1.73 5.903-5.042V14.84h-2.98v10.466c0 1.274-1.072 2.34-2.923 2.34-2.24 0-2.9-1.258-2.9-2.34V14.84h-2.93v10.195c0 3.564 2.207 5.04 5.83 5.04"/></defs><clipPath id="aB"><use xlink:href="#aA" overflow="visible"/></clipPath><g clip-path="url(#aB)"><defs><path id="aC" d="M0 .957h160.37v69.25H0z"/></defs><clipPath id="aD"><use xlink:href="#aC" overflow="visible"/></clipPath><path clip-path="url(#aD)" d="M94.89 8.765h23.882V36.15H94.89z"/></g></g><g clip-path="url(#X)"><defs><path id="aE" d="M84.277 40.438h7.073v-2.57h-7.073v-3.162h7.957v-2.572H81.283V46.96H92.442v-2.57h-8.165z"/></defs><clipPath id="aF"><use xlink:href="#aE" overflow="visible"/></clipPath><g clip-path="url(#aF)"><defs><path id="aG" d="M0 .957h160.37v69.25H0z"/></defs><clipPath id="aH"><use xlink:href="#aG" overflow="visible"/></clipPath><path clip-path="url(#aH)" d="M75.208 26.06h23.308v26.976H75.208z"/></g></g><g clip-path="url(#X)"><defs><path id="aI" d="M116.824 29.664h4.27c2.782 0 4.44-1.668 4.44-4.003 0-1.884-1.364-3.503-2.85-3.876 1.298-.33 2.345-1.66 2.345-3.296 0-2.186-1.615-3.648-4.613-3.648H113.75v14.825h3.074zm3.38-2.24h-3.496v-4.3h3.46c1.244 0 2.298.717 2.298 2.156 0 1.215-.955 2.144-2.262 2.144zm.218-10.228c.813 0 1.725.756 1.725 1.755 0 .888-.636 1.867-1.892 1.867h-3.55v-3.62h3.717z"/></defs><clipPath id="aJ"><use xlink:href="#aI" overflow="visible"/></clipPath><g clip-path="url(#aJ)"><defs><path id="aK" d="M0 .957h160.37v69.25H0z"/></defs><clipPath id="aL"><use xlink:href="#aK" overflow="visible"/></clipPath><path clip-path="url(#aL)" d="M107.675 8.765h23.935V35.74h-23.935z"/></g></g><g clip-path="url(#X)"><defs><path id="aM" d="M125.15 39.844c1.27-.382 2.63-1.524 2.63-3.582 0-2.636-1.78-4.148-4.813-4.148h-6.749V46.94h2.995v-5.843h2.543c1.538 0 2.376.8 2.63 1.856.275 1.166.204 2.902.5 3.987h3.014c-.293-1.137-.466-2.68-.532-3.898-.11-2.006-1.162-2.81-2.218-3.198zm-5.938-1.124v-4.036h3.606c1.217 0 2.03.857 2.03 2.026 0 .824-.72 2.01-1.94 2.01h-3.696z"/></defs><clipPath id="aN"><use xlink:href="#aM" overflow="visible"/></clipPath><g clip-path="url(#aN)"><defs><path id="aO" d="M0 .957h160.37v69.25H0z"/></defs><clipPath id="aP"><use xlink:href="#aO" overflow="visible"/></clipPath><path clip-path="url(#aP)" d="M110.143 26.04h23.83v26.975h-23.83z"/></g></g><g clip-path="url(#X)"><defs><path id="aQ" d="M73.455 32.134H70.46v14.828h9.967v-2.57h-6.972z"/></defs><clipPath id="aR"><use xlink:href="#aQ" overflow="visible"/></clipPath><g clip-path="url(#aR)"><defs><path id="aS" d="M0 .957h160.37v69.25H0z"/></defs><clipPath id="aT"><use xlink:href="#aS" overflow="visible"/></clipPath><path clip-path="url(#aT)" d="M64.386 26.06h22.116v26.977H64.386z"/></g></g><g clip-path="url(#X)"><defs><path id="aU" d="M93.31 23.4c2.402.418 3.767.864 3.767 2.3 0 .97-.96 1.893-2.952 1.893s-3.014-1.135-3.014-2.482H88.24c0 2.58 1.67 4.935 6.014 4.935 4.14 0 5.933-2.193 5.933-4.698 0-2.337-1.526-3.818-4.26-4.357-2.624-.516-4.427-.628-4.427-2.295 0-1.144 1.045-1.82 2.65-1.82 1.71 0 2.69.84 2.69 2.26h2.893c0-2.338-1.765-4.746-5.7-4.746-2.712 0-5.527 1.567-5.527 4.496 0 2.462 1.804 3.987 4.808 4.513"/></defs><clipPath id="aV"><use xlink:href="#aU" overflow="visible"/></clipPath><g clip-path="url(#aV)"><defs><path id="aW" d="M0 .957h160.37v69.25H0z"/></defs><clipPath id="aX"><use xlink:href="#aW" overflow="visible"/></clipPath><path clip-path="url(#aX)" d="M82.164 8.315h24.096V36.12H82.164z"/></g></g><g clip-path="url(#X)"><defs><path id="aY" d="M135.012 23.4c2.4.418 3.764.864 3.764 2.3 0 .97-.96 1.893-2.95 1.893-1.992 0-3.015-1.135-3.015-2.482h-2.87c0 2.58 1.67 4.935 6.013 4.935 4.14 0 5.933-2.193 5.933-4.698 0-2.337-1.526-3.818-4.26-4.357-2.626-.516-4.426-.628-4.426-2.295 0-1.144 1.045-1.82 2.652-1.82 1.705 0 2.687.84 2.687 2.26h2.893c0-2.338-1.77-4.746-5.703-4.746-2.713 0-5.527 1.567-5.527 4.496 0 2.462 1.806 3.987 4.81 4.513"/></defs><clipPath id="aZ"><use xlink:href="#aY" overflow="visible"/></clipPath><g clip-path="url(#aZ)"><defs><path id="ba" d="M0 .957h160.37v69.25H0z"/></defs><clipPath id="bb"><use xlink:href="#ba" overflow="visible"/></clipPath><path clip-path="url(#bb)" d="M123.865 8.315h24.096V36.12h-24.095z"/></g></g><g clip-path="url(#X)"><defs><path id="bc" d="M99.183 44.672c-2.41 0-3.816-2.365-3.816-5.185 0-2.818 1.357-5.187 3.816-5.187 1.83 0 2.77 1.14 3.175 2.535h3.103c-.507-2.903-2.772-5.057-6.36-5.057-4.526 0-6.813 3.47-6.813 7.75 0 4.28 2.38 7.75 6.812 7.75 3.545 0 5.94-2.065 6.38-5.232h-3.12c-.406 1.49-1.38 2.626-3.177 2.626"/></defs><clipPath id="bd"><use xlink:href="#bc" overflow="visible"/></clipPath><g clip-path="url(#bd)"><defs><path id="be" d="M0 .957h160.37v69.25H0z"/></defs><clipPath id="bf"><use xlink:href="#be" overflow="visible"/></clipPath><path clip-path="url(#bf)" d="M86.213 25.704h25.34v27.65h-25.34z"/></g></g><g clip-path="url(#X)"><defs><path id="bg" d="M139.27 44.672c-2.41 0-3.82-2.365-3.82-5.185 0-2.818 1.357-5.187 3.82-5.187 1.828 0 2.767 1.14 3.173 2.535h3.102c-.51-2.903-2.773-5.057-6.362-5.057-4.524 0-6.814 3.47-6.814 7.75 0 4.28 2.383 7.75 6.813 7.75 3.546 0 5.94-2.065 6.38-5.232h-3.12c-.406 1.49-1.38 2.626-3.174 2.626"/></defs><clipPath id="bh"><use xlink:href="#bg" overflow="visible"/></clipPath><g clip-path="url(#bh)"><defs><path id="bi" d="M0 .957h160.37v69.25H0z"/></defs><clipPath id="bj"><use xlink:href="#bi" overflow="visible"/></clipPath><path clip-path="url(#bj)" d="M126.295 25.704h25.343v27.65h-25.343z"/></g></g></g></g></svg>