<?xml version="1.0" encoding="utf-8"?>
<!-- Generator: Adobe Illustrator 19.2.1, SVG Export Plug-In . SVG Version: 6.00 Build 0)  -->
<svg version="1.1" id="layer" xmlns="http://www.w3.org/2000/svg" xmlns:xlink="http://www.w3.org/1999/xlink" x="0px" y="0px"
	 viewBox="0 0 652 652" style="enable-background:new 0 0 652 652;" xml:space="preserve">
<style type="text/css">
	.st0{fill:#212121;}
</style>
<g>
	<path class="st0" d="M98.1,283.4c8.9,0,16.1,7.2,16.1,16.1v45c0,8.9-7.2,16.1-16.1,16.1h-45c-8.9,0-16.1-7.2-16.1-16.1v-45
		c0-8.9,7.2-16.1,16.1-16.1H98.1 M101.1,314.7c0-3-1.1-5.6-3.2-7.7c-2.1-2.1-4.7-3.2-7.7-3.2s-5.6,1.1-7.7,3.2
		c-2.1,2.1-3.2,4.7-3.2,7.7v11c0,2.4-1.2,3.6-3.6,3.6s-3.6-1.2-3.6-3.6v-10.2v-0.6c0-3-1.1-5.6-3.2-7.7c-2.1-2.1-4.7-3.2-7.7-3.2
		c-3,0-5.6,1.1-7.7,3.2c-2.1,2.1-3.2,4.7-3.2,7.7v21.8c0,2.4,1.2,3.6,3.6,3.6s3.6-1.2,3.6-3.6v-22l0,0c0-2.4,1.2-3.6,3.6-3.6
		s3.6,1.2,3.6,3.6v11c0,3,1.1,5.6,3.2,7.7c2.1,2.1,4.7,3.2,7.7,3.2s5.6-1.1,7.7-3.2s3.2-4.7,3.2-7.7V325v-10.2
		c0-2.4,1.2-3.6,3.6-3.6c2.4,0,3.6,1.2,3.6,3.6l0,0v21.8c0,2.4,1.2,3.6,3.6,3.6s3.6-1.2,3.6-3.6
		C101.1,336.6,101.1,314.7,101.1,314.7z"/>
	<path class="st0" d="M240.7,294.9c8.1,0,14.9,2.6,20.3,7.7c5.4,5.1,8.1,11.6,8.1,19.4c0,7.8-2.7,14.3-8.3,19.3
		c-5.4,5.1-12.3,7.7-20.8,7.7c-8,0-14.6-2.6-19.9-7.7s-8-11.4-8-19.1c0-7.8,2.7-14.5,8-19.6C225.8,297.4,232.5,294.9,240.7,294.9z
		 M241,302.1c-6,0-11,2-14.9,5.7c-3.9,3.8-5.9,8.6-5.9,14.5c0,5.7,2,10.4,5.9,14.2c3.9,3.8,8.7,5.7,14.6,5.7s10.8-2,14.8-5.7
		c3.9-3.9,5.9-8.7,5.9-14.5c0-5.6-2-10.2-5.9-14.2C251.5,303.9,246.7,302.1,241,302.1z"/>
	<path class="st0" d="M326.2,295.3h7.2v53.3h-6.6l-35.7-41.1v41.1h-7.2v-53.3h6.2l36,41.4v-41.4H326.2z"/>
	<path class="st0" d="M376.5,294.9c8.1,0,14.9,2.6,20.3,7.7c5.4,5.1,8.1,11.6,8.1,19.4c0,7.8-2.7,14.2-8.1,19.3
		c-5.4,5.1-12.3,7.7-20.6,7.7c-8,0-14.6-2.6-19.9-7.7c-5.3-5.1-8-11.4-8-19.1c0-7.8,2.7-14.5,8-19.6
		C361.6,297.6,368.2,294.9,376.5,294.9z M376.8,302.1c-6,0-11,2-14.9,5.7c-3.9,3.8-5.9,8.6-5.9,14.5c0,5.7,2,10.4,5.9,14.2
		c3.9,3.8,8.7,5.7,14.6,5.7s10.8-2,14.8-5.7c3.9-3.9,5.9-8.6,5.9-14.3c0-5.6-2-10.2-5.9-14.2C387.3,304.1,382.5,302.1,376.8,302.1z"
		/>
	<path class="st0" d="M420,348.6v-53.3h16.9c5.1,0,9.2,1.4,12.2,4.1c3,2.7,4.5,6.5,4.5,11c0,3.2-0.8,5.9-2.3,8.3
		c-1.5,2.4-3.6,4.1-6.3,5.3c-2.7,1.1-6.6,1.7-11.6,1.7h-5.6v23C427.8,348.6,420,348.6,420,348.6z M435.5,302.1h-7.8v16.7h8.3
		c3.2,0,5.4-0.8,7.2-2.3c1.7-1.5,2.6-3.6,2.6-6.3C445.7,304.8,442.3,302.1,435.5,302.1z"/>
	<path class="st0" d="M506.6,344.9c-1.1-1.5-2.6-3.8-4.5-6.8c-3-4.8-5.3-8.1-6.9-10.1c-1.2-1.4-2.3-2.4-3.5-3.5
		c0.6-0.2,1.2-0.3,1.7-0.6c2.7-1.1,4.8-2.9,6.3-5.3c1.5-2.4,2.3-5.1,2.3-8.3c0-4.7-1.5-8.3-4.5-11s-7.1-4.1-12.2-4.1h-16.9v53.3h7.7
		v-23h3.6c1.5,0.2,2.6,0.3,3.3,0.8c1.1,0.6,2.3,1.5,3.6,2.9c1.4,1.4,2.7,3,4.4,5.3l2.6,4.2l2.4,3.9l1.5,2.1c0.3,0.3,0.5,0.5,0.5,0.6
		l2.3,3.5h9L506.6,344.9z M476.3,302.1h7.8c6.8,0,10.1,2.7,10.1,8.1c0,2.7-0.9,4.8-2.6,6.3s-4.1,2.3-7.2,2.3h-8.3v-16.7H476.3z"/>
	<path class="st0" d="M521.6,295.3h7.7v53.3h-7.7V295.3z"/>
	<path class="st0" d="M591.5,336.1v8.4c-5.6,3-11.9,4.5-19.3,4.5c-5.9,0-11-1.2-15.1-3.6c-4.1-2.4-7.4-5.6-9.8-9.8
		c-2.4-4.2-3.6-8.7-3.6-13.6c0-7.7,2.7-14.2,8.3-19.4c5.4-5.3,12.2-7.8,20.3-7.8c5.6,0,11.7,1.5,18.5,4.4v8.1
		c-6.2-3.5-12.2-5.3-18.1-5.3c-6,0-11.1,2-15.1,5.7c-4.1,3.8-6,8.6-6,14.3c0,5.9,2,10.5,5.9,14.3c3.9,3.8,9,5.6,15.1,5.6
		C579.1,342.2,585.3,340.2,591.5,336.1z"/>
	<path class="st0" d="M605.9,295.3h30.3v6.8h-22.6v16.3h21.8v6.8h-21.8v16.6H637v6.8h-31V295.3z"/>
	<g>
		<path class="st0" d="M169.7,336.3L169.7,336.3l16-41h11.6v53.3h-7.5v-44.6h-0.2l-17.8,44.6H167l-17.5-44.6h-0.2v44.6h-7.2v-53.3
			h11.6L169.7,336.3z"/>
	</g>
</g>
<g id="XMLID_249_">
</g>
</svg>
