<?xml version="1.0" encoding="UTF-8" standalone="no"?>
<svg
   xmlns:dc="http://purl.org/dc/elements/1.1/"
   xmlns:cc="http://creativecommons.org/ns#"
   xmlns:rdf="http://www.w3.org/1999/02/22-rdf-syntax-ns#"
   xmlns:svg="http://www.w3.org/2000/svg"
   xmlns="http://www.w3.org/2000/svg"
   viewBox="0 0 200 195.01013"
   height="195.01013"
   width="200"
   xml:space="preserve"
   version="1.1"
   id="svg2"><metadata
     id="metadata8"><rdf:RDF><cc:Work
         rdf:about=""><dc:format>image/svg+xml</dc:format><dc:type
           rdf:resource="http://purl.org/dc/dcmitype/StillImage" /><dc:title></dc:title></cc:Work></rdf:RDF></metadata><defs
     id="defs6" /><g
     transform="matrix(1.25,0,0,-1.25,0,195.01013)"
     id="g10"><g
       transform="scale(0.1,0.1)"
       id="g12"><path
         id="path14"
         style="fill:#e83860;fill-opacity:1;fill-rule:nonzero;stroke:none"
         d="m 1345.7228,843.22146 c 0,-13.40076 -5.3251,-26.25434 -14.8029,-35.73209 L 1104.5972,581.16664 c -12.7315,-12.73145 -34.5058,-3.71293 -34.5058,14.29479 l 0,507.13277 272.4852,270.9609 3.1462,0 0,-530.33364" /><path
         id="path16"
         style="fill:#dfc586;fill-opacity:1;fill-rule:nonzero;stroke:none"
         d="m 1165.1131,1554.1599 c -7.8949,7.8949 -20.6898,7.8949 -28.5847,0 L 800,1217.6364 l -4.67536,0 0,-379.82801 4.67536,-9.97606 270.0914,270.09137 275.6314,275.6314 -180.6097,180.6048" /><path
         id="path18"
         style="fill:#327787;fill-opacity:1;fill-rule:nonzero;stroke:none"
         d="m 254.2772,843.22146 c 0,-13.40076 5.32464,-26.25434 14.80141,-35.73209 L 495.39792,581.16664 c 12.73633,-12.73145 34.51072,-3.71293 34.51072,14.29479 l 0,507.13277 -272.4901,270.9609 -3.14134,0 0,-530.33364" /><path
         id="path20"
         style="fill:#8abb9c;fill-opacity:1;fill-rule:nonzero;stroke:none"
         d="m 463.47159,1554.1599 c -7.89486,7.8949 -20.69275,7.8949 -28.58762,0 L 254.2772,1373.5551 529.90864,1097.9237 800,827.83233 l 0,389.80407 -336.52841,336.5235" /><path
         id="path22"
         style="fill:#132136;fill-opacity:1;fill-rule:nonzero;stroke:none"
         d="m 0,7.1239435 0,273.0846665 72.722165,0 0,-36.61049 c 16.780498,27.96913 41.192535,41.69623 74.247395,41.69623 33.05487,0 57.97255,-14.24056 75.77215,-43.73443 28.47867,30.00733 50.34637,43.73443 84.41887,43.73443 61.53354,0 96.11511,-34.57815 96.11511,-98.14793 l 0,-180.0224765 -78.31599,0 0,147.9828065 c 0,38.14109 -8.13719,55.43065 -38.14061,55.43065 -30.51297,0 -46.78587,-18.81284 -46.78587,-55.43065 l 0,-147.9828065 -78.82359,0 0,147.9828065 c 0,38.14109 -8.13718,55.43065 -38.14255,55.43065 -30.512974,0 -46.785386,-18.81284 -46.785386,-55.43065 l 0,-147.9828065 -76.281694,0" /><path
         id="path24"
         style="fill:#132136;fill-opacity:1;fill-rule:nonzero;stroke:none"
         d="m 592.3836,76.281694 c 35.60018,0 64.58548,30.005376 64.58548,67.130786 0,37.633 -28.9853,67.63251 -64.58548,67.63251 -35.59529,0 -64.58547,-29.99951 -64.58547,-67.63251 0,-37.12541 29.49827,-67.130786 64.58547,-67.130786 z M 490.16562,244.61332 c 27.46592,27.46152 63.5693,42.71337 100.69373,42.71337 39.66486,0 73.74078,-13.7271 101.20182,-39.66388 28.98529,-27.46153 44.75059,-65.09454 44.75059,-102.21799 0,-41.19058 -13.72807,-75.266502 -41.194,-102.725879 C 667.64864,14.749817 633.06952,0 591.87552,0 550.17832,0 516.61048,14.240266 488.64136,43.734183 462.19649,71.199375 448.46793,106.28707 448.46793,144.42767 c 0,38.1406 14.74766,73.23367 41.69769,100.18565" /><path
         id="path26"
         style="fill:#132136;fill-opacity:1;fill-rule:nonzero;stroke:none"
         d="m 782.00205,7.1239435 0,273.0846665 76.28121,0 -1.01617,-36.61049 c 16.78147,27.45567 42.21017,41.69623 78.31843,41.69623 56.44633,0 93.06268,-35.59529 93.06268,-98.14793 l 0,-180.0224765 -80.35077,0 0,147.9828065 c 0,38.14109 -8.13914,55.43065 -39.15678,55.43065 -31.53061,0 -48.31208,-18.81284 -48.31208,-55.43065 l 0,-147.9828065 -78.82652,0" /><path
         id="path28"
         style="fill:#132136;fill-opacity:1;fill-rule:nonzero;stroke:none"
         d="m 1455.5718,76.281694 c 35.5953,0 64.5855,30.005376 64.5855,67.130786 0,37.633 -28.9902,67.63251 -64.5855,67.63251 -35.6001,0 -64.5854,-29.99951 -64.5854,-67.63251 0,-37.12541 29.4933,-67.130786 64.5854,-67.130786 z M 1353.3539,244.61332 c 27.461,27.46152 63.5693,42.71337 100.6937,42.71337 39.6648,0 73.7359,-13.7271 101.1969,-39.66388 C 1584.2347,220.20128 1600,182.56827 1600,145.44482 1600,104.25424 1586.267,70.178318 1558.806,42.718941 1530.8369,14.749817 1496.2529,0 1455.0638,0 c -41.7021,0 -75.2651,14.240266 -103.2342,43.734183 -26.4449,27.465192 -40.1729,62.552887 -40.1729,100.693487 0,38.1406 14.7442,73.23367 41.6972,100.18565" /><path
         id="path30"
         style="fill:#132136;fill-opacity:1;fill-rule:nonzero;stroke:none"
         d="m 1079.2857,7.1239435 0,56.9534415 112.3846,145.444815 -112.3846,0 0,70.68641 202.9069,0 0,-64.58547 -99.1646,-137.812793 101.2018,0 0,-70.6864035 -204.9441,0" /></g></g></svg>