<?xml version="1.0" encoding="utf-8"?>
<!-- Generator: Adobe Illustrator 19.0.0, SVG Export Plug-In . SVG Version: 6.00 Build 0)  -->
<svg version="1.1" id="Layer_1" xmlns="http://www.w3.org/2000/svg" xmlns:xlink="http://www.w3.org/1999/xlink" x="0px" y="0px"
	 viewBox="0 0 420 60" style="enable-background:new 0 0 420 60;" xml:space="preserve">
<style type="text/css">
	.st0{fill:#FFFFFF;}
</style>
<g>
	<path class="st0" d="M51.3,4.4C57.2,4.4,62,9.2,62,15.1v29.9c0,5.9-4.8,10.7-10.7,10.7H21.4c-5.9,0-10.7-4.8-10.7-10.7V15.1
		c0-5.9,4.8-10.7,10.7-10.7H51.3 M53.3,25.2c0-2-0.7-3.7-2.1-5.1c-1.4-1.4-3.1-2.1-5.1-2.1c-2,0-3.7,0.7-5.1,2.1
		c-1.4,1.4-2.1,3.1-2.1,5.1v7.3c0,1.6-0.8,2.4-2.4,2.4c-1.6,0-2.4-0.8-2.4-2.4v-6.8v-0.4c0-2-0.7-3.7-2.1-5.1
		c-1.4-1.4-3.1-2.1-5.1-2.1c-2,0-3.7,0.7-5.1,2.1c-1.4,1.4-2.1,3.1-2.1,5.1v14.5c0,1.6,0.8,2.4,2.4,2.4s2.4-0.8,2.4-2.4V25.2h0
		c0-1.6,0.8-2.4,2.4-2.4c1.6,0,2.4,0.8,2.4,2.4v7.3c0,2,0.7,3.7,2.1,5.1c1.4,1.4,3.1,2.1,5.1,2.1c2,0,3.7-0.7,5.1-2.1
		c1.4-1.4,2.1-3.1,2.1-5.1V32v-6.8c0-1.6,0.8-2.4,2.4-2.4c1.6,0,2.4,0.8,2.4,2.4h0l0,14.5c0,1.6,0.8,2.4,2.4,2.4
		c1.6,0,2.4-0.8,2.4-2.4V25.2z"/>
	<path class="st0" d="M146,12c5.4,0,9.9,1.7,13.5,5.1c3.6,3.4,5.4,7.7,5.4,12.9c0,5.2-1.8,9.5-5.5,12.8c-3.6,3.4-8.2,5.1-13.8,5.1
		c-5.3,0-9.7-1.7-13.2-5.1c-3.5-3.4-5.3-7.6-5.3-12.7c0-5.2,1.8-9.6,5.3-13C136.1,13.7,140.6,12,146,12z M146.2,16.8
		c-4,0-7.3,1.3-9.9,3.8c-2.6,2.5-3.9,5.7-3.9,9.6c0,3.8,1.3,6.9,3.9,9.4c2.6,2.5,5.8,3.8,9.7,3.8c3.9,0,7.2-1.3,9.8-3.8
		c2.6-2.6,3.9-5.8,3.9-9.6c0-3.7-1.3-6.8-3.9-9.4C153.2,18,150,16.8,146.2,16.8z"/>
	<path class="st0" d="M202.8,12.3h4.8v35.4h-4.4l-23.7-27.3v27.3h-4.8V12.3h4.1l23.9,27.5V12.3z"/>
	<path class="st0" d="M236.2,12c5.4,0,9.9,1.7,13.5,5.1c3.6,3.4,5.4,7.7,5.4,12.9c0,5.2-1.8,9.4-5.4,12.8c-3.6,3.4-8.2,5.1-13.7,5.1
		c-5.3,0-9.7-1.7-13.2-5.1c-3.5-3.4-5.3-7.6-5.3-12.7c0-5.2,1.8-9.6,5.3-13C226.3,13.8,230.7,12,236.2,12z M236.4,16.8
		c-4,0-7.3,1.3-9.9,3.8c-2.6,2.5-3.9,5.7-3.9,9.6c0,3.8,1.3,6.9,3.9,9.4c2.6,2.5,5.8,3.8,9.7,3.8c3.9,0,7.2-1.3,9.8-3.8
		c2.6-2.6,3.9-5.7,3.9-9.5c0-3.7-1.3-6.8-3.9-9.4C243.4,18.1,240.2,16.8,236.4,16.8z"/>
	<path class="st0" d="M265.1,47.7V12.3h11.2c3.4,0,6.1,0.9,8.1,2.7s3,4.3,3,7.3c0,2.1-0.5,3.9-1.5,5.5c-1,1.6-2.4,2.7-4.2,3.5
		c-1.8,0.7-4.4,1.1-7.7,1.1h-3.7v15.3H265.1z M275.4,16.8h-5.2v11.1h5.5c2.1,0,3.6-0.5,4.8-1.5c1.1-1,1.7-2.4,1.7-4.2
		C282.2,18.6,279.9,16.8,275.4,16.8z"/>
	<path class="st0" d="M322.6,45.2c-0.7-1-1.7-2.5-3-4.5c-2-3.2-3.5-5.4-4.6-6.7c-0.8-0.9-1.5-1.6-2.3-2.3c0.4-0.1,0.8-0.2,1.1-0.4
		c1.8-0.7,3.2-1.9,4.2-3.5c1-1.6,1.5-3.4,1.5-5.5c0-3.1-1-5.5-3-7.3c-2-1.8-4.7-2.7-8.1-2.7h-11.2v35.4h5.1V32.4h2.4
		c1,0.1,1.7,0.2,2.2,0.5c0.7,0.4,1.5,1,2.4,1.9c0.9,0.9,1.8,2,2.9,3.5l1.7,2.8l1.6,2.6l1,1.4c0.2,0.2,0.3,0.3,0.3,0.4l1.5,2.3h6
		L322.6,45.2z M302.5,16.8h5.2c4.5,0,6.7,1.8,6.7,5.4c0,1.8-0.6,3.2-1.7,4.2c-1.1,1-2.7,1.5-4.8,1.5h-5.5V16.8z"/>
	<path class="st0" d="M332.6,12.3h5.1v35.4h-5.1V12.3z"/>
	<path class="st0" d="M379,39.4V45c-3.7,2-7.9,3-12.8,3c-3.9,0-7.3-0.8-10-2.4s-4.9-3.7-6.5-6.5c-1.6-2.8-2.4-5.8-2.4-9
		c0-5.1,1.8-9.4,5.5-12.9c3.6-3.5,8.1-5.2,13.5-5.2c3.7,0,7.8,1,12.3,2.9v5.4c-4.1-2.3-8.1-3.5-12-3.5c-4,0-7.4,1.3-10,3.8
		c-2.7,2.5-4,5.7-4,9.5c0,3.9,1.3,7,3.9,9.5c2.6,2.5,6,3.7,10,3.7C370.8,43.4,374.9,42.1,379,39.4z"/>
	<path class="st0" d="M388.6,12.3h20.1v4.5h-15v10.8h14.5v4.5h-14.5v11h15.5v4.5h-20.6V12.3z"/>
	<g>
		<path class="st0" d="M98.9,39.5L98.9,39.5l10.6-27.2h7.7v35.4h-5V18.1h-0.1l-11.8,29.6h-3.2L85.5,18.1h-0.1v29.6h-4.8V12.3h7.7
			L98.9,39.5z"/>
	</g>
</g>
<g id="XMLID_235_">
</g>
<g id="XMLID_236_">
</g>
<g id="XMLID_237_">
</g>
<g id="XMLID_238_">
</g>
<g id="XMLID_239_">
</g>
<g id="XMLID_240_">
</g>
<g id="XMLID_241_">
</g>
<g id="XMLID_242_">
</g>
<g id="XMLID_243_">
</g>
<g id="XMLID_244_">
</g>
<g id="XMLID_245_">
</g>
<g id="XMLID_246_">
</g>
<g id="XMLID_247_">
</g>
<g id="XMLID_248_">
</g>
<g id="XMLID_249_">
</g>
</svg>
