<svg xmlns="http://www.w3.org/2000/svg" viewBox="0 0 252.84 155.26"><defs><style>.cls-1{fill:#b1e2f8;}.cls-2{fill:#174b62;}.cls-3{fill:#fff;}</style></defs><title>logo</title><g id="Layer_2" data-name="Layer 2"><g id="Layer_1-2" data-name="Layer 1"><path class="cls-1" d="M218.27,75c0-.75.06-1.49.06-2.25A72.79,72.79,0,0,0,83.79,34.26a62.39,62.39,0,1,0-21.41,121H162.92V114.71H179.7v40.55h32.82A40.32,40.32,0,0,0,218.27,75Z"/><path class="cls-2" d="M212.1,91.65H194.89V59.79h4.36a3.91,3.91,0,0,0,0-7.81H69a3.91,3.91,0,0,0,0,7.81h4.36V91.65H56.16a3.91,3.91,0,0,0,0,7.82h4.35v55.79H162.92V114.71H179.7v40.55h28V99.47h4.36a3.91,3.91,0,1,0,0-7.82Z"/><rect class="cls-3" x="73.37" y="114.71" width="42.19" height="16.78"/><rect class="cls-3" x="139.08" y="67.35" width="16.78" height="16.8"/><rect class="cls-3" x="73.37" y="67.35" width="58.74" height="16.8"/><rect class="cls-3" x="162.92" y="67.35" width="16.78" height="16.8"/><rect class="cls-3" x="162.92" y="114.7" width="16.78" height="40.56"/></g></g></svg>