<?xml version="1.0" encoding="UTF-8"?>
<svg xmlns="http://www.w3.org/2000/svg" xmlns:xlink="http://www.w3.org/1999/xlink" width="379pt" height="380pt" viewBox="0 0 379 380" version="1.1">
<g id="surface1">
<path style=" stroke:none;fill-rule:nonzero;fill:rgb(100%,40%,0%);fill-opacity:1;" d="M 0 0 L 378.550781 0 C 378.546875 126.515625 378.554688 253.03125 378.546875 379.546875 C 252.367188 379.554688 126.179688 379.546875 0 379.550781 L 0 0 M 327.757812 274.53125 C 327.742188 275.335938 327.738281 276.144531 327.753906 276.953125 C 329.5625 276.941406 331.378906 276.949219 333.1875 276.949219 C 333.199219 281.984375 333.1875 287.019531 333.195312 292.058594 C 334.183594 292.050781 335.171875 292.050781 336.160156 292.054688 C 336.160156 287.019531 336.15625 281.984375 336.164062 276.949219 C 337.976562 276.949219 339.796875 276.945312 341.609375 276.949219 C 341.605469 276.144531 341.605469 275.34375 341.609375 274.539062 C 336.992188 274.53125 332.375 274.546875 327.757812 274.53125 M 345.0625 274.535156 C 345.050781 280.375 345.050781 286.214844 345.0625 292.054688 C 346.046875 292.054688 347.03125 292.054688 348.019531 292.054688 C 348.039062 287.269531 347.988281 282.488281 348.050781 277.703125 C 350.03125 282.445312 351.820312 287.265625 353.710938 292.042969 C 354.34375 292.046875 354.980469 292.046875 355.625 292.046875 C 357.53125 287.25 359.347656 282.417969 361.304688 277.644531 C 361.339844 282.445312 361.3125 287.25 361.324219 292.054688 C 362.304688 292.050781 363.289062 292.050781 364.273438 292.0625 C 364.308594 286.222656 364.277344 280.382812 364.289062 274.542969 C 362.789062 274.53125 361.289062 274.535156 359.792969 274.542969 C 358.125 278.929688 356.421875 283.304688 354.730469 287.683594 C 353.027344 283.296875 351.292969 278.921875 349.589844 274.535156 C 348.078125 274.539062 346.566406 274.535156 345.0625 274.535156 M 44.933594 293.210938 C 37.566406 293.507812 30.148438 296.847656 25.761719 302.921875 C 21.988281 308.011719 20.480469 314.480469 20.511719 320.742188 C 20.398438 326.636719 21.585938 332.707031 24.734375 337.757812 C 27.285156 341.890625 31.191406 345.132812 35.683594 346.953125 C 41.097656 349.152344 47.167969 349.546875 52.871094 348.371094 C 58.160156 347.28125 63.167969 344.507812 66.613281 340.300781 C 69.722656 336.578125 71.523438 331.898438 72.257812 327.132812 C 73.050781 321.597656 72.839844 315.847656 71.207031 310.480469 C 69.675781 305.449219 66.570312 300.867188 62.253906 297.839844 C 57.257812 294.292969 50.988281 292.886719 44.933594 293.210938 M 95.355469 300.683594 C 95.363281 298.636719 95.363281 296.589844 95.355469 294.546875 C 90.945312 294.546875 86.535156 294.523438 82.125 294.5625 C 82.148438 312.203125 82.128906 329.84375 82.136719 347.484375 C 86.863281 347.503906 91.589844 347.484375 96.316406 347.496094 C 96.339844 335.785156 96.289062 324.070312 96.34375 312.363281 C 96.921875 310.640625 98.5 309.394531 100.074219 308.578125 C 103.6875 306.859375 107.78125 306.710938 111.707031 306.675781 C 111.707031 302.300781 111.703125 297.925781 111.710938 293.554688 C 105.523438 292.976562 99.339844 296.039062 95.355469 300.683594 M 130.058594 294.988281 C 125.246094 296.527344 120.953125 299.652344 118.054688 303.808594 C 121.183594 305.640625 124.34375 307.421875 127.496094 309.210938 C 130.183594 305.875 134.15625 303.574219 138.453125 303.234375 C 141.527344 302.96875 145.210938 303.125 147.40625 305.621094 C 148.960938 307.40625 148.507812 309.902344 148.566406 312.070312 C 141.347656 312.921875 134.0625 314.109375 127.335938 316.972656 C 123.539062 318.621094 119.835938 320.984375 117.59375 324.570312 C 115.089844 328.59375 114.835938 333.738281 116.230469 338.195312 C 117.363281 341.871094 120.089844 345.011719 123.597656 346.585938 C 127.617188 348.457031 132.214844 348.355469 136.5 347.671875 C 140.773438 346.957031 144.867188 345.289062 148.488281 342.910156 C 148.890625 344.4375 149.292969 345.960938 149.699219 347.492188 C 153.835938 347.488281 157.972656 347.492188 162.109375 347.492188 C 161.957031 335.257812 162.054688 323.015625 162.039062 310.78125 C 162.285156 307.175781 161.605469 303.359375 159.34375 300.457031 C 156.402344 296.53125 151.53125 294.671875 146.839844 293.921875 C 141.261719 293.121094 135.457031 293.261719 130.058594 294.988281 M 199.109375 293.851562 C 194.152344 294.875 189.8125 297.664062 185.765625 300.585938 C 185.359375 298.515625 184.890625 296.453125 184.523438 294.378906 C 180.660156 294.90625 176.792969 295.441406 172.929688 295.984375 C 172.921875 313.128906 172.929688 330.269531 172.929688 347.410156 C 177.550781 347.414062 182.167969 347.410156 186.792969 347.410156 C 186.792969 334.773438 186.792969 322.140625 186.792969 309.507812 C 190.066406 306.78125 193.8125 304.296875 198.132812 303.757812 C 200.308594 303.515625 202.863281 303.644531 204.449219 305.367188 C 206.015625 307.199219 206.265625 309.742188 206.339844 312.058594 C 206.347656 323.84375 206.34375 335.625 206.34375 347.410156 C 210.992188 347.417969 215.640625 347.410156 220.289062 347.410156 C 220.289062 334.875 220.289062 322.339844 220.289062 309.804688 C 220.234375 307.289062 219.890625 304.753906 219.023438 302.386719 C 217.894531 299.203125 215.554688 296.449219 212.464844 295.050781 C 208.3125 293.164062 203.53125 293.011719 199.109375 293.851562 M 235.339844 301.554688 C 231.089844 307.308594 229.601562 314.664062 229.738281 321.710938 C 229.796875 328.140625 231.222656 334.871094 235.296875 339.996094 C 238.527344 344.164062 243.5625 346.734375 248.765625 347.28125 C 252.5625 347.644531 256.621094 347.484375 260.015625 345.550781 C 262.375 344.234375 264.035156 342.023438 265.429688 339.761719 C 265.539062 341.988281 265.460938 344.21875 265.484375 346.445312 C 265.394531 349.394531 264.964844 352.605469 262.925781 354.894531 C 261.066406 356.960938 258.167969 357.691406 255.480469 357.699219 C 252.65625 357.738281 249.605469 357.640625 247.160156 356.050781 C 245.941406 355.265625 245.316406 353.890625 244.957031 352.539062 C 240.371094 353.277344 235.789062 354.019531 231.203125 354.757812 C 232.035156 359.039062 235.019531 362.671875 238.796875 364.726562 C 244.695312 368.007812 251.707031 368.371094 258.285156 367.738281 C 263.988281 367.167969 270.011719 365.542969 274.078125 361.25 C 277.722656 357.398438 278.863281 351.914062 278.945312 346.765625 C 278.945312 329.304688 278.945312 311.847656 278.945312 294.386719 C 275.011719 294.410156 271.078125 294.328125 267.148438 294.429688 C 266.84375 296.378906 266.460938 298.320312 266.121094 300.269531 C 264.902344 297.742188 262.527344 295.988281 259.980469 294.957031 C 256.632812 293.585938 252.941406 293.261719 249.351562 293.46875 C 243.773438 293.890625 238.601562 297.050781 235.339844 301.554688 M 293.332031 301.15625 C 289.503906 305.714844 287.796875 311.6875 287.371094 317.542969 C 286.960938 323.933594 287.558594 330.597656 290.476562 336.390625 C 292.738281 340.90625 296.621094 344.605469 301.320312 346.472656 C 307.355469 348.90625 314.128906 348.882812 320.417969 347.550781 C 326.574219 346.203125 332.367188 342.503906 335.5 336.925781 C 332.082031 335.046875 328.667969 333.148438 325.265625 331.242188 C 323.738281 333.433594 321.878906 335.484375 319.46875 336.699219 C 316.753906 338.082031 313.585938 338.257812 310.621094 337.828125 C 307.75 337.410156 305.035156 335.828125 303.46875 333.355469 C 301.535156 330.316406 301.003906 326.605469 300.980469 323.0625 C 312.652344 323.070312 324.328125 323.0625 336.007812 323.066406 C 336.402344 318.40625 335.957031 313.65625 334.617188 309.175781 C 333.144531 304.316406 330.152344 299.816406 325.832031 297.070312 C 320.535156 293.640625 313.917969 292.898438 307.769531 293.621094 C 302.265625 294.285156 296.890625 296.824219 293.332031 301.15625 Z M 293.332031 301.15625 "/>
<path style=" stroke:none;fill-rule:nonzero;fill:rgb(100%,40%,0%);fill-opacity:1;" d="M 304.21875 305.976562 C 305.90625 304.066406 308.421875 303.039062 310.933594 302.886719 C 314.136719 302.648438 317.632812 303.546875 319.820312 306.035156 C 321.753906 308.1875 322.398438 311.164062 322.472656 313.988281 C 315.378906 313.984375 308.285156 313.996094 301.191406 313.980469 C 301.421875 311.113281 302.257812 308.15625 304.21875 305.976562 Z M 304.21875 305.976562 "/>
<path style=" stroke:none;fill-rule:nonzero;fill:rgb(100%,40%,0%);fill-opacity:1;" d="M 252.339844 303.488281 C 255.605469 302.886719 259.160156 303.9375 261.472656 306.355469 C 264.191406 309.136719 265.296875 313.09375 265.53125 316.894531 C 265.640625 319.679688 265.523438 322.484375 265.082031 325.238281 C 264.585938 328.140625 263.609375 331.109375 261.515625 333.253906 C 259.609375 335.195312 256.835938 336.082031 254.160156 336.015625 C 251.667969 336.09375 249.042969 335.300781 247.316406 333.421875 C 244.996094 331.027344 244.226562 327.613281 243.851562 324.402344 C 243.546875 321.132812 243.457031 317.824219 243.886719 314.5625 C 244.292969 311.695312 245.179688 308.78125 247.09375 306.546875 C 248.425781 304.964844 250.304688 303.859375 252.339844 303.488281 Z M 252.339844 303.488281 "/>
<path style=" stroke:none;fill-rule:nonzero;fill:rgb(100%,40%,0%);fill-opacity:1;" d="M 44.363281 305.167969 C 47.746094 304.664062 51.53125 305.222656 54.179688 307.546875 C 56.667969 309.691406 57.878906 312.929688 58.421875 316.09375 C 58.996094 319.652344 58.972656 323.316406 58.28125 326.851562 C 57.648438 329.957031 56.265625 333.089844 53.6875 335.046875 C 50.8125 337.1875 46.957031 337.570312 43.527344 336.863281 C 40.726562 336.292969 38.238281 334.46875 36.808594 331.992188 C 34.746094 328.40625 34.292969 324.148438 34.378906 320.078125 C 34.511719 316.421875 35.15625 312.617188 37.238281 309.53125 C 38.851562 307.132812 41.507812 305.542969 44.363281 305.167969 Z M 44.363281 305.167969 "/>
<path style=" stroke:none;fill-rule:nonzero;fill:rgb(100%,40%,0%);fill-opacity:1;" d="M 135.722656 323.449219 C 139.675781 321.8125 143.9375 321.085938 148.160156 320.550781 C 148.175781 324.675781 148.152344 328.804688 148.171875 332.933594 C 144.640625 336.105469 140.136719 338.597656 135.28125 338.507812 C 133.652344 338.550781 132.039062 337.855469 130.929688 336.671875 C 128.816406 334.292969 128.511719 330.527344 130.148438 327.808594 C 131.367188 325.703125 133.550781 324.394531 135.722656 323.449219 Z M 135.722656 323.449219 "/>
<path style=" stroke:none;fill-rule:nonzero;fill:rgb(99.607843%,85.098039%,74.901961%);fill-opacity:1;" d="M 378.550781 0 L 378.871094 0 L 378.871094 379.871094 L 0 379.871094 L 0 379.550781 C 126.179688 379.546875 252.367188 379.554688 378.546875 379.546875 C 378.554688 253.03125 378.546875 126.515625 378.550781 0 Z M 378.550781 0 "/>
<path style=" stroke:none;fill-rule:nonzero;fill:rgb(100%,100%,100%);fill-opacity:1;" d="M 327.757812 274.53125 C 332.375 274.546875 336.992188 274.53125 341.609375 274.539062 C 341.605469 275.34375 341.605469 276.144531 341.609375 276.949219 C 339.796875 276.945312 337.976562 276.949219 336.164062 276.949219 C 336.15625 281.984375 336.160156 287.019531 336.160156 292.054688 C 335.171875 292.050781 334.183594 292.050781 333.195312 292.058594 C 333.1875 287.019531 333.199219 281.984375 333.1875 276.949219 C 331.378906 276.949219 329.5625 276.941406 327.753906 276.953125 C 327.738281 276.144531 327.742188 275.335938 327.757812 274.53125 Z M 327.757812 274.53125 "/>
<path style=" stroke:none;fill-rule:nonzero;fill:rgb(100%,100%,100%);fill-opacity:1;" d="M 345.0625 274.535156 C 346.566406 274.535156 348.078125 274.539062 349.589844 274.535156 C 351.292969 278.921875 353.027344 283.296875 354.730469 287.683594 C 356.421875 283.304688 358.125 278.929688 359.792969 274.542969 C 361.289062 274.535156 362.789062 274.53125 364.289062 274.542969 C 364.277344 280.382812 364.308594 286.222656 364.273438 292.0625 C 363.289062 292.050781 362.304688 292.050781 361.324219 292.054688 C 361.3125 287.25 361.339844 282.445312 361.304688 277.644531 C 359.347656 282.417969 357.53125 287.25 355.625 292.046875 C 354.980469 292.046875 354.34375 292.046875 353.710938 292.042969 C 351.820312 287.265625 350.03125 282.445312 348.050781 277.703125 C 347.988281 282.488281 348.039062 287.269531 348.019531 292.054688 C 347.03125 292.054688 346.046875 292.054688 345.0625 292.054688 C 345.050781 286.214844 345.050781 280.375 345.0625 274.535156 Z M 345.0625 274.535156 "/>
<path style=" stroke:none;fill-rule:nonzero;fill:rgb(100%,100%,100%);fill-opacity:1;" d="M 44.933594 293.210938 C 50.988281 292.886719 57.257812 294.292969 62.253906 297.839844 C 66.570312 300.867188 69.675781 305.449219 71.207031 310.480469 C 72.839844 315.847656 73.050781 321.597656 72.257812 327.132812 C 71.523438 331.898438 69.722656 336.578125 66.613281 340.300781 C 63.167969 344.507812 58.160156 347.28125 52.871094 348.371094 C 47.167969 349.546875 41.097656 349.152344 35.683594 346.953125 C 31.191406 345.132812 27.285156 341.890625 24.734375 337.757812 C 21.585938 332.707031 20.398438 326.636719 20.511719 320.742188 C 20.480469 314.480469 21.988281 308.011719 25.761719 302.921875 C 30.148438 296.847656 37.566406 293.507812 44.933594 293.210938 M 44.363281 305.167969 C 41.507812 305.542969 38.851562 307.132812 37.238281 309.53125 C 35.15625 312.617188 34.511719 316.421875 34.378906 320.078125 C 34.292969 324.148438 34.746094 328.40625 36.808594 331.992188 C 38.238281 334.46875 40.726562 336.292969 43.527344 336.863281 C 46.957031 337.570312 50.8125 337.1875 53.6875 335.046875 C 56.265625 333.089844 57.648438 329.957031 58.28125 326.851562 C 58.972656 323.316406 58.996094 319.652344 58.421875 316.09375 C 57.878906 312.929688 56.667969 309.691406 54.179688 307.546875 C 51.53125 305.222656 47.746094 304.664062 44.363281 305.167969 Z M 44.363281 305.167969 "/>
<path style=" stroke:none;fill-rule:nonzero;fill:rgb(100%,100%,100%);fill-opacity:1;" d="M 95.355469 300.683594 C 99.339844 296.039062 105.523438 292.976562 111.710938 293.554688 C 111.703125 297.925781 111.707031 302.300781 111.707031 306.675781 C 107.78125 306.710938 103.6875 306.859375 100.074219 308.578125 C 98.5 309.394531 96.921875 310.640625 96.34375 312.363281 C 96.289062 324.070312 96.339844 335.785156 96.316406 347.496094 C 91.589844 347.484375 86.863281 347.503906 82.136719 347.484375 C 82.128906 329.84375 82.148438 312.203125 82.125 294.5625 C 86.535156 294.523438 90.945312 294.546875 95.355469 294.546875 C 95.363281 296.589844 95.363281 298.636719 95.355469 300.683594 Z M 95.355469 300.683594 "/>
<path style=" stroke:none;fill-rule:nonzero;fill:rgb(100%,100%,100%);fill-opacity:1;" d="M 130.058594 294.988281 C 135.457031 293.261719 141.261719 293.121094 146.839844 293.921875 C 151.53125 294.671875 156.402344 296.53125 159.34375 300.457031 C 161.605469 303.359375 162.285156 307.175781 162.039062 310.78125 C 162.054688 323.015625 161.957031 335.257812 162.109375 347.492188 C 157.972656 347.492188 153.835938 347.488281 149.699219 347.492188 C 149.292969 345.960938 148.890625 344.4375 148.488281 342.910156 C 144.867188 345.289062 140.773438 346.957031 136.5 347.671875 C 132.214844 348.355469 127.617188 348.457031 123.597656 346.585938 C 120.089844 345.011719 117.363281 341.871094 116.230469 338.195312 C 114.835938 333.738281 115.089844 328.59375 117.59375 324.570312 C 119.835938 320.984375 123.539062 318.621094 127.335938 316.972656 C 134.0625 314.109375 141.347656 312.921875 148.566406 312.070312 C 148.507812 309.902344 148.960938 307.40625 147.40625 305.621094 C 145.210938 303.125 141.527344 302.96875 138.453125 303.234375 C 134.15625 303.574219 130.183594 305.875 127.496094 309.210938 C 124.34375 307.421875 121.183594 305.640625 118.054688 303.808594 C 120.953125 299.652344 125.246094 296.527344 130.058594 294.988281 M 135.722656 323.449219 C 133.550781 324.394531 131.367188 325.703125 130.148438 327.808594 C 128.511719 330.527344 128.816406 334.292969 130.929688 336.671875 C 132.039062 337.855469 133.652344 338.550781 135.28125 338.507812 C 140.136719 338.597656 144.640625 336.105469 148.171875 332.933594 C 148.152344 328.804688 148.175781 324.675781 148.160156 320.550781 C 143.9375 321.085938 139.675781 321.8125 135.722656 323.449219 Z M 135.722656 323.449219 "/>
<path style=" stroke:none;fill-rule:nonzero;fill:rgb(100%,100%,100%);fill-opacity:1;" d="M 199.109375 293.851562 C 203.53125 293.011719 208.3125 293.164062 212.464844 295.050781 C 215.554688 296.449219 217.894531 299.203125 219.023438 302.386719 C 219.890625 304.753906 220.234375 307.289062 220.289062 309.804688 C 220.289062 322.339844 220.289062 334.875 220.289062 347.410156 C 215.640625 347.410156 210.992188 347.417969 206.34375 347.410156 C 206.34375 335.625 206.347656 323.84375 206.339844 312.058594 C 206.265625 309.742188 206.015625 307.199219 204.449219 305.367188 C 202.863281 303.644531 200.308594 303.515625 198.132812 303.757812 C 193.8125 304.296875 190.066406 306.78125 186.792969 309.507812 C 186.792969 322.140625 186.792969 334.773438 186.792969 347.410156 C 182.167969 347.410156 177.550781 347.414062 172.929688 347.410156 C 172.929688 330.269531 172.921875 313.128906 172.929688 295.984375 C 176.792969 295.441406 180.660156 294.90625 184.523438 294.378906 C 184.890625 296.453125 185.359375 298.515625 185.765625 300.585938 C 189.8125 297.664062 194.152344 294.875 199.109375 293.851562 Z M 199.109375 293.851562 "/>
<path style=" stroke:none;fill-rule:nonzero;fill:rgb(100%,100%,100%);fill-opacity:1;" d="M 235.339844 301.554688 C 238.601562 297.050781 243.773438 293.890625 249.351562 293.46875 C 252.941406 293.261719 256.632812 293.585938 259.980469 294.957031 C 262.527344 295.988281 264.902344 297.742188 266.121094 300.269531 C 266.460938 298.320312 266.84375 296.378906 267.148438 294.429688 C 271.078125 294.328125 275.011719 294.410156 278.945312 294.386719 C 278.945312 311.847656 278.945312 329.304688 278.945312 346.765625 C 278.863281 351.914062 277.722656 357.398438 274.078125 361.25 C 270.011719 365.542969 263.988281 367.167969 258.285156 367.738281 C 251.707031 368.371094 244.695312 368.007812 238.796875 364.726562 C 235.019531 362.671875 232.035156 359.039062 231.203125 354.757812 C 235.789062 354.019531 240.371094 353.277344 244.957031 352.539062 C 245.316406 353.890625 245.941406 355.265625 247.160156 356.050781 C 249.605469 357.640625 252.65625 357.738281 255.480469 357.699219 C 258.167969 357.691406 261.066406 356.960938 262.925781 354.894531 C 264.964844 352.605469 265.394531 349.394531 265.484375 346.445312 C 265.460938 344.21875 265.539062 341.988281 265.429688 339.761719 C 264.035156 342.023438 262.375 344.234375 260.015625 345.550781 C 256.621094 347.484375 252.5625 347.644531 248.765625 347.28125 C 243.5625 346.734375 238.527344 344.164062 235.296875 339.996094 C 231.222656 334.871094 229.796875 328.140625 229.738281 321.710938 C 229.601562 314.664062 231.089844 307.308594 235.339844 301.554688 M 252.339844 303.488281 C 250.304688 303.859375 248.425781 304.964844 247.09375 306.546875 C 245.179688 308.78125 244.292969 311.695312 243.886719 314.5625 C 243.457031 317.824219 243.546875 321.132812 243.851562 324.402344 C 244.226562 327.613281 244.996094 331.027344 247.316406 333.421875 C 249.042969 335.300781 251.667969 336.09375 254.160156 336.015625 C 256.835938 336.082031 259.609375 335.195312 261.515625 333.253906 C 263.609375 331.109375 264.585938 328.140625 265.082031 325.238281 C 265.523438 322.484375 265.640625 319.679688 265.53125 316.894531 C 265.296875 313.09375 264.191406 309.136719 261.472656 306.355469 C 259.160156 303.9375 255.605469 302.886719 252.339844 303.488281 Z M 252.339844 303.488281 "/>
<path style=" stroke:none;fill-rule:nonzero;fill:rgb(100%,100%,100%);fill-opacity:1;" d="M 293.332031 301.15625 C 296.890625 296.824219 302.265625 294.285156 307.769531 293.621094 C 313.917969 292.898438 320.535156 293.640625 325.832031 297.070312 C 330.152344 299.816406 333.144531 304.316406 334.617188 309.175781 C 335.957031 313.65625 336.402344 318.40625 336.007812 323.066406 C 324.328125 323.0625 312.652344 323.070312 300.980469 323.0625 C 301.003906 326.605469 301.535156 330.316406 303.46875 333.355469 C 305.035156 335.828125 307.75 337.410156 310.621094 337.828125 C 313.585938 338.257812 316.753906 338.082031 319.46875 336.699219 C 321.878906 335.484375 323.738281 333.433594 325.265625 331.242188 C 328.667969 333.148438 332.082031 335.046875 335.5 336.925781 C 332.367188 342.503906 326.574219 346.203125 320.417969 347.550781 C 314.128906 348.882812 307.355469 348.90625 301.320312 346.472656 C 296.621094 344.605469 292.738281 340.90625 290.476562 336.390625 C 287.558594 330.597656 286.960938 323.933594 287.371094 317.542969 C 287.796875 311.6875 289.503906 305.714844 293.332031 301.15625 M 304.21875 305.976562 C 302.257812 308.15625 301.421875 311.113281 301.191406 313.980469 C 308.285156 313.996094 315.378906 313.984375 322.472656 313.988281 C 322.398438 311.164062 321.753906 308.1875 319.820312 306.035156 C 317.632812 303.546875 314.136719 302.648438 310.933594 302.886719 C 308.421875 303.039062 305.90625 304.066406 304.21875 305.976562 Z M 304.21875 305.976562 "/>
</g>
</svg>
