<svg xmlns="http://www.w3.org/2000/svg" viewBox="0 0 143 38"><style>.a{fill:#FFF;}.b{fill:currentColor;}</style><title>  Page 1@3x</title><desc>  Created with Sketch.</desc><defs><polygon points="0 0.9 0 39 38.1 39 38.1 0.9"/></defs><g fill="currentColor"><g transform="translate(-120 -21)translate(120 20)"><path d="M38 20L38 20C38 20 38 20 38 20" class="a logo-word"/><path d="M38 20L38 20 36.5 21.3C36.5 21.3 37.5 20.4 38 20" class="a logo-word"/><path d="M57.6 13C54.4 13 52.6 16.1 52.6 20.9 52.6 25.7 54.4 28.8 57.6 28.8 60.9 28.8 62.7 25.7 62.7 20.9 62.7 16.1 60.9 13 57.6 13M57.6 34.8C49.8 34.8 44.6 29.2 44.6 20.9 44.6 12.6 49.8 7 57.7 7 65.5 7 70.7 12.6 70.7 20.8 70.7 29.1 65.5 34.8 57.6 34.8" class="b logo-word"/><polygon points="94.6 34.3 87.7 34.3 85.6 24.8 83.4 34.3 76.5 34.3 71.6 14.8 78.9 14.8 80.9 25.1 82.9 15.1 89.3 15.1 91.4 25.1 93.3 15.1 99.6 15.1" class="b logo-word"/><polygon points="101.1 34.3 101.1 7.3 108 6.2 108 34.3" class="b logo-word"/><path d="M138.6 34.6C134.2 34.6 131 32.9 131 27.6L131 20.6 128.6 20.6 128.6 15.1 131 15.1 131 9.6 137.9 8.5 137.9 15.1 142.4 15.1 142.4 20.6 137.9 20.6 137.9 26.5C137.9 28.1 138.7 28.7 140.2 28.7 140.6 28.7 141.9 28.6 142.4 28.5L142.4 34.1C141.3 34.4 140.3 34.6 138.6 34.6" class="b logo-word"/><path d="M118.8 18.9C117.4 18.9 116.5 20.3 116.4 23.1L121.1 23.1C121.1 20.3 120.2 18.9 118.8 18.9M127.5 26.6L116.6 26.6C116.9 29.1 118.7 29.9 120.9 29.9 122.8 29.9 125.2 29 127.4 27.9L127.4 32.8C125.3 34 122.9 34.7 120 34.7 113.9 34.7 109.7 31.6 109.7 24.8 109.7 18.5 113.6 14.7 119 14.7 121 14.7 123 15.1 124.6 16.5 126.1 17.7 127 19.2 127.4 21.1 127.7 22.7 127.7 24.5 127.5 26.6" class="b logo-word"/><g transform="translate(0 0.053)"><mask fill="currentColor"><use xmlns:xlink="http://www.w3.org/1999/xlink" xlink:href="#path-1"/></mask><path d="M26 24.7C24.6 24.7 23.3 24.3 22.1 23.6L19.5 26.3C19.3 26.4 19.1 26.5 19 26.5 18.8 26.5 18.6 26.4 18.4 26.3L15.8 23.7C14.7 24.3 13.3 24.7 11.9 24.7 7.6 24.7 4.1 21.2 4.1 16.9 4.1 12.6 7.6 9.1 11.9 9.1 15 9.1 17.7 10.9 19 13.6 20.2 10.9 22.9 9.1 26 9.1 30.3 9.1 33.8 12.6 33.8 16.9 33.8 21.2 30.3 24.7 26 24.7M38 20.4C38 20.3 38 20.3 38 20.3 38.1 20.2 38.1 20.1 38.1 20 38.1 15.4 36.4 11 33.5 7.6L34.8 4.9C34.9 4.7 34.9 4.4 34.7 4.2 34.6 4 34.3 3.9 34.1 3.9L30 4.4C26.8 2.1 23 0.9 19 0.9 15.1 0.9 11.3 2.1 8.1 4.4L4 3.9C3.7 3.9 3.5 4 3.3 4.2 3.2 4.4 3.2 4.7 3.3 4.9L4.6 7.6C1.6 11 0 15.4 0 20 0 20.1 0 20.3 0 20.4L0 20.4C0 20.4 0 20.4 0 20.5L1.4 21.6C3.4 23.5 5.5 25.3 8 27 12.9 30.4 12.8 33.5 12.1 36.2L11.6 37.4 11.6 37.4 11.6 37.5C11.6 37.5 11.6 37.5 11.6 37.5 13.9 38.4 16.4 39 19 39 21.6 39 24.1 38.5 26.3 37.5 26.3 37.5 26.3 37.5 26.3 37.5 26.3 37.5 26.3 37.5 26.3 37.5L25.8 36.2C25.1 33.5 25 30.4 29.9 27 32.4 25.3 34.5 23.5 36.5 21.6 36.5 21.6 37.5 20.7 38 20.4 38 20.4 38 20.4 38 20.4" mask="url(#mask-2)" class="b"/></g><path d="M37.8 22.5L36.1 24C34.5 25.4 32.7 26.8 30.7 28.2 26.7 31 26.6 33.4 27.1 35.6 27.1 35.6 27.3 36.2 27.6 36.9L27.6 36.9C27.6 37 27.7 37 27.7 37 27.7 37 27.7 36.9 27.7 36.9 27.7 36.9 27.7 36.9 27.7 37L27.7 36.9C33.2 34.1 37.1 28.8 37.9 22.5 37.9 22.5 37.8 22.5 37.8 22.5" class="b"/><path d="M10.8 35.6C11.3 33.4 11.2 31 7.2 28.2 5.2 26.8 3.4 25.4 1.8 24L0.2 22.8C1.1 28.9 4.9 34.1 10.2 36.9 10.6 36.2 10.8 35.6 10.8 35.6" class="b"/><path d="M19 24.9L17 22.9C17.8 22.2 18.5 21.3 19 20.3 19.5 21.3 20.1 22.1 21 22.9L19 24.9Z" class="b"/><path d="M15.2 18.3C14.2 19.1 13.1 19.5 11.9 19.5 10.7 19.5 9.6 19.1 8.7 18.3 8.4 18.1 7.9 18.2 7.7 18.5 7.4 18.8 7.5 19.2 7.8 19.5 9 20.4 10.4 20.9 11.9 20.9 13.4 20.9 14.9 20.4 16 19.5 16.4 19.2 16.4 18.8 16.2 18.5 15.9 18.2 15.5 18.1 15.2 18.3M5.6 16.9C5.6 13.4 8.5 10.6 12 10.6 15.3 10.6 18 13.1 18.3 16.3 18.4 16.7 18.4 17.2 18.3 17.6 18 20.8 15.3 23.3 12 23.3 8.5 23.3 5.6 20.5 5.6 16.9" class="b"/><path d="M25.8 36.3C25.8 36.3 25.8 36.3 25.8 36.3 25.8 36.3 25.8 36.3 25.8 36.3" class="b"/><path d="M27.7 37L27.6 36.9C27.7 36.9 27.7 36.9 27.7 37" class="b"/><path d="M10.2 36.9C10.2 36.9 10.2 36.9 10.2 36.9L10.2 36.9Z" class="b"/><path d="M29.2 18.3C28.2 19.1 27.1 19.5 25.9 19.5 24.7 19.5 23.6 19.1 22.7 18.3 22.4 18.1 21.9 18.2 21.7 18.5 21.4 18.8 21.5 19.2 21.8 19.5 23 20.4 24.4 20.9 25.9 20.9 27.4 20.9 28.9 20.4 30 19.5 30.4 19.2 30.4 18.8 30.2 18.5 29.9 18.2 29.5 18.1 29.2 18.3M26.1 10.6C29.6 10.6 32.5 13.4 32.5 16.9 32.5 20.5 29.6 23.3 26.1 23.3 22.8 23.3 20.1 20.8 19.7 17.6 19.7 17.3 19.7 16.8 19.7 16.3 20.1 13.1 22.8 10.6 26.1 10.6" class="b"/></g></g></svg>