<?xml version="1.0" encoding="utf-8"?>
<!-- Generator: Adobe Illustrator 15.0.2, SVG Export Plug-In . SVG Version: 6.00 Build 0)  -->
<!DOCTYPE svg PUBLIC "-//W3C//DTD SVG 1.1//EN" "http://www.w3.org/Graphics/SVG/1.1/DTD/svg11.dtd" [
	<!ENTITY ns_flows "http://ns.adobe.com/Flows/1.0/">
	<!ENTITY ns_extend "http://ns.adobe.com/Extensibility/1.0/">
	<!ENTITY ns_ai "http://ns.adobe.com/AdobeIllustrator/10.0/">
	<!ENTITY ns_graphs "http://ns.adobe.com/Graphs/1.0/">
]>
<svg version="1.1" xmlns:x="&ns_extend;" xmlns:i="&ns_ai;" xmlns:graph="&ns_graphs;"
	 xmlns="http://www.w3.org/2000/svg" xmlns:xlink="http://www.w3.org/1999/xlink" xmlns:a="http://ns.adobe.com/AdobeSVGViewerExtensions/3.0/"
	 x="0px" y="0px" width="100%" height="100%" viewBox="0 0 737.008 170.079" enable-background="new 0 0 737.008 170.079"
	 xml:space="preserve">
<g id="Fondo">
</g>
<g id="Guías">
</g>
<g id="Primer_plano">
	
		<rect x="180.382" y="15137.003" fill-rule="evenodd" clip-rule="evenodd" fill="none" stroke="#1A171B" stroke-width="1.0001" stroke-miterlimit="3.8637" width="225.206" height="280.766"/>
	<g>
		<g>
			<g>
				<g>
					<path fill-rule="evenodd" clip-rule="evenodd" fill="#1A171B" d="M147.604,67.819h13.374V51.87h3.637
						c3.638,0,5.764,3.75,8.561,10.297l2.406,5.652h13.149l-4.532-10.074c-2.07-4.531-3.525-7.162-6.267-8.336
						c4.085-1.791,6.155-4.812,6.155-8.842c0-5.986-4.421-10.912-14.716-10.912h-21.768V67.819z M160.979,45.995V35.812h3.916
						c4.197,0,6.547,1.678,6.547,5.037c0,3.355-2.518,5.146-6.826,5.146H160.979z"/>
					<polygon fill-rule="evenodd" clip-rule="evenodd" fill="#1A171B" points="201.433,67.819 230.249,67.819 230.249,59.761 
						214.806,59.761 214.806,52.487 228.738,52.487 228.738,44.429 214.806,44.429 214.806,37.716 230.025,37.716 230.025,29.655 
						201.433,29.655 					"/>
					<path fill-rule="evenodd" clip-rule="evenodd" fill="#1A171B" d="M245.413,67.819h21.542c12.981,0,18.299-9.906,18.299-18.578
						c0-8.842-5.932-19.586-20.705-19.586h-19.136V67.819z M258.785,58.753V38.72h3.582c7.218,0,9.513,4.98,9.513,10.018
						c0,6.826-3.079,10.016-9.569,10.016H258.785z"/>
				</g>
				<g>
					<polygon fill-rule="evenodd" clip-rule="evenodd" fill="#1A171B" points="161.665,96.069 152.349,96.069 152.349,91.481 
						161.05,91.481 161.05,87.983 152.349,87.983 152.349,83.981 161.47,83.981 161.47,80.485 147.593,80.485 147.593,99.565 
						161.665,99.565 					"/>
					<polygon fill-rule="evenodd" clip-rule="evenodd" fill="#1A171B" points="186.006,96.069 176.214,96.069 176.214,80.485 
						171.457,80.485 171.457,99.565 186.006,99.565 					"/>
					<path fill-rule="evenodd" clip-rule="evenodd" fill="#1A171B" d="M208.946,96.069h-9.316v-4.588h8.702v-3.498h-8.702v-4.002
						h9.121v-3.496h-13.877v19.08h14.072V96.069z M206.038,74.554h-4.618l-2.07,4.086h2.07L206.038,74.554z"/>
					<path fill-rule="evenodd" clip-rule="evenodd" fill="#1A171B" d="M236.532,93.747c-2.741,1.314-4.42,2.098-6.91,2.098
						c-3.972,0-6.799-2.434-6.799-5.848c0-3.385,2.854-5.791,6.91-5.791c2.351,0,4.477,0.783,6.574,1.957v-4.252
						c-1.874-1.119-4.252-1.68-6.91-1.68c-7.301,0-11.471,4.758-11.471,9.85c0,4.924,3.693,9.734,11.108,9.734
						c2.824,0,4.84-0.529,7.497-1.9V93.747z"/>
					<polygon fill-rule="evenodd" clip-rule="evenodd" fill="#1A171B" points="263.699,80.485 245.122,80.485 245.122,83.981 
						252.032,83.981 252.032,99.565 256.788,99.565 256.788,83.981 263.699,83.981 					"/>
					<path fill-rule="evenodd" clip-rule="evenodd" fill="#1A171B" d="M272.735,80.485v19.08h4.756v-7.75h1.371
						c2.574,0,3.329,3.664,5.371,7.75h5.232c-2.686-5.594-3.272-7.945-5.232-8.926c2.183-1.006,3.275-2.572,3.275-4.672
						c0-2.854-2.324-5.482-6.24-5.482H272.735z M277.491,83.981h2.406c1.79,0,2.715,0.727,2.715,2.154
						c0,1.623-1.287,2.182-2.603,2.182h-2.519V83.981z"/>
					<rect x="297.998" y="80.485" fill-rule="evenodd" clip-rule="evenodd" fill="#1A171B" width="4.757" height="19.08"/>
					<path fill-rule="evenodd" clip-rule="evenodd" fill="#1A171B" d="M331.097,93.747c-2.743,1.314-4.421,2.098-6.911,2.098
						c-3.973,0-6.798-2.434-6.798-5.848c0-3.385,2.853-5.791,6.91-5.791c2.351,0,4.477,0.783,6.574,1.957v-4.252
						c-1.874-1.119-4.252-1.68-6.91-1.68c-7.303,0-11.471,4.758-11.471,9.85c0,4.924,3.693,9.734,11.106,9.734
						c2.826,0,4.84-0.529,7.499-1.9V93.747z"/>
					<path fill-rule="evenodd" clip-rule="evenodd" fill="#1A171B" d="M352.191,80.485h-5.513l-7.693,19.08h5.037l1.425-3.777h8.534
						l1.567,3.777h5.118L352.191,80.485z M352.582,92.46h-5.875l2.798-7.416L352.582,92.46z"/>
				</g>
				<g>
					<path fill-rule="evenodd" clip-rule="evenodd" fill="#1A171B" d="M147.625,112.255v19.08h5.903
						c6.127,0,11.415-2.574,11.415-9.539c0-6.967-5.288-9.541-11.415-9.541H147.625z M149.724,114.103h3.944
						c3.918,0,9.037,1.23,9.037,7.693s-5.119,7.693-9.037,7.693h-3.944V114.103z"/>
					<polygon fill-rule="evenodd" clip-rule="evenodd" fill="#1A171B" points="182.904,112.255 172.272,112.255 172.272,131.335 
						183.128,131.335 183.128,129.489 174.371,129.489 174.371,122.634 182.652,122.634 182.652,120.788 174.371,120.788 
						174.371,114.103 182.904,114.103 					"/>
					<polygon fill-rule="evenodd" clip-rule="evenodd" fill="#1A171B" points="211.44,112.255 200.809,112.255 200.809,131.335 
						211.663,131.335 211.663,129.489 202.907,129.489 202.907,122.634 211.188,122.634 211.188,120.788 202.907,120.788 
						202.907,114.103 211.44,114.103 					"/>
					<path fill-rule="evenodd" clip-rule="evenodd" fill="#1A171B" d="M227.388,113.263c-0.757-0.447-2.185-1.258-4.311-1.258
						c-3.188,0-5.65,2.068-5.65,5.062c0,2.125,1.175,3.721,4.394,5.232c3.916,1.846,4.28,2.992,4.28,4.195
						c0,1.146-0.867,3.189-3.554,3.189c-2.126,0-3.945-1.398-4.952-2.406v2.574c1.483,1.035,3.217,1.736,5.008,1.736
						c2.491,0,5.567-1.625,5.567-5.234c0-2.824-1.343-3.914-5.064-5.762c-1.678-0.84-3.609-1.818-3.609-3.75
						c0-0.699,0.532-2.938,3.554-2.938c1.932,0,3.469,1.092,4.338,1.734V113.263z"/>
					<path fill-rule="evenodd" clip-rule="evenodd" fill="#1A171B" d="M235.137,112.255v19.08h2.098v-8.615h3.357
						c4.784,0,6.295-2.631,6.295-5.232s-1.511-5.232-6.295-5.232H235.137z M240.367,114.103c3.834,0,4.282,2.014,4.282,3.385
						s-0.448,3.385-4.282,3.385h-3.133v-6.77H240.367z"/>
					<path fill-rule="evenodd" clip-rule="evenodd" fill="#1A171B" d="M261.042,112.142h-1.397l-8.478,19.193h2.183l2.714-6.127
						h8.729l2.771,6.127h2.182L261.042,112.142z M263.925,123.362h-7.051l3.47-7.918L263.925,123.362z"/>
					<path fill-rule="evenodd" clip-rule="evenodd" fill="#1A171B" d="M293.273,112.255h-2.044v15.725l-13.624-15.725h-1.79v19.08
						h2.042v-15.721l13.625,15.721h1.791V112.255z M281.215,110.269c0.056-0.336,0.196-1.203,1.091-1.203
						c0.561,0,1.651,0.449,2.294,0.701c1.259,0.502,1.68,0.502,2.014,0.502c1.063,0,2.294-0.922,2.294-2.992H287.9
						c-0.084,0.475-0.195,1.258-1.091,1.258c-0.336,0-0.643-0.027-1.846-0.531c-1.511-0.643-2.042-0.672-2.49-0.672
						c-1.958,0-2.154,2.07-2.266,2.938H281.215z"/>
					<path fill-rule="evenodd" clip-rule="evenodd" fill="#1A171B" d="M309.22,112.142h-1.398l-8.479,19.193h2.183l2.714-6.127h8.73
						l2.769,6.127h2.182L309.22,112.142z M312.101,123.362h-7.05l3.469-7.918L312.101,123.362z"/>
				</g>
			</g>
			<g>
				<rect x="20.504" y="29.657" fill-rule="evenodd" clip-rule="evenodd" fill="#00669A" width="101.674" height="101.674"/>
				<path fill="#FFFFFF" d="M85.163,63.567c0.144-0.67,0.442-1.279,0.856-1.795c-1.975-0.445-4.11-0.967-6.382-1.578
					c-0.787,1.059-2.047,1.744-3.468,1.744c-2.292,0-4.168-1.787-4.312-4.043c-6.225-2.006-13.091-4.627-20.199-8.045
					c-0.771,0.719-1.805,1.156-2.941,1.156c-2.386,0-4.321-1.934-4.321-4.32s1.936-4.32,4.321-4.32c2.387,0,4.321,1.934,4.321,4.32
					c0,0.145-0.007,0.285-0.021,0.426c5.933,2.828,12.725,5.564,19.722,7.877c0.79-1.029,2.033-1.693,3.431-1.693
					c2.293,0,4.17,1.785,4.312,4.043c5.536,1.529,11.052,2.721,16.233,3.408c0.714-1.404,2.173-2.367,3.855-2.367
					c2.387,0,4.321,1.936,4.321,4.32c0,2.387-1.935,4.32-4.321,4.32c-2.036,0-3.743-1.408-4.2-3.305
					c-0.832-0.121-1.78-0.27-2.835-0.449c0.112,0.385,0.173,0.791,0.173,1.213c0,2.387-1.935,4.322-4.321,4.322
					c-1.643,0-3.072-0.918-3.803-2.268c-2.963,0.342-7.405,0.746-12.853,0.916c-1.344,0.041-2.75,0.068-4.21,0.078
					c-0.615,1.635-2.194,2.797-4.045,2.797c-1.909,0-3.528-1.238-4.101-2.953c-6.707-0.297-14.127-1.049-21.757-2.578
					c-0.771,1.189-2.107,1.973-3.628,1.973c-2.387,0-4.321-1.936-4.321-4.32c0-2.387,1.935-4.32,4.321-4.32
					c2.169,0,3.964,1.596,4.274,3.68c6.547,1.291,13.843,2.16,21.222,2.535c0.652-1.561,2.192-2.656,3.989-2.656
					c1.875,0,3.473,1.195,4.069,2.865C74.288,64.552,79.933,64.237,85.163,63.567z M39.567,87.61c0-2.385,1.935-4.32,4.32-4.32
					c1.519,0,2.854,0.781,3.625,1.967l17.776-3.893c0.315-2.076,2.108-3.666,4.272-3.666c1.508,0,2.834,0.771,3.607,1.941
					l14.764-3.232c0.115-0.625,0.363-1.203,0.715-1.703c-2.934-0.037-5.848-0.057-8.684-0.066c-0.613,1.639-2.195,2.807-4.048,2.807
					c-1.854,0-3.435-1.168-4.049-2.807c-7.631,0.023-14.125,0.115-18.06,0.186c-0.595,1.676-2.193,2.875-4.073,2.875
					c-2.387,0-4.321-1.936-4.321-4.322s1.935-4.32,4.321-4.32c1.819,0,3.377,1.125,4.014,2.717
					c3.948-0.068,10.467-0.16,18.127-0.186c0.619-1.629,2.195-2.785,4.041-2.785s3.421,1.156,4.041,2.785
					c4.895,0.018,10.021,0.068,15.082,0.17c0.641-1.584,2.193-2.701,4.008-2.701c2.386,0,4.321,1.934,4.321,4.32
					s-1.936,4.322-4.321,4.322c-0.956,0-1.839-0.311-2.555-0.836c0.009,0.107,0.013,0.217,0.013,0.328
					c0,2.385-1.935,4.32-4.321,4.32c-1.574,0-2.951-0.842-3.707-2.1l-14.636,3.203c-0.289,2.104-2.096,3.727-4.279,3.727
					c-1.529,0-2.872-0.795-3.641-1.992l-17.757,3.887c-0.303,2.092-2.102,3.695-4.276,3.695
					C41.502,91.931,39.567,89.997,39.567,87.61z M68.036,100.827c0-2.385,1.935-4.32,4.321-4.32c0.984,0,1.891,0.33,2.618,0.883
					c4.816-2.832,9.702-5.365,14.413-7.391l-0.001-0.1c0-0.797,0.214-1.539,0.589-2.182c-1.721,0.334-3.643,0.74-5.732,1.238
					c-1.28,0.305-2.623,0.643-4.02,1.016c-0.167,2.234-2.032,3.994-4.309,3.994c-1.396,0-2.637-0.662-3.427-1.689
					c-5.735,1.883-12.02,4.342-18.462,7.545c0.019,0.162,0.028,0.33,0.028,0.498c0,2.387-1.935,4.32-4.321,4.32
					s-4.321-1.934-4.321-4.32c0-2.385,1.935-4.32,4.321-4.32c1.115,0,2.133,0.424,2.899,1.117
					c5.703-2.812,12.232-5.504,18.971-7.764c0.15-2.25,2.022-4.029,4.312-4.029c1.384,0,2.616,0.65,3.407,1.662
					c5.293-1.467,10.57-2.604,15.54-3.26c0.482-1.857,2.173-3.232,4.184-3.232c2.386,0,4.321,1.936,4.321,4.322
					c0,2.385-1.936,4.32-4.321,4.32c-0.385,0-0.757-0.049-1.112-0.145c0.062,0.293,0.096,0.596,0.096,0.908
					c0,2.385-1.935,4.32-4.321,4.32c-1.233,0-2.347-0.518-3.134-1.346c-2.419,1.08-5.905,2.736-10.067,4.994
					c-1.243,0.674-2.546,1.402-3.898,2.186c0.045,0.252,0.068,0.51,0.068,0.773c0,2.389-1.935,4.324-4.32,4.324
					c-0.987,0-1.896-0.332-2.624-0.889c-4.989,3.225-10.35,7.076-15.691,11.586c0.173,0.467,0.268,0.975,0.268,1.502
					c0,2.387-1.935,4.322-4.321,4.322s-4.32-1.936-4.32-4.322s1.934-4.32,4.32-4.32c0.746,0,1.446,0.188,2.058,0.52
					c4.774-4.016,10.282-8.107,16.068-11.896C68.063,101.386,68.036,101.11,68.036,100.827z"/>
			</g>
		</g>
		<g>
			<g>
				<path fill-rule="evenodd" clip-rule="evenodd" fill="#00669A" d="M452.822,144.009v-6.145c0-1.729-1.172-3.322-4.32-3.322
					h-4.953v12.787h4.953C451.65,147.329,452.822,145.718,452.822,144.009z M449.942,143.222c0,0.998-0.346,1.555-1.786,1.555
					h-1.728v-7.68h1.728c1.44,0,1.786,0.557,1.786,1.555V143.222z"/>
				<polygon fill-rule="evenodd" clip-rule="evenodd" fill="#00669A" points="464.458,147.329 464.458,144.776 459.293,144.776 
					459.293,141.993 464.056,141.993 464.056,139.438 459.293,139.438 459.293,137.097 464.458,137.097 464.458,134.542 
					456.413,134.542 456.413,147.329 				"/>
				<polygon fill-rule="evenodd" clip-rule="evenodd" fill="#00669A" points="475.998,147.329 475.998,144.776 470.93,144.776 
					470.93,134.542 468.049,134.542 468.049,147.329 				"/>
				<path fill-rule="evenodd" clip-rule="evenodd" fill="#00669A" d="M494.204,138.267c0-1.939-1.344-3.916-4.953-3.916
					c-3.61,0-4.954,1.977-4.954,3.916v5.338c0,1.939,1.344,3.918,4.954,3.918c3.609,0,4.953-1.979,4.953-3.918V138.267z
					 M491.324,143.356c0,0.998-0.635,1.611-2.073,1.611c-1.44,0-2.074-0.613-2.074-1.611v-4.84c0-0.998,0.634-1.613,2.074-1.613
					c1.438,0,2.073,0.615,2.073,1.613V143.356z"/>
				<path fill-rule="evenodd" clip-rule="evenodd" fill="#00669A" d="M507.28,139.843v-1.672c0-2.4-1.152-3.629-4.262-3.629h-5.224
					v12.787h2.881v-3.877h2.188C505.975,143.452,507.28,142.243,507.28,139.843z M504.399,139.554c0,0.922-0.268,1.402-1.536,1.402
					h-2.188v-3.859h2.188c1.211,0,1.536,0.422,1.536,1.344V139.554z"/>
				<polygon fill-rule="evenodd" clip-rule="evenodd" fill="#00669A" points="518.437,147.329 518.437,144.776 513.271,144.776 
					513.271,141.993 518.033,141.993 518.033,139.438 513.271,139.438 513.271,137.097 518.437,137.097 518.437,134.542 
					510.392,134.542 510.392,147.329 				"/>
				<path fill-rule="evenodd" clip-rule="evenodd" fill="#00669A" d="M529.42,147.329h3.417l-3.092-4.377
					c1.287-0.537,1.863-1.611,1.863-3.205v-1.576c0-2.4-1.151-3.629-4.263-3.629h-5.318v12.787h2.881v-3.973h1.688L529.42,147.329z
					 M528.729,139.458c0,0.959-0.308,1.402-1.537,1.402h-2.283v-3.764h2.283c1.172,0,1.537,0.383,1.537,1.344V139.458z"/>
				<path fill-rule="evenodd" clip-rule="evenodd" fill="#00669A" d="M542.438,134.542h-3.841l-3.897,12.787h2.995l0.691-2.496
					h4.281l0.691,2.496h2.995L542.438,134.542z M540.518,137.077l1.46,5.355h-2.938L540.518,137.077z"/>
				<path fill-rule="evenodd" clip-rule="evenodd" fill="#00669A" d="M558.452,144.009v-6.145c0-1.729-1.172-3.322-4.321-3.322
					h-4.953v12.787h4.953C557.28,147.329,558.452,145.718,558.452,144.009z M555.571,143.222c0,0.998-0.346,1.555-1.786,1.555
					h-1.727v-7.68h1.727c1.44,0,1.786,0.557,1.786,1.555V143.222z"/>
				<path fill-rule="evenodd" clip-rule="evenodd" fill="#00669A" d="M571.661,138.267c0-1.939-1.343-3.916-4.953-3.916
					c-3.609,0-4.954,1.977-4.954,3.916v5.338c0,1.939,1.345,3.918,4.954,3.918c3.61,0,4.953-1.979,4.953-3.918V138.267z
					 M568.782,143.356c0,0.998-0.634,1.611-2.074,1.611c-1.439,0-2.073-0.613-2.073-1.611v-4.84c0-0.998,0.634-1.613,2.073-1.613
					c1.44,0,2.074,0.615,2.074,1.613V143.356z"/>
				<path fill-rule="evenodd" clip-rule="evenodd" fill="#00669A" d="M582.646,147.329h3.417l-3.091-4.377
					c1.286-0.537,1.861-1.611,1.861-3.205v-1.576c0-2.4-1.15-3.629-4.262-3.629h-5.318v12.787h2.88v-3.973h1.689L582.646,147.329z
					 M581.954,139.458c0,0.959-0.307,1.402-1.536,1.402h-2.285v-3.764h2.285c1.172,0,1.536,0.383,1.536,1.344V139.458z"/>
				<path fill-rule="evenodd" clip-rule="evenodd" fill="#00669A" d="M603.827,144.009v-6.145c0-1.729-1.172-3.322-4.32-3.322
					h-4.954v12.787h4.954C602.655,147.329,603.827,145.718,603.827,144.009z M600.947,143.222c0,0.998-0.346,1.555-1.786,1.555
					h-1.728v-7.68h1.728c1.44,0,1.786,0.557,1.786,1.555V143.222z"/>
				<polygon fill-rule="evenodd" clip-rule="evenodd" fill="#00669A" points="615.463,147.329 615.463,144.776 610.299,144.776 
					610.299,141.993 615.06,141.993 615.06,139.438 610.299,139.438 610.299,137.097 615.463,137.097 615.463,134.542 
					607.418,134.542 607.418,147.329 				"/>
				<polygon fill-rule="evenodd" clip-rule="evenodd" fill="#00669A" points="627.003,147.329 627.003,144.776 621.935,144.776 
					621.935,134.542 619.055,134.542 619.055,147.329 				"/>
				<path fill-rule="evenodd" clip-rule="evenodd" fill="#00669A" d="M644.019,143.739c0-2.516-0.173-3.188-3.628-4.014
					c-2.018-0.479-2.074-0.498-2.074-1.727c0-0.941,0.288-1.172,1.574-1.172c1.152,0,2.092,0.115,3.553,0.365l0.287-2.42
					c-1.421-0.307-2.765-0.422-3.878-0.422c-3.514,0-4.416,1.018-4.416,3.57c0,2.766,0.461,3.381,3.552,4.053
					c2.092,0.459,2.15,0.594,2.15,1.746c0,1.076-0.288,1.363-1.767,1.363c-1.324,0-2.515-0.25-3.686-0.613l-0.48,2.227
					c1.095,0.5,2.649,0.826,4.127,0.826C643.193,147.522,644.019,146.274,644.019,143.739z"/>
				<rect x="647.514" y="134.542" fill-rule="evenodd" clip-rule="evenodd" fill="#00669A" width="2.88" height="12.787"/>
				<path fill-rule="evenodd" clip-rule="evenodd" fill="#00669A" d="M662.798,143.739c0-2.516-0.174-3.188-3.629-4.014
					c-2.016-0.479-2.073-0.498-2.073-1.727c0-0.941,0.288-1.172,1.573-1.172c1.152,0,2.094,0.115,3.553,0.365l0.288-2.42
					c-1.421-0.307-2.765-0.422-3.878-0.422c-3.515,0-4.417,1.018-4.417,3.57c0,2.766,0.461,3.381,3.552,4.053
					c2.094,0.459,2.15,0.594,2.15,1.746c0,1.076-0.287,1.363-1.766,1.363c-1.325,0-2.515-0.25-3.687-0.613l-0.479,2.227
					c1.095,0.5,2.649,0.826,4.127,0.826C661.972,147.522,662.798,146.274,662.798,143.739z"/>
				<polygon fill-rule="evenodd" clip-rule="evenodd" fill="#00669A" points="674.933,137.097 674.933,134.542 665.179,134.542 
					665.179,137.097 668.616,137.097 668.616,147.329 671.496,147.329 671.496,137.097 				"/>
				<polygon fill-rule="evenodd" clip-rule="evenodd" fill="#00669A" points="685.84,147.329 685.84,144.776 680.675,144.776 
					680.675,141.993 685.437,141.993 685.437,139.438 680.675,139.438 680.675,137.097 685.84,137.097 685.84,134.542 
					677.795,134.542 677.795,147.329 				"/>
				<polygon fill-rule="evenodd" clip-rule="evenodd" fill="#00669A" points="694.442,145.679 697.015,145.679 699.242,140.226 
					699.434,147.329 702.218,147.329 701.68,134.542 698.801,134.542 695.728,142.683 692.656,134.542 689.775,134.542 
					689.238,147.329 692.022,147.329 692.215,140.226 				"/>
				<path fill-rule="evenodd" clip-rule="evenodd" fill="#00669A" d="M712.587,134.542h-3.841l-3.897,12.787h2.995l0.691-2.496
					h4.282l0.691,2.496h2.995L712.587,134.542z M710.667,137.077l1.459,5.355h-2.938L710.667,137.077z"/>
			</g>
			<g>
				<path fill-rule="evenodd" clip-rule="evenodd" fill="#00669A" d="M451.977,124.54c0-2.516-0.172-3.188-3.628-4.014
					c-2.016-0.48-2.074-0.5-2.074-1.729c0-0.939,0.288-1.172,1.575-1.172c1.151,0,2.093,0.117,3.552,0.367l0.288-2.42
					c-1.422-0.309-2.765-0.422-3.879-0.422c-3.514,0-4.416,1.016-4.416,3.57c0,2.766,0.461,3.379,3.553,4.051
					c2.093,0.461,2.15,0.596,2.15,1.748c0,1.074-0.289,1.361-1.767,1.361c-1.325,0-2.516-0.248-3.687-0.613l-0.48,2.229
					c1.095,0.498,2.649,0.824,4.129,0.824C451.151,128.321,451.977,127.073,451.977,124.54z"/>
				<rect x="456.196" y="115.343" fill-rule="evenodd" clip-rule="evenodd" fill="#00669A" width="2.881" height="12.787"/>
				<path fill-rule="evenodd" clip-rule="evenodd" fill="#00669A" d="M472.206,124.54c0-2.516-0.174-3.188-3.63-4.014
					c-2.016-0.48-2.073-0.5-2.073-1.729c0-0.939,0.287-1.172,1.574-1.172c1.152,0,2.093,0.117,3.552,0.367l0.288-2.42
					c-1.421-0.309-2.764-0.422-3.879-0.422c-3.513,0-4.415,1.016-4.415,3.57c0,2.766,0.46,3.379,3.552,4.051
					c2.093,0.461,2.15,0.596,2.15,1.748c0,1.074-0.288,1.361-1.766,1.361c-1.326,0-2.517-0.248-3.688-0.613l-0.48,2.229
					c1.095,0.498,2.65,0.824,4.129,0.824C471.38,128.321,472.206,127.073,472.206,124.54z"/>
				<polygon fill-rule="evenodd" clip-rule="evenodd" fill="#00669A" points="485.064,117.896 485.064,115.343 475.312,115.343 
					475.312,117.896 478.748,117.896 478.748,128.13 481.628,128.13 481.628,117.896 				"/>
				<polygon fill-rule="evenodd" clip-rule="evenodd" fill="#00669A" points="496.695,128.13 496.695,125.575 491.531,125.575 
					491.531,122.792 496.293,122.792 496.293,120.239 491.531,120.239 491.531,117.896 496.695,117.896 496.695,115.343 
					488.65,115.343 488.65,128.13 				"/>
				<polygon fill-rule="evenodd" clip-rule="evenodd" fill="#00669A" points="506.022,126.478 508.597,126.478 510.823,121.024 
					511.015,128.13 513.8,128.13 513.262,115.343 510.381,115.343 507.31,123.483 504.237,115.343 501.357,115.343 500.819,128.13 
					503.604,128.13 503.796,121.024 				"/>
				<path fill-rule="evenodd" clip-rule="evenodd" fill="#00669A" d="M524.893,115.343h-3.84l-3.898,12.787h2.996l0.691-2.496h4.28
					l0.691,2.496h2.995L524.893,115.343z M522.972,117.876l1.46,5.357h-2.938L522.972,117.876z"/>
				<path fill-rule="evenodd" clip-rule="evenodd" fill="#00669A" d="M550.824,124.808v-6.145c0-1.727-1.171-3.32-4.319-3.32h-4.954
					v12.787h4.954C549.653,128.13,550.824,126.517,550.824,124.808z M547.943,124.021c0,0.998-0.345,1.555-1.784,1.555h-1.729v-7.68
					h1.729c1.439,0,1.784,0.557,1.784,1.557V124.021z"/>
				<polygon fill-rule="evenodd" clip-rule="evenodd" fill="#00669A" points="563.184,128.13 563.184,125.575 558.02,125.575 
					558.02,122.792 562.781,122.792 562.781,120.239 558.02,120.239 558.02,117.896 563.184,117.896 563.184,115.343 
					555.141,115.343 555.141,128.13 				"/>
				<rect x="576.79" y="115.343" fill-rule="evenodd" clip-rule="evenodd" fill="#00669A" width="2.88" height="12.787"/>
				<polygon fill-rule="evenodd" clip-rule="evenodd" fill="#00669A" points="591.301,128.13 594.854,128.13 594.854,115.343 
					592.107,115.343 592.107,124.155 587.902,115.343 584.369,115.343 584.369,128.13 587.115,128.13 587.115,119.72 				"/>
				<polygon fill-rule="evenodd" clip-rule="evenodd" fill="#00669A" points="602.337,128.13 602.337,123.175 607.174,123.175 
					607.174,120.622 602.337,120.622 602.337,117.896 607.578,117.896 607.578,115.343 599.456,115.343 599.456,128.13 				"/>
				<path fill-rule="evenodd" clip-rule="evenodd" fill="#00669A" d="M621.129,119.067c0-1.939-1.344-3.916-4.953-3.916
					c-3.611,0-4.954,1.977-4.954,3.916v5.338c0,1.939,1.343,3.916,4.954,3.916c3.609,0,4.953-1.977,4.953-3.916V119.067z
					 M618.249,124.155c0,0.998-0.633,1.613-2.073,1.613s-2.074-0.615-2.074-1.613v-4.838c0-1,0.634-1.613,2.074-1.613
					s2.073,0.613,2.073,1.613V124.155z"/>
				<path fill-rule="evenodd" clip-rule="evenodd" fill="#00669A" d="M632.836,128.13h3.419l-3.092-4.377
					c1.287-0.539,1.862-1.613,1.862-3.207v-1.574c0-2.4-1.152-3.629-4.262-3.629h-5.318v12.787h2.879v-3.975h1.69L632.836,128.13z
					 M632.146,120.257c0,0.961-0.309,1.402-1.537,1.402h-2.285v-3.764h2.285c1.171,0,1.537,0.385,1.537,1.346V120.257z"/>
				<polygon fill-rule="evenodd" clip-rule="evenodd" fill="#00669A" points="644.909,126.478 647.482,126.478 649.709,121.024 
					649.901,128.13 652.686,128.13 652.147,115.343 649.268,115.343 646.195,123.483 643.123,115.343 640.244,115.343 
					639.706,128.13 642.49,128.13 642.683,121.024 				"/>
				<path fill-rule="evenodd" clip-rule="evenodd" fill="#00669A" d="M663.778,115.343h-3.84l-3.897,12.787h2.995l0.691-2.496h4.281
					l0.691,2.496h2.995L663.778,115.343z M661.858,117.876l1.46,5.357h-2.938L661.858,117.876z"/>
				<path fill-rule="evenodd" clip-rule="evenodd" fill="#00669A" d="M673.835,119.528c0-1.113,0.364-1.768,1.786-1.768
					c0.922,0,2.188,0.115,3.302,0.309l0.403-2.516c-1.267-0.27-2.419-0.402-3.705-0.402c-3.227,0-4.666,1.594-4.666,3.916v5.338
					c0,2.322,1.439,3.916,4.666,3.916c1.286,0,2.438-0.133,3.705-0.402l-0.403-2.516c-1.113,0.191-2.38,0.307-3.302,0.307
					c-1.422,0-1.786-0.652-1.786-1.766V119.528z"/>
				<rect x="683.45" y="115.343" fill-rule="evenodd" clip-rule="evenodd" fill="#00669A" width="2.88" height="12.787"/>
				<path fill-rule="evenodd" clip-rule="evenodd" fill="#00669A" d="M700.648,119.067c0-1.939-1.344-3.916-4.953-3.916
					s-4.954,1.977-4.954,3.916v5.338c0,1.939,1.345,3.916,4.954,3.916s4.953-1.977,4.953-3.916V119.067z M697.77,124.155
					c0,0.998-0.634,1.613-2.074,1.613s-2.073-0.615-2.073-1.613v-4.838c0-1,0.633-1.613,2.073-1.613s2.074,0.613,2.074,1.613
					V124.155z M695.542,114.556c1.094-0.576,1.766-0.961,2.688-1.613l-1.037-1.613c-0.748,0.576-1.67,1.172-2.61,1.768
					L695.542,114.556z"/>
				<polygon fill-rule="evenodd" clip-rule="evenodd" fill="#00669A" points="711.896,128.13 715.447,128.13 715.447,115.343 
					712.703,115.343 712.703,124.155 708.497,115.343 704.965,115.343 704.965,128.13 707.711,128.13 707.711,119.72 				"/>
			</g>
		</g>
		
			<line fill-rule="evenodd" clip-rule="evenodd" fill="none" stroke="#9C9E9F" stroke-width="4.252" stroke-miterlimit="3.8637" x1="403.508" y1="12.446" x2="403.508" y2="148.511"/>
		<g>
			<path fill-rule="evenodd" clip-rule="evenodd" fill="#FF6600" d="M494.008,59.118c-2.608-7.525-9.761-12.932-18.176-12.932
				c-8.414,0-15.567,5.406-18.176,12.932H494.008z M507,71.72h-23.873h-25.471c2.608,7.525,9.762,12.932,18.176,12.932
				c0.614,0,1.221-0.029,1.819-0.086l-3.389,12.646c-16.851-0.818-30.262-14.74-30.262-31.793c0-17.58,14.251-31.832,31.831-31.832
				s31.832,14.252,31.832,31.832c0,2.184-0.221,4.316-0.639,6.377L507,71.72z M482.215,94.481c0-7.02,5.691-12.709,12.711-12.709
				s12.709,5.689,12.709,12.709s-5.689,12.709-12.709,12.709S482.215,101.501,482.215,94.481z"/>
			<path fill-rule="evenodd" clip-rule="evenodd" fill="#00669A" d="M576.836,22.603c0-5.154,4.178-9.33,9.33-9.33
				c5.154,0,9.331,4.176,9.331,9.33c0,5.152-4.177,9.33-9.331,9.33C581.014,31.933,576.836,27.755,576.836,22.603z M713.413,42.106
				c-6.081-3.232-11.643-4.785-17.074-4.785c-11.642,0-19.145,5.949-19.145,15.9c0,15.604,27.164,19.854,27.164,27.844
				c0,4.125-3.881,6.314-8.536,6.572c-4.658,0-11.514-2.447-19.016-7.602v12.389c7.502,3.881,13.064,5.303,20.179,5.303
				c10.995,0,19.145-6.855,19.145-17.049c0-5.928-3.494-9.922-13.064-16.236c-10.22-5.928-14.102-9.02-14.102-11.617
				c0-3.17,2.977-5.416,7.634-5.416c4.268,0,10.348,1.85,16.815,6.211V42.106z M635.287,47.669c11.51,0,19.791,8.148,19.791,19.404
				c0,12.545-7.633,20.307-19.791,20.307c-11.125,0-18.758-8.148-18.758-20.439C616.529,55.817,624.421,47.669,635.287,47.669z
				 M635.415,37.321c-17.331,0-30.655,12.936-30.655,29.619c0,17.852,12.805,30.787,30.655,30.787
				c18.628,0,31.434-12.418,31.434-30.787C666.849,49.739,653.654,37.321,635.415,37.321z M591.696,38.483h-11.513v58.08h11.513
				V38.483z M563.887,42.106c-6.081-3.232-11.644-4.785-17.075-4.785c-11.642,0-19.144,5.949-19.144,15.9
				c0,15.604,27.163,19.854,27.163,27.844c0,4.125-3.88,6.314-8.537,6.572c-4.657,0-11.513-2.447-19.015-7.602v12.389
				c7.502,3.881,13.063,5.303,20.18,5.303c10.993,0,19.144-6.855,19.144-17.049c0-5.928-3.494-9.922-13.064-16.236
				c-10.22-5.928-14.101-9.02-14.101-11.617c0-3.17,2.977-5.416,7.632-5.416c4.27,0,10.35,1.85,16.817,6.211V42.106z"/>
		</g>
	</g>
</g>
</svg>
