<?xml version="1.0" encoding="UTF-8" standalone="no"?>
<!-- Created with Inkscape (http://www.inkscape.org/) -->
<svg
   xmlns:svg="http://www.w3.org/2000/svg"
   xmlns="http://www.w3.org/2000/svg"
   version="1.0"
   width="985.47247"
   height="492.74249"
   id="svg2"
   xml:space="preserve"><defs
     id="defs5" /><g
     transform="matrix(1.25,0,0,-1.25,123.55375,764.6075)"
     id="g11"><path
       d="M -98.843,611.686 L -98.843,217.492 L 689.535,217.492 L 689.535,611.686 L -98.843,611.686 z"
       id="hintergrund"
       style="fill:#008347;fill-opacity:1;fill-rule:nonzero;stroke:none" /><path
       d="M 925.34375,338.40625 C 918.59623,338.40624 912.96875,343.64375 912.96875,350.5 C 912.96877,357.39 918.59625,362.59375 925.34375,362.59375 C 932.06873,362.59374 937.71875,357.39 937.71875,350.5 C 937.71876,343.64375 932.06875,338.40625 925.34375,338.40625 z M 261.625,339.28125 C 240.5125,339.4 231.83749,347.7075 231.71875,368 L 231.71875,414.96875 C 231.71875,435.45125 241.35001,445.03749 262,445.15625 L 362.59375,445.15625 C 384.3725,445.15625 392.84374,436.88874 392.84375,415.65625 L 392.84375,368.1875 C 392.84375,348.72875 382.84501,339.28126 362.21875,339.28125 L 261.625,339.28125 z M 778.40625,339.4375 L 778.40625,445.125 L 937.25,445.125 L 937.25,422.1875 L 809.8125,422.1875 L 809.8125,339.4375 L 778.40625,339.4375 z M 48.5625,339.46875 L 48.5625,445.125 L 80.0625,445.125 L 80.0625,411.21875 L 150.15625,411.21875 L 174.71875,445.125 L 208.96875,445.125 L 184.8125,411.0625 L 184.15625,410.09375 L 185.25,409.75 C 185.5,409.66625 209.53125,401.61626 209.53125,374.21875 C 209.53125,353.77125 194.62376,339.46875 173.25,339.46875 L 48.5625,339.46875 z M 412.15625,339.46875 L 412.15625,362.65625 L 480.4375,362.65625 L 480.4375,363.53125 L 480.40625,445.15625 L 511.78125,445.15625 L 511.78125,362.65625 L 575.375,362.65625 L 575.375,339.46875 L 412.15625,339.46875 z M 597.53125,339.625 L 597.53125,445.125 L 756.3125,445.125 L 756.3125,422.46875 L 628.875,422.46875 L 628.875,402.53125 L 729.84375,402.53125 L 729.875,381.75 L 627.875,381.75 L 627.875,362.25 L 756.25,362.25 L 756.25,339.625 L 597.53125,339.625 z M 925.34375,340.1875 C 931.00998,340.18751 935.53125,344.68 935.53125,350.5 C 935.53126,356.355 931.01,360.84375 925.34375,360.84375 C 919.65623,360.84375 915.15625,356.355 915.15625,350.5 C 915.15624,344.68 919.65625,340.1875 925.34375,340.1875 z M 920.59375,343.4375 L 920.59375,357.5625 L 922.78125,357.5625 L 922.78125,351.46875 L 925.15625,351.46875 L 929.09375,357.5625 L 931.46875,357.5625 L 927.3125,351.3125 C 929.47872,351.08625 931.125,350.01625 931.125,347.46875 C 931.12503,344.79 929.5025,343.4375 926.0625,343.4375 L 920.59375,343.4375 z M 922.78125,345.21875 L 925.6875,345.21875 C 927.18749,345.21876 928.9375,345.44625 928.9375,347.375 C 928.9375,349.62375 927.0375,349.71875 925.0625,349.71875 L 922.78125,349.71875 L 922.78125,345.21875 z M 80.03125,360.71875 L 161,360.71875 C 169.49875,360.71875 177.8125,364.75124 177.8125,374.34375 C 177.8125,383.94875 169.49874,387.99999 161,388 L 80.03125,388 L 80.03125,360.71875 z M 275.6875,362.1875 L 347.6875,362.1875 C 360.16,362.25875 361.35376,365.17875 361.4375,378.78125 L 361.4375,407.5625 C 361.4375,420.47625 357.73876,422.78126 347.3125,422.78125 L 274.9375,422.78125 C 263.085,422.71 263.06,415.55876 263,405.65625 C 263,405.65625 263,378.30499 263,378.28125 C 263.19125,366.39125 264.27375,362.24626 275.6875,362.1875 z"
       transform="matrix(0.8,0,0,-0.8,-98.843,611.686)"
       id="ROTEL"
       style="fill:#ffffff;fill-opacity:1;fill-rule:nonzero;stroke:none" /></g></svg>