<?xml version="1.0" encoding="utf-8"?>
<!-- Generator: Adobe Illustrator 19.1.0, SVG Export Plug-In . SVG Version: 6.00 Build 0)  -->
<svg version="1.1" id="Layer_1" xmlns="http://www.w3.org/2000/svg" xmlns:xlink="http://www.w3.org/1999/xlink" x="0px" y="0px"
	 width="202.9px" height="87.2px" viewBox="0 0 202.9 87.2" style="enable-background:new 0 0 202.9 87.2;" xml:space="preserve">
<style type="text/css">
	.st0{fill:#909092;}
	.st1{fill:#FFFFFF;}
	.st2{fill:#0077C0;}
	.st3{fill:#EF4044;}
</style>
<g>
	<path class="st0" d="M60,76.2c-1.4,0-2.2-0.8-2.2-2.1c0-1.4,0.8-2,2.1-2c1.8,0,2.3,0.7,2.3,2C62.2,75.6,61.3,76.2,60,76.2"/>
	<path class="st0" d="M68.6,60.9c0,1.4-0.1,1.8-0.1,2.2c0,0.5,0.1,0.6,0.3,0.6c0.4,0,1-1.9,4.3-1.9c3.4,0,5.5,2.4,5.5,7.1
		c0,4.3-2.2,7.3-5.7,7.3c-4.2,0-4.1-2.5-4.6-2.5c-0.2,0-0.2,0.2-0.4,1.3c-0.2,0.8-0.7,1-1.6,1c-1.2,0-1.5-0.5-1.5-1.4
		c0-2.1,0-7.4,0-16.5c0-1,0.5-1.5,2-1.5c1.7,0,1.9,0.6,1.9,1.5V60.9 M74.8,69c0-2.9-1.2-3.9-3.1-3.9c-1.9,0-3.3,1-3.3,4
		c0,2.6,1.3,4.2,3.1,4.2C73.5,73.4,74.8,71.8,74.8,69"/>
	<path class="st0" d="M84,74.7c0,1-0.4,1.4-1.9,1.4c-1.4,0-1.9-0.4-1.9-1.4c0-7,0.1-10.3,0.1-11.2c0-0.9,0.3-1.2,1.5-1.2
		c1.1,0,1.4,0.3,1.5,1.3c0.1,0.9,0.2,1,0.4,1c0.5,0,0.9-2.3,3.7-2.3c1.1,0,1.6,0.4,1.6,1.6c0,1-0.2,1.9-1.5,1.9
		c-2.2,0-3.4,1.3-3.4,4V74.7"/>
	<path class="st0" d="M101.4,76c-1.2,0-1.5-0.5-1.7-1.3c-0.1-0.6-0.1-1.1-0.4-1.1c-0.5,0-0.6,2.7-4.4,2.7c-3.1,0-4.6-1.9-4.6-5.8
		c0-4.2,0-2.3,0-7c0-0.9,0.4-1.3,1.9-1.3c1.4,0,1.9,0.2,1.9,1.3c0,0.5-0.1,4.8-0.1,6.1c0,2.3,0.9,3.5,2.4,3.5c1.9,0,2.8-1.5,2.8-4.4
		c0-3.3-0.1-4.4-0.1-5.3c0-0.8,0.5-1.2,1.9-1.2c1.4,0,2,0.2,2,1.2c0,1.6-0.1,10.2-0.1,11.1C103,75.5,102.5,76,101.4,76"/>
	<path class="st0" d="M111.1,73.6c1.9,0,2.4-0.7,2.4-1.3c0-0.9-0.8-1.1-3.9-1.6c-3.8-0.6-4.6-2.3-4.6-4.2c0-3.1,2.9-4.5,5.9-4.5
		c4.1,0,5.8,1.8,5.8,3.7c0,0.9-0.6,1.4-1.7,1.4c-0.7,0-1.2-0.5-1.4-0.9c-0.6-1-1.5-1.4-2.7-1.4c-1.5,0-2.4,0.5-2.4,1.4
		c0,1,0.5,1.5,3.5,2c4.4,0.8,5.2,2,5.2,3.9c0,2.3-2,4.2-6.4,4.2c-4.4,0-5.9-2.3-5.9-3.6c0-1,0.4-1.4,1.3-1.4
		C107.8,71.3,107.6,73.6,111.1,73.6"/>
	<path class="st0" d="M124.8,73.6c1.9,0,2.4-0.7,2.4-1.3c0-0.9-0.9-1.1-3.9-1.6c-3.8-0.6-4.6-2.3-4.6-4.2c0-3.1,2.9-4.5,5.9-4.5
		c4.1,0,5.8,1.8,5.8,3.7c0,0.9-0.6,1.4-1.7,1.4c-0.7,0-1.2-0.5-1.4-0.9c-0.6-1-1.5-1.4-2.7-1.4c-1.5,0-2.4,0.5-2.4,1.4
		c0,1,0.5,1.5,3.4,2c4.4,0.8,5.2,2,5.2,3.9c0,2.3-2,4.2-6.4,4.2c-4.4,0-5.9-2.3-5.9-3.6c0-1,0.4-1.4,1.3-1.4
		C121.5,71.3,121.3,73.6,124.8,73.6"/>
	<path class="st0" d="M139.1,76.3c-4.2,0-6.8-2.9-6.8-7.4c0-4.1,2.5-7,6.9-7c4.1,0,6.5,2,6.5,5.7c0,1.6-0.5,1.9-1.5,1.9
		c-0.7,0-7,0-7.6,0c-0.6,0-0.6,0.3-0.6,0.7c0,1.8,1.4,3.2,3.4,3.2c3.3,0,2.7-2.2,4.6-2.2c0.7,0,1.3,0.5,1.3,1.4
		C145.2,73.9,143.6,76.3,139.1,76.3 M141.7,67.7c0.5,0,0.7-0.2,0.7-0.6c0-1-0.9-2.3-3.2-2.3c-2.3,0-3.3,1.4-3.3,2.4
		c0,0.4,0.1,0.6,0.6,0.6H141.7z"/>
	<path class="st0" d="M147.5,58.2c0-0.9,0.5-1.4,1.9-1.4c1.3,0,1.8,0.3,1.8,1.5c0,1.6-0.1,13.3-0.1,14.6c0,0.5,0.1,0.7,0.4,0.7
		c0.2,0,0.3-0.1,0.6-0.1c0.7,0,1,0.4,1,1.2c0,1.1-0.8,1.7-2.4,1.7c-2.2,0-3.3-1.4-3.3-3.4V58.2"/>
	<path class="st0" d="M160,73.6c1.9,0,2.4-0.7,2.4-1.3c0-0.9-0.8-1.1-3.9-1.6c-3.8-0.6-4.6-2.3-4.6-4.2c0-3.1,2.9-4.5,5.9-4.5
		c4.1,0,5.8,1.8,5.8,3.7c0,0.9-0.6,1.4-1.7,1.4c-0.7,0-1.2-0.5-1.4-0.9c-0.6-1-1.5-1.4-2.7-1.4c-1.5,0-2.4,0.5-2.4,1.4
		c0,1,0.5,1.5,3.4,2c4.4,0.8,5.2,2,5.2,3.9c0,2.3-2,4.2-6.4,4.2c-4.4,0-5.9-2.3-5.9-3.6c0-1,0.4-1.4,1.3-1.4
		C156.7,71.3,156.5,73.6,160,73.6"/>
	<path class="st0" d="M175,65.9c-2.5,0-4.9,1.9-4.9,5c0,3,2.8,4.9,5.2,4.9c2.7,0,4-0.8,6.2-0.4c1.8,0.4,2.7,1.2,3.2,1.7
		c0.2,0.2,0.5,0.2,0.7,0.1c0.2-0.1,0.3-0.4,0.2-1c-0.3-1.4-1-2.9-1.9-4.2C182.1,69.5,178.7,65.9,175,65.9"/>
	<path class="st0" d="M198,65.9c2.5,0,4.9,1.9,4.9,5c0,3-2.8,4.9-5.2,4.9c-2.7,0-4-0.8-6.2-0.4c-1.8,0.4-2.7,1.2-3.2,1.7
		c-0.2,0.2-0.5,0.2-0.7,0.1c-0.2-0.1-0.3-0.4-0.2-1c0.3-1.4,1-2.9,1.9-4.2C190.8,69.5,194.2,65.9,198,65.9"/>
	<path class="st0" d="M189.7,57.4c-1.4,0-2.5,0.6-3.2,1.4c-0.6-0.8-1.8-1.4-3.2-1.4c-2.5,0-4.8,2-4.8,4.9c0,1.3,0.5,2.2,1,2.9
		c0.5,0.8,1.2,1.4,2.3,2.4c1.6,1.4,2.9,2.7,4.1,5.3c0.1,0.2,0.3,0.4,0.6,0.4c0.3,0,0.5-0.2,0.6-0.4c1.2-2.6,2.5-4,4.1-5.3
		c1.1-0.9,1.8-1.6,2.3-2.4c0.5-0.7,1-1.6,1-2.9C194.5,59.4,192.2,57.4,189.7,57.4"/>
	<path class="st1" d="M189.5,58.8c-1.7,0-2.7,1.3-3.1,2.1c-0.4-0.9-1.4-2.1-3.1-2.1c-1.9,0-3.5,1.6-3.5,3.5c0,0.7,0.2,1.4,0.7,2
		c1.7,2.4,4.1,3.1,5.8,6.9c1.7-3.7,4.1-4.5,5.8-6.9c0.4-0.6,0.7-1.3,0.7-2C193,60.4,191.5,58.8,189.5,58.8"/>
	<polyline class="st1" points="16.6,0 0,77 0.6,77.1 47.5,87.2 64.1,10.3 63.5,10.1 16.6,0 	"/>
	<path class="st2" d="M17,9.4c0-0.6,0-1-0.4-1.3c-0.2-0.2-0.4-0.3-0.6-0.4l-0.7,3.2H17V9.4 M56.1,11.1c0.4-0.3,0.4-0.8,0.4-1.1
		c0-0.1,0-0.2,0-0.3L53.3,9v2.5h1.5C55.4,11.4,55.7,11.4,56.1,11.1 M20.1,7.4c-0.7,0-1.4,0.4-1.5,1c-0.1,0.2-0.1,0.5-0.1,1v1.5h3.4
		V9.3C21.9,8,21.1,7.4,20.1,7.4 M54.8,12.9h-1.5v3.4h1.6c1.3,0,1.9-0.8,1.9-1.7c0-0.8-0.4-1.4-1-1.5C55.6,12.9,55.4,12.9,54.8,12.9
		 M20.9,18.5L20.9,18.5c0-0.1-0.6-0.2-2.2-0.7l-4.5-1.5l-1,4.4l5.5-1.8C20.1,18.6,20.9,18.5,20.9,18.5 M58.3,10.1
		c-0.1,1-0.8,1.7-1.8,2c1.7,0.4,2.2,1.6,2.2,2.7c0,2.1-1.5,3-4.2,3h-3.1V8.6l-2.4-0.5v9.7h-1.8V7.7L46,7.4l-0.2,1.2h-2.7v9.1h-1.7
		V8.6h-2.7V7.1h6.1L17.4,1.2l-1,4.9c0.6,0.3,1,0.8,1.2,1.6c0.4-1.8,1.6-2.3,2.7-2.3c2.1,0,3,1.5,3,4.2v3.1h-8.4l-0.4,2l8.8,3v1.6
		l-10.6,3.6L1.2,76.2h47.6L62.9,11L58.3,10.1z M23.4,30.2l-6.6,0.5c-0.6,0.1-1.4,0.1-1.8,0.1c0.4,0.1,1,0.2,1.6,0.4l6.8,2v1.5
		l-6.4,1.8c-0.7,0.2-1.6,0.4-2,0.5c0.3,0,1.3,0.1,2,0.1l6.4,0.4v1.8l-10.7-1v-2.4l6-1.6c0.9-0.2,1.5-0.3,1.8-0.4
		c-0.3-0.1-1-0.2-1.8-0.4l-6-1.6v-2.4l10.7-0.9V30.2z M12.7,24.2h10.7V26H12.7V24.2z M34,17.9c-1.2,0-2.4-0.3-3.5-0.9l0.7-1.4
		c1,0.6,1.8,0.9,2.9,0.9c1.3,0,2.1-0.6,2.1-1.7c0-0.8-0.5-1.3-1.6-1.6l-1.2-0.3c-1-0.2-1.6-0.7-2-1.3c-0.3-0.4-0.5-0.9-0.5-1.6
		c0-1.9,1.5-3.2,3.6-3.2c1.2,0,2.4,0.4,3.4,1l-0.8,1.2c-1-0.6-1.7-0.8-2.5-0.8c-1,0-1.7,0.6-1.7,1.4c0,0.7,0.4,1,1.4,1.3l1.3,0.4
		c1.6,0.4,2.6,1.4,2.6,3C38.2,16.3,36.7,17.9,34,17.9"/>
	<polyline class="st3" points="1.2,76.2 46.7,86 48.8,76.2 1.2,76.2 	"/>
</g>
</svg>
