<?xml version="1.0" encoding="utf-8"?>
<!-- Generator: Adobe Illustrator 16.0.0, SVG Export Plug-In . SVG Version: 6.00 Build 0)  -->
<!DOCTYPE svg PUBLIC "-//W3C//DTD SVG 1.1//EN" "http://www.w3.org/Graphics/SVG/1.1/DTD/svg11.dtd">
<svg version="1.1" id="Layer_1" xmlns="http://www.w3.org/2000/svg" xmlns:xlink="http://www.w3.org/1999/xlink" x="0px" y="0px"
	 width="640px" height="120px" viewBox="0 0 640 120" enable-background="new 0 0 640 120" xml:space="preserve">
<g>
	<g>
		<path d="M17.693,41.725H1.955C0.823,41.725,0,40.8,0,39.772v-8.436c0-1.029,0.823-1.953,1.955-1.953h44.951
			c1.132,0,1.955,0.923,1.955,1.953v8.436c0,1.027-0.823,1.953-1.955,1.953H31.167v57.707c0,1.027-0.927,1.954-1.955,1.954h-9.564
			c-1.028,0-1.955-0.927-1.955-1.954V41.725z"/>
		<path d="M59.559,31.336c0-1.029,0.823-1.955,1.955-1.955h41.864c1.13,0,1.955,0.926,1.955,1.955v8.436
			c0,1.028-0.825,1.954-1.955,1.954H72.93v16.868h25.409c1.028,0,1.955,0.927,1.955,1.956v8.536c0,1.132-0.927,1.955-1.955,1.955
			H72.93v18h30.448c1.13,0,1.955,0.927,1.955,1.955v8.436c0,1.027-0.825,1.952-1.955,1.952H61.514c-1.132,0-1.955-0.925-1.955-1.952
			V31.336z"/>
		<path d="M120.045,31.336c0-1.029,0.823-1.955,1.955-1.955h9.461c1.028,0,1.957,0.926,1.957,1.955v57.705h26.229
			c1.13,0,1.953,0.927,1.953,1.955v8.436c0,1.027-0.823,1.952-1.953,1.952H122c-1.132,0-1.955-0.925-1.955-1.952V31.336z"/>
		<path d="M171.99,31.336c0-1.029,0.823-1.955,1.955-1.955h9.463c1.028,0,1.955,0.926,1.955,1.955v57.705h26.232
			c1.129,0,1.953,0.927,1.953,1.955v8.436c0,1.027-0.823,1.952-1.953,1.952h-37.65c-1.132,0-1.955-0.925-1.955-1.952V31.336z"/>
		<path d="M223.937,31.336c0-1.029,0.823-1.955,1.851-1.955h24.378c19.853,0,36.105,16.151,36.105,35.898
			c0,19.955-16.252,36.104-36.105,36.104h-24.378c-1.028,0-1.851-0.925-1.851-1.952V31.336z M248.933,88.836
			c13.373,0,23.143-10.081,23.143-23.557c0-13.37-9.77-23.449-23.143-23.449h-11.727v47.006H248.933z"/>
		<path d="M298.824,31.336c0-1.029,0.927-1.955,1.955-1.955h9.77c1.134,0,1.957,0.926,1.957,1.955v42.068
			c0,8.746,5.966,15.637,14.917,15.637c8.942,0,15.017-6.891,15.017-15.531V31.336c0-1.029,0.821-1.955,1.953-1.955h9.771
			c1.029,0,1.953,0.926,1.953,1.955v42.792c0,15.633-12.446,28.286-28.694,28.286c-16.153,0-28.599-12.653-28.599-28.286V31.336
			L298.824,31.336z"/>
		<path d="M369.596,91.305l3.703-6.378c0.824-1.438,2.57-1.438,3.498-0.72c0.516,0.309,8.844,6.376,15.531,6.376
			c5.349,0,9.361-3.494,9.361-7.919c0-5.246-4.424-8.848-13.063-12.348c-9.669-3.906-19.341-10.075-19.341-22.214
			c0-9.155,6.791-19.749,23.146-19.749c10.489,0,18.517,5.348,20.571,6.893c1.029,0.616,1.336,2.365,0.618,3.394l-3.909,5.863
			c-0.825,1.236-2.366,2.058-3.604,1.236c-0.819-0.517-8.635-5.659-14.295-5.659c-5.862,0-9.051,3.909-9.051,7.201
			c0,4.834,3.807,8.126,12.141,11.52c9.976,4.012,21.492,9.975,21.492,23.247c0,10.593-9.149,20.365-23.658,20.365
			c-12.959,0-20.571-6.067-22.629-8.022C369.186,93.465,368.672,92.951,369.596,91.305"/>
	</g>
	<path fill="#E26901" d="M516.449,51.578l-40.804-33.574c-0.656-0.539-1.604-0.561-2.28-0.044l-44.238,33.571
		c-0.627,0.479-0.886,1.303-0.631,2.051c0.251,0.75,0.955,1.252,1.741,1.252h9.312v44.71c0,1.017,0.826,1.84,1.841,1.84h62.062
		c1.02,0,1.841-0.823,1.841-1.84v-44.71h9.988c0.772,0,1.469-0.487,1.731-1.217C517.278,52.885,517.05,52.072,516.449,51.578
		 M460.871,76.486c-0.242,0.027-0.484-0.047-0.67-0.203l-2.803-2.385c-0.352-0.299-0.411-0.816-0.144-1.194
		c1.295-1.777,2.068-3.963,2.086-6.331c0.013-2.363-0.733-4.557-2.009-6.351c-0.27-0.376-0.203-0.896,0.155-1.192l2.83-2.349
		c0.188-0.155,0.432-0.228,0.674-0.196c0.242,0.028,0.462,0.156,0.604,0.353c2.022,2.734,3.21,6.116,3.186,9.771
		c-0.021,3.651-1.249,7.024-3.302,9.731C461.334,76.34,461.113,76.459,460.871,76.486 M468.466,82.949
		c-0.237,0.023-0.476-0.053-0.657-0.205l-3.489-2.967c-0.363-0.309-0.414-0.844-0.125-1.217c2.618-3.354,4.189-7.562,4.217-12.131
		c0.024-4.572-1.495-8.795-4.074-12.179c-0.285-0.379-0.225-0.915,0.144-1.218l3.521-2.921c0.188-0.154,0.428-0.226,0.665-0.199
		c0.238,0.026,0.454,0.149,0.602,0.337c3.474,4.484,5.525,10.121,5.49,16.219c-0.035,6.096-2.156,11.705-5.681,16.148
		C468.924,82.807,468.708,82.924,468.466,82.949 M477.361,89.668c-0.147,0.186-0.367,0.307-0.605,0.328
		c-0.237,0.021-0.475-0.055-0.656-0.21l-4.174-3.544c-0.367-0.312-0.418-0.86-0.116-1.231c4.073-5.081,6.532-11.518,6.571-18.521
		c0.043-7.006-2.338-13.47-6.352-18.6c-0.297-0.377-0.236-0.918,0.131-1.225l4.216-3.497c0.187-0.154,0.423-0.225,0.661-0.201
		c0.237,0.025,0.453,0.147,0.601,0.332c5.055,6.392,8.053,14.472,8.001,23.234C485.586,75.294,482.493,83.339,477.361,89.668"/>
	<g>
		<path fill="#58595B" d="M538.339,101.386V57.549h8.567v35.65h11.524v8.187H538.339z"/>
		<path fill="#58595B" d="M562.277,101.386V57.549h8.562v43.837H562.277z"/>
		<path fill="#58595B" d="M592.695,57.549h9.326l-8.377,43.837h-10.839l-8.312-43.837h9.384l2.644,17.51l1.577,12.408h0.376
			l1.576-12.281L592.695,57.549z"/>
		<path fill="#58595B" d="M605.547,101.386V57.549h20.089v8.188h-11.521v9.322h10.074v8.188h-10.074V93.2h11.521v8.187
			L605.547,101.386L605.547,101.386z"/>
		<path fill="#58595B" d="M639.369,88.602h-7.119l-0.631-31.053H640L639.369,88.602z M631.809,101.386v-8.755h8.066v8.755H631.809z"
			/>
	</g>
</g>
</svg>
