<?xml version="1.0" encoding="UTF-8" standalone="no"?>
<!-- Created with Inkscape (http://www.inkscape.org/) -->

<svg
   xmlns:dc="http://purl.org/dc/elements/1.1/"
   xmlns:cc="http://creativecommons.org/ns#"
   xmlns:rdf="http://www.w3.org/1999/02/22-rdf-syntax-ns#"
   xmlns:svg="http://www.w3.org/2000/svg"
   xmlns="http://www.w3.org/2000/svg"
   xmlns:sodipodi="http://sodipodi.sourceforge.net/DTD/sodipodi-0.dtd"
   xmlns:inkscape="http://www.inkscape.org/namespaces/inkscape"
   width="1000"
   height="337.54373"
   id="svg3091"
   version="1.1"
   inkscape:version="0.48.5 r10040"
   sodipodi:docname="New document 5">
  <defs
     id="defs3093" />
  <sodipodi:namedview
     id="base"
     pagecolor="#ffffff"
     bordercolor="#666666"
     borderopacity="1.0"
     inkscape:pageopacity="0.0"
     inkscape:pageshadow="2"
     inkscape:zoom="0.56806641"
     inkscape:cx="58.867679"
     inkscape:cy="8.199806"
     inkscape:document-units="px"
     inkscape:current-layer="layer1"
     showgrid="false"
     fit-margin-top="0"
     fit-margin-left="0"
     fit-margin-right="0"
     fit-margin-bottom="0"
     inkscape:window-width="1920"
     inkscape:window-height="1028"
     inkscape:window-x="-8"
     inkscape:window-y="-8"
     inkscape:window-maximized="1" />
  <metadata
     id="metadata3096">
    <rdf:RDF>
      <cc:Work
         rdf:about="">
        <dc:format>image/svg+xml</dc:format>
        <dc:type
           rdf:resource="http://purl.org/dc/dcmitype/StillImage" />
        <dc:title></dc:title>
      </cc:Work>
    </rdf:RDF>
  </metadata>
  <g
     inkscape:label="Layer 1"
     inkscape:groupmode="layer"
     id="layer1"
     transform="translate(94.857143,-211.56067)">
    <path
       sodipodi:nodetypes="ccccccccccccccccc"
       inkscape:connector-curvature="0"
       id="path3049"
       d="m -94.857143,473.78389 69.005304,-91.97704 -62.595048,-84.30501 25.84625,0 c 16.598959,0 21.165625,6.81756 27.038366,13.79025 L -4.2528966,354.4335 25.335164,315.13004 c 12.314295,-16.47992 15.895641,-17.6282 33.653846,-17.6282 l 22.061875,0 -63.48133,84.27384 123.150225,167.32872 -27.24359,0 c -15.6546,0 -21.64468,-6.6301 -25.765706,-12.15301 L -4.6121595,409.61408 -43.136903,460.91807 c -5.105721,6.56686 -12.31492,12.86582 -26.079214,12.86582 z"
       style="fill:#c8001d;fill-opacity:1;stroke:none" />
    <path
       sodipodi:nodetypes="ccccccccccccccc"
       inkscape:connector-curvature="0"
       id="path3051"
       d="m 164.27667,473.78389 -35.25641,0 0,-144.23077 -41.185096,0 22.435896,-32.05128 18.7492,0 0,-17.98401 c 0,-60.49803 57.63324,-75.21421 89.99032,-64.95867 l -7.23117,32.04162 c -23.94851,-5.21444 -47.50274,3.3982 -47.50274,39.68311 l 0,11.21795 45.35337,0 0,32.05128 -45.35337,0 z"
       style="fill:#c8001d;fill-opacity:1;stroke:none" />
    <path
       sodipodi:nodetypes="ccccc"
       inkscape:connector-curvature="0"
       id="path3053"
       d="m 273.7326,297.50184 0,176.28205 -36.05769,0 0,-176.28205 z"
       style="fill:#c8001d;fill-opacity:1;stroke:none" />
    <path
       sodipodi:nodetypes="cccccccccccccc"
       inkscape:connector-curvature="0"
       id="path3055"
       d="m 316.0403,473.78389 0,-176.28205 35.57692,0 0,17.6282 c 0,0 17.40888,-21.27723 55.07529,-21.27723 43.19527,0 71.0465,32.07534 71.0465,75.76441 l 0,104.16667 -19.71154,0 c -10.65862,0 -16.02564,-8.2991 -16.02564,-16.02564 l 0,-80.12821 c 0,-33.20739 -17.10049,-49.60014 -43.63288,-49.60014 -32.60838,0 -46.75173,25.56168 -46.75173,25.56168 l 0,120.19231 z"
       style="fill:#c8001d;fill-opacity:1;stroke:none" />
    <path
       style="fill:#c8001d;fill-opacity:1;stroke:none"
       d="m 555.32932,297.50184 0,176.28205 -36.0577,0 0,-176.28205 z"
       id="path3057"
       inkscape:connector-curvature="0"
       sodipodi:nodetypes="ccccc" />
    <path
       sodipodi:nodetypes="cccccccccccccccc"
       inkscape:connector-curvature="0"
       id="path3059"
       d="m 583.02747,329.55312 0,-32.05128 37.98077,0 0,-55.21702 35.73718,-15.2958 0,70.51282 35.25641,0 14.42308,32.05128 -49.67949,0 0,83.33333 c 0,24.71766 22.16725,36.29709 48.79441,28.95625 l 7.23118,31.54292 c 0,0 -10.21911,3.61559 -26.18187,3.61559 -41.9072,0 -65.5809,-26.88742 -65.5809,-62.51219 l 0,-84.9359 z"
       style="fill:#c8001d;fill-opacity:1;stroke:none" />
    <path
       sodipodi:nodetypes="cccccccccccc"
       inkscape:connector-curvature="0"
       id="path3061"
       d="m 720.84799,297.50184 17.6282,0 c 20.40175,0 25.02018,6.28024 31.09724,20.42394 l 40.1451,86.2004 48.48652,-90.69929 c 5.86952,-10.32108 11.45077,-15.92505 29.3096,-15.92505 l 17.62821,0 -124.42367,231.1774 c -8.48987,15.3491 -13.22053,20.42516 -32.62761,20.42516 l -18.33348,0 59.77203,-108.05474 z"
       style="fill:#c8001d;fill-opacity:1;stroke:none" />
  </g>
</svg>
