<svg width="135" height="105" viewBox="0 0 135 105" fill="none" xmlns="http://www.w3.org/2000/svg">
<path fill-rule="evenodd" clip-rule="evenodd" d="M77.5579 63.3541C78.7815 63.1337 80.0223 63.023 81.2656 63.0234C83.8801 63.0234 86.3818 63.5072 88.6863 64.3897L97.8552 51.3516L98.2054 51.55C94.8062 47.7517 92.9301 42.8315 92.9375 37.7344C92.9375 26.2745 102.228 16.9844 113.688 16.9844C125.147 16.9844 134.438 26.2745 134.438 37.7344C134.438 49.1942 125.147 58.4844 113.688 58.4844C111.306 58.4844 109.019 58.083 106.889 57.3451L97.6095 70.9869C100.471 74.6341 102.023 79.1376 102.016 83.7734C102.016 95.2333 92.7255 104.523 81.2656 104.523C69.8058 104.523 60.5156 95.2333 60.5156 83.7734C60.5156 77.4401 63.3532 71.7696 67.8261 67.9632L54.362 41.1957C52.9731 41.4821 51.5587 41.6259 50.1406 41.625C48.3549 41.6263 46.5765 41.3975 44.8494 40.9441L35.307 57.7581C39.2534 61.5353 41.7109 66.8557 41.7109 72.75C41.7109 84.2098 32.4208 93.5 20.9609 93.5C9.5011 93.5 0.210938 84.2098 0.210938 72.75C0.210938 61.2902 9.5011 52 20.9609 52C22.6825 52 24.3549 52.2094 25.9539 52.6043L35.5566 35.6347C31.7496 31.8744 29.3906 26.6506 29.3906 20.875C29.3906 9.41516 38.6808 0.125 50.1406 0.125C61.6005 0.125 70.8906 9.41516 70.8906 20.875C70.8906 27.076 68.1704 32.6415 63.859 36.444L77.5579 63.3541ZM113.688 48.1094C119.418 48.1094 124.062 43.4646 124.062 37.7344C124.062 32.0041 119.418 27.3594 113.688 27.3594C107.957 27.3594 103.312 32.0041 103.312 37.7344C103.312 43.4646 107.957 48.1094 113.688 48.1094ZM20.9609 83.125C26.6912 83.125 31.3359 78.4802 31.3359 72.75C31.3359 67.0198 26.6912 62.375 20.9609 62.375C15.2307 62.375 10.5859 67.0198 10.5859 72.75C10.5859 78.4802 15.2307 83.125 20.9609 83.125ZM50.1406 31.25C55.8709 31.25 60.5156 26.6052 60.5156 20.875C60.5156 15.1448 55.8709 10.5 50.1406 10.5C44.4104 10.5 39.7656 15.1448 39.7656 20.875C39.7656 26.6052 44.4104 31.25 50.1406 31.25ZM81.2656 94.1484C86.9959 94.1484 91.6406 89.5037 91.6406 83.7734C91.6406 78.0432 86.9959 73.3984 81.2656 73.3984C75.5354 73.3984 70.8906 78.0432 70.8906 83.7734C70.8906 89.5037 75.5354 94.1484 81.2656 94.1484Z" fill="rgba(0, 0, 0, .1)"/>
</svg>
