<svg width="20" height="20" viewBox="0 0 20 20" fill="none" xmlns="http://www.w3.org/2000/svg">
<path d="M14.895 4.51897L17.708 1.70697L16.294 0.292969L13.448 3.13897C13.2171 2.97213 12.9756 2.82048 12.725 2.68497C11.8867 2.23661 10.9507 2.00203 10 2.00203C9.04932 2.00203 8.11332 2.23661 7.275 2.68497C7.025 2.81697 6.787 2.97197 6.553 3.13797L3.707 0.292969L2.293 1.70697L5.106 4.51897C4.52036 5.26461 4.06402 6.10326 3.756 6.99997H0V8.99997H2.307C2.242 9.49497 2.2 9.99697 2.2 10.5C2.2 11.007 2.242 11.513 2.307 12.011H0V14.011H2.753C2.766 14.05 2.774 14.091 2.787 14.129C2.975 14.684 3.208 15.222 3.482 15.729C3.526 15.81 3.577 15.884 3.623 15.963L1.293 18.293L2.707 19.707L4.817 17.596C5.40541 18.2534 6.10554 18.8015 6.885 19.215C7.364 19.468 7.867 19.664 8.381 19.795C9.44273 20.0676 10.5561 20.068 11.618 19.796C12.1378 19.6622 12.6399 19.4676 13.114 19.216C13.579 18.97 14.028 18.666 14.447 18.312C14.705 18.094 14.947 17.85 15.181 17.596L17.292 19.707L18.706 18.293L16.376 15.963C16.423 15.883 16.474 15.808 16.518 15.727C16.791 15.222 17.025 14.684 17.212 14.128C17.225 14.089 17.233 14.049 17.246 14.01H20V12.01H17.692C17.757 11.511 17.799 11.006 17.799 10.499C17.799 9.99597 17.757 9.49397 17.693 8.99897H20V6.99997H16.244C15.9359 6.10349 15.48 5.2649 14.895 4.51897ZM6.681 5.74797C7.126 5.18997 7.641 4.75497 8.209 4.45397C8.75919 4.15735 9.37445 4.00206 9.9995 4.00206C10.6246 4.00206 11.2398 4.15735 11.79 4.45397C12.3839 4.77545 12.9048 5.21636 13.32 5.74897C13.619 6.12197 13.86 6.54897 14.073 6.99997H5.927C6.141 6.54897 6.381 6.12097 6.681 5.74797ZM15.8 10.5C15.8 11.022 15.758 11.544 15.674 12.053C15.595 12.543 15.475 13.026 15.319 13.489C15.1695 13.9334 14.9825 14.3642 14.76 14.777C14.5486 15.1677 14.3033 15.5391 14.027 15.887C13.76 16.22 13.467 16.523 13.158 16.785C12.848 17.046 12.519 17.269 12.179 17.449C11.839 17.629 11.484 17.766 11.122 17.859C11.082 17.869 11.04 17.873 11 17.882V12H9V17.881C8.96 17.872 8.918 17.868 8.878 17.858C8.517 17.765 8.161 17.628 7.821 17.448C7.481 17.268 7.152 17.045 6.843 16.784C6.52426 16.5132 6.23256 16.2121 5.972 15.885C5.69564 15.5383 5.45099 15.1674 5.241 14.777C5.01839 14.3638 4.83105 13.9326 4.681 13.488C4.52334 13.0191 4.40428 12.5382 4.325 12.05C4.16065 11.0401 4.15862 10.0105 4.319 8.99997H15.68C15.759 9.49097 15.8 9.99497 15.8 10.5Z" fill="black"/>
</svg>
