<svg width="20" height="20" viewBox="0 0 20 20" fill="none" xmlns="http://www.w3.org/2000/svg">
<path d="M11.5441 8.45608C10.7249 7.63732 9.61421 7.17737 8.45605 7.17737C7.2979 7.17737 6.18716 7.63732 5.36805 8.45608L2.27905 11.5441C1.45993 12.3632 0.999756 13.4742 0.999756 14.6326C0.999756 15.791 1.45993 16.902 2.27905 17.7211C3.09818 18.5402 4.20914 19.0004 5.36755 19.0004C6.52597 19.0004 7.63693 18.5402 8.45605 17.7211L10.0001 16.1771" stroke="black" stroke-width="2" stroke-linecap="round" stroke-linejoin="round"/>
<path d="M8.45605 11.5441C9.27516 12.3628 10.3859 12.8228 11.5441 12.8228C12.7022 12.8228 13.8129 12.3628 14.6321 11.5441L17.7211 8.45605C18.5402 7.63693 19.0004 6.52597 19.0004 5.36755C19.0004 4.20914 18.5402 3.09818 17.7211 2.27905C16.9019 1.45993 15.791 0.999756 14.6326 0.999756C13.4741 0.999756 12.3632 1.45993 11.5441 2.27905L10.0001 3.82305" stroke="black" stroke-width="2" stroke-linecap="round" stroke-linejoin="round"/>
</svg>
