<svg width="23" height="19" viewBox="0 0 23 19" fill="none" xmlns="http://www.w3.org/2000/svg">
<path d="M19 8V9.5C21.21 9.5 23 11.29 23 13.5C23 14.32 22.75 15.08 22.33 15.71L21.24 14.62C21.41 14.28 21.5 13.9 21.5 13.5C21.5 12.837 21.2366 12.2011 20.7678 11.7322C20.2989 11.2634 19.6631 11 19 11V12.5L16.75 10.25L16.72 10.22C16.78 10.17 16.85 10.13 19 8ZM19 19V17.5C16.79 17.5 15 15.71 15 13.5C15 12.68 15.25 11.92 15.67 11.29L16.76 12.38C16.59 12.72 16.5 13.1 16.5 13.5C16.5 14.163 16.7634 14.7989 17.2323 15.2678C17.7011 15.7366 18.337 16 19 16V14.5L21.25 16.75L21.28 16.78C21.22 16.83 21.15 16.87 19 19ZM13.03 14H6.00002C3.79002 14 2.00002 12.21 2.00002 10C2.00002 7.79 3.79002 6 6.00002 6H6.71002C7.37002 3.69 9.50002 2 12 2C15 2 17.4 4.37 17.5 7.32C18.12 7.11 18.8 7 19.5 7C20.78 7 21.97 7.38 23 8C22.13 6.9 20.84 6.14 19.35 6.03C19.0121 4.32956 18.0947 2.79901 16.7544 1.69938C15.414 0.599754 13.7337 -0.00084956 12 9.01958e-07C9.11002 9.01958e-07 6.60002 1.64 5.35002 4.03C3.82785 4.20197 2.42897 4.94925 1.43976 6.11887C0.450539 7.2885 -0.0542018 8.792 0.0288592 10.3216C0.11192 11.8512 0.7765 13.2912 1.88655 14.3468C2.99661 15.4025 4.46818 15.9939 6.00002 16H13.5C13.24 15.38 13.08 14.7 13.03 14Z" fill="black"/>
</svg>
