<svg width="92" height="80" viewBox="0 0 92 80" fill="none" xmlns="http://www.w3.org/2000/svg">
<path d="M58.3029 53.1428C60.562 53.1428 62.7286 54.0402 64.326 55.6376C65.9234 57.2351 66.8208 59.4016 66.8208 61.6607V67.3468L66.7905 67.7557C65.6169 75.8079 58.3862 79.6769 46.253 79.6769C34.1652 79.6769 26.8172 75.8533 25.2309 67.8957L25.1779 67.3392V61.6607C25.1779 59.4016 26.0754 57.2351 27.6728 55.6376C29.2702 54.0402 31.4367 53.1428 33.6958 53.1428H58.3029ZM58.3029 58.8214H33.6958C32.9428 58.8214 32.2206 59.1205 31.6881 59.653C31.1557 60.1855 30.8565 60.9077 30.8565 61.6607V67.0364C31.9165 71.5792 36.7244 73.9983 46.253 73.9983C55.7779 73.9983 60.3737 71.6095 61.1422 67.1235V61.6607C61.1422 60.9077 60.8431 60.1855 60.3106 59.653C59.7782 59.1205 59.056 58.8214 58.3029 58.8214ZM62.0659 30.4247L82.9101 30.4285C85.1692 30.4285 87.3357 31.326 88.9331 32.9234C90.5305 34.5208 91.4279 36.6873 91.4279 38.9464V44.6325L91.3977 45.0414C90.2241 53.0936 82.9934 56.9626 70.8602 56.9626L69.6677 56.9513C68.5498 54.2565 66.5121 52.0457 63.9172 50.7124C65.8668 51.091 68.1761 51.284 70.8602 51.284C80.385 51.284 84.9809 48.8952 85.7494 44.4092V38.9464C85.7494 38.1934 85.4502 37.4712 84.9178 36.9387C84.3853 36.4062 83.6631 36.1071 82.9101 36.1071H63.0351C63.0351 34.1158 62.6944 32.2002 62.0659 30.4247V30.4247ZM9.08866 30.4285L29.9328 30.4247C29.3982 31.9371 29.0809 33.5176 28.9902 35.119L28.9637 36.1071H9.08866C8.33563 36.1071 7.61345 36.4062 7.08098 36.9387C6.54851 37.4712 6.24937 38.1934 6.24937 38.9464V44.3221C7.30937 48.865 12.1172 51.284 21.6459 51.284C24.0006 51.284 26.0524 51.1364 27.8242 50.8487C25.3462 52.1952 23.4048 54.3504 22.3235 56.955L21.6421 56.9626C9.55809 56.9626 2.21001 53.139 0.623801 45.1815L0.570801 44.625V38.9464C0.570801 36.6873 1.46822 34.5208 3.06562 32.9234C4.66303 31.326 6.82958 30.4285 9.08866 30.4285V30.4285ZM45.9994 22.8571C49.5135 22.8571 52.8837 24.2531 55.3685 26.7379C57.8534 29.2228 59.2494 32.593 59.2494 36.1071C59.2494 39.6212 57.8534 42.9914 55.3685 45.4763C52.8837 47.9611 49.5135 49.3571 45.9994 49.3571C42.4853 49.3571 39.1151 47.9611 36.6302 45.4763C34.1453 42.9914 32.7494 39.6212 32.7494 36.1071C32.7494 32.593 34.1453 29.2228 36.6302 26.7379C39.1151 24.2531 42.4853 22.8571 45.9994 22.8571ZM45.9994 28.5357C43.9913 28.5357 42.0655 29.3334 40.6456 30.7533C39.2256 32.1732 38.4279 34.099 38.4279 36.1071C38.4279 38.1152 39.2256 40.041 40.6456 41.4609C42.0655 42.8808 43.9913 43.6785 45.9994 43.6785C48.0074 43.6785 49.9333 42.8808 51.3532 41.4609C52.7731 40.041 53.5708 38.1152 53.5708 36.1071C53.5708 34.099 52.7731 32.1732 51.3532 30.7533C49.9333 29.3334 48.0074 28.5357 45.9994 28.5357ZM70.6065 0.142822C74.1206 0.142822 77.4908 1.5388 79.9757 4.02366C82.4605 6.50851 83.8565 9.8787 83.8565 13.3928C83.8565 16.9069 82.4605 20.2771 79.9757 22.762C77.4908 25.2468 74.1206 26.6428 70.6065 26.6428C67.0924 26.6428 63.7222 25.2468 61.2373 22.762C58.7525 20.2771 57.3565 16.9069 57.3565 13.3928C57.3565 9.8787 58.7525 6.50851 61.2373 4.02366C63.7222 1.5388 67.0924 0.142822 70.6065 0.142822V0.142822ZM21.3922 0.142822C24.9063 0.142822 28.2765 1.5388 30.7614 4.02366C33.2462 6.50851 34.6422 9.8787 34.6422 13.3928C34.6422 16.9069 33.2462 20.2771 30.7614 22.762C28.2765 25.2468 24.9063 26.6428 21.3922 26.6428C17.8781 26.6428 14.5079 25.2468 12.0231 22.762C9.53821 20.2771 8.14223 16.9069 8.14223 13.3928C8.14223 9.8787 9.53821 6.50851 12.0231 4.02366C14.5079 1.5388 17.8781 0.142822 21.3922 0.142822V0.142822ZM70.6065 5.82139C68.5984 5.82139 66.6726 6.61909 65.2527 8.03901C63.8328 9.45893 63.0351 11.3848 63.0351 13.3928C63.0351 15.4009 63.8328 17.3267 65.2527 18.7466C66.6726 20.1665 68.5984 20.9643 70.6065 20.9643C72.6146 20.9643 74.5404 20.1665 75.9603 18.7466C77.3802 17.3267 78.1779 15.4009 78.1779 13.3928C78.1779 11.3848 77.3802 9.45893 75.9603 8.03901C74.5404 6.61909 72.6146 5.82139 70.6065 5.82139V5.82139ZM21.3922 5.82139C19.3842 5.82139 17.4583 6.61909 16.0384 8.03901C14.6185 9.45893 13.8208 11.3848 13.8208 13.3928C13.8208 15.4009 14.6185 17.3267 16.0384 18.7466C17.4583 20.1665 19.3842 20.9643 21.3922 20.9643C23.4003 20.9643 25.3261 20.1665 26.746 18.7466C28.166 17.3267 28.9637 15.4009 28.9637 13.3928C28.9637 11.3848 28.166 9.45893 26.746 8.03901C25.3261 6.61909 23.4003 5.82139 21.3922 5.82139V5.82139Z" fill="rgba(0, 0, 0, .1)"/>
</svg>
