<svg class="mx-auto" width="77" height="66" viewBox="0 0 77 66" fill="none" xmlns="http://www.w3.org/2000/svg">
    <g id="haicon" transform="scale(0.5)">
      <g transform="translate(-36.052972,-45.318408)">
          <path
            fill-rule="evenodd"
            clip-rule="evenodd"
            d="M 45.577973,45.318408 H 158.81964 c 5.2652,0 9.525,4.259791 9.525,9.525 V 168.08508 c 0,5.2652 -4.2598,9.525 -9.525,9.525 H 45.577973 c -5.265208,0 -9.525,-4.2598 -9.525,-9.525 V 54.843408 c 0,-5.265209 4.259792,-9.525 9.525,-9.525 z"
            fill="#03a9f4"
            id="path9"
            style="stroke-width:0.264583" />
          <path
            fill-rule="evenodd"
            clip-rule="evenodd"
            d="m 104.18318,156.44341 7.69938,-7.67292 h 7.09083 c 0.55562,1.53459 2.01083,2.64584 3.75708,2.64584 2.19604,0 3.96875,-1.77271 3.96875,-3.96875 0,-2.19605 -1.77271,-3.96875 -3.96875,-3.96875 -1.71979,0 -3.20146,1.11125 -3.75708,2.64583 h -8.20208 l -7.14375,7.11729 v -8.70479 l 8.49312,-8.49313 h 13.73188 c 0.55562,1.53459 2.01083,2.64584 3.75708,2.64584 2.19604,0 3.96875,-1.77271 3.96875,-3.96875 0,-2.19604 -1.77271,-3.96875 -3.96875,-3.96875 -1.71979,0 -3.20146,1.11125 -3.75708,2.64583 h -11.08605 l 7.9375,-7.91104 v -6.61458 l 5.715,-5.68855 c 0.52917,0.23813 1.11125,0.39688 1.7198,0.39688 2.19604,0 3.96875,-1.77271 3.96875,-3.96875 0,-2.19604 -1.77271,-3.96875 -3.96875,-3.96875 -2.19605,0 -3.96875,1.77271 -3.96875,3.96875 0,0.60854 0.13229,1.19062 0.39687,1.71979 l -3.83646,3.83646 v -12.11792 c 1.53459,-0.55562 2.64584,-2.01083 2.64584,-3.730624 0,-2.196041 -1.77271,-3.96875 -3.96875,-3.96875 -2.19605,0 -3.96875,1.772709 -3.96875,3.96875 0,1.719794 1.11125,3.201464 2.64583,3.730624 v 12.11792 l -3.83646,-3.83646 c 0.23813,-0.52917 0.39688,-1.11125 0.39688,-1.71979 0,-2.19604 -1.77271,-3.96875 -3.96875,-3.96875 -2.19605,0 -3.96875,1.77271 -3.96875,3.96875 0,2.19604 1.7727,3.96875 3.96875,3.96875 0.60854,0 1.19062,-0.13229 1.71979,-0.39688 l 5.715,5.68855 v 5.52979 l -7.14375,7.14375 v -5.23875 c 1.53458,-0.55563 2.64583,-2.01084 2.64583,-3.73063 0,-2.19604 -1.77271,-3.96875 -3.96875,-3.96875 -2.19604,0 -3.96875,1.77271 -3.96875,3.96875 0,1.71979 1.11125,3.20146 2.64583,3.73063 v 7.88458 l -6.61458,6.61458 V 101.9657 l 5.45042,-5.423959 c 0.52916,0.238125 1.11125,0.396875 1.71979,0.396875 2.19604,0 3.96875,-1.772708 3.96875,-3.96875 0,-2.196041 -1.77271,-3.96875 -3.96875,-3.96875 -2.19604,0 -3.96875,1.772709 -3.96875,3.96875 0,0.608542 0.13229,1.190625 0.39687,1.719792 l -4.89479,4.894792 -4.894789,-4.894792 c 0.238125,-0.529167 0.396875,-1.11125 0.396875,-1.719792 0,-2.196041 -1.772708,-3.96875 -3.96875,-3.96875 -2.196041,0 -3.96875,1.772709 -3.96875,3.96875 0,2.196042 1.772709,3.96875 3.96875,3.96875 0.608542,0 1.190625,-0.132291 1.719792,-0.396875 l 5.450412,5.423959 v 27.75479 l -9.551454,-9.525 v -7.62 c 1.534584,-0.55562 2.645834,-2.01083 2.645834,-3.73062 0,-2.19604 -1.772709,-3.96875 -3.96875,-3.96875 -2.196042,0 -3.96875,1.77271 -3.96875,3.96875 0,1.71979 1.11125,3.20146 2.645833,3.73062 v 4.97417 l -7.434792,-7.40833 v -7.35542 c 1.534584,-0.55563 2.645834,-2.01083 2.645834,-3.730627 0,-2.196042 -1.772709,-3.96875 -3.96875,-3.96875 -2.196042,0 -3.96875,1.772708 -3.96875,3.96875 0,1.719797 1.11125,3.201457 2.645833,3.730627 v 8.44021 l 8.202083,8.17562 h -4.709583 c -0.555625,-1.53458 -2.010833,-2.64583 -3.757083,-2.64583 -2.196042,0 -3.96875,1.77271 -3.96875,3.96875 0,2.19604 1.772708,3.96875 3.96875,3.96875 1.719791,0 3.201458,-1.11125 3.757083,-2.64583 h 7.355417 l 11.403545,11.40354 v 19.81729 l -6.08542,-6.08542 v -7.62 c 1.534583,-0.55562 2.645833,-2.01083 2.645833,-3.73062 0,-2.19604 -1.772708,-3.96875 -3.96875,-3.96875 -2.196042,0 -3.96875,1.77271 -3.96875,3.96875 0,1.71979 1.11125,3.20146 2.645833,3.73062 v 4.97417 l -8.863541,-8.86354 c 0.238125,-0.52917 0.396875,-1.11125 0.396875,-1.71979 0,-2.19605 -1.772709,-3.96875 -3.96875,-3.96875 -2.196042,0 -3.96875,1.7727 -3.96875,3.96875 0,2.19604 1.772708,3.96875 3.96875,3.96875 0.608541,0 1.190625,-0.1323 1.719791,-0.39688 l 8.863542,8.86354 H 85.79464 c -0.555625,-1.53458 -2.010834,-2.64583 -3.757084,-2.64583 -2.196041,0 -3.96875,1.77271 -3.96875,3.96875 0,2.19604 1.772709,3.96875 3.96875,3.96875 1.719792,0 3.201459,-1.11125 3.757084,-2.64583 h 7.355416 l 7.434794,7.40833 H 63.701931 c -1.137708,0 -2.06375,-0.92604 -2.06375,-2.06375 v -35.2425 h -9.36625 c -1.375833,0 -2.460625,-1.11125 -2.460625,-2.46063 0,-0.66145 0.264584,-1.27 0.714375,-1.74625 L 100.13506,64.738825 c 1.19062,-1.217084 3.14854,-1.217084 4.36562,-0.02646 l 0.0265,0.02646 25.90271,26.087916 v -4.815416 c 0,-1.137709 0.92604,-2.06375 2.06375,-2.06375 h 8.59895 c 1.13771,0 2.06375,0.926041 2.06375,2.06375 v 17.700625 l 11.00667,11.21833 c 0.9525,0.97896 0.9525,2.54 -0.0265,3.4925 -0.44979,0.4498 -1.08479,0.71438 -1.71979,0.71438 h -9.23396 v 35.2425 c 0,1.13771 -0.92604,2.06375 -2.06375,2.06375 z m -22.277915,-7.14375 c -0.873125,0 -1.5875,-0.71438 -1.5875,-1.5875 0,-0.87313 0.714375,-1.5875 1.5875,-1.5875 0.873125,0 1.5875,0.71437 1.5875,1.5875 0,0.87312 -0.714375,1.5875 -1.5875,1.5875 z M 93.57339,137.39341 c -0.873125,0 -1.5875,-0.71438 -1.5875,-1.5875 0,-0.87313 0.714375,-1.5875 1.5875,-1.5875 0.873125,0 1.5875,0.71437 1.5875,1.5875 0,0.87312 -0.714375,1.5875 -1.5875,1.5875 z m -13.784792,-1.85208 c -0.873125,0 -1.5875,-0.71438 -1.5875,-1.5875 0,-0.87313 0.714375,-1.5875 1.5875,-1.5875 0.873125,0 1.5875,0.71437 1.5875,1.5875 0,0.87312 -0.714375,1.5875 -1.5875,1.5875 z m -1.322917,-13.22917 c -0.873125,0 -1.5875,-0.71438 -1.5875,-1.5875 0,-0.87313 0.714375,-1.5875 1.5875,-1.5875 0.873125,0 1.5875,0.71437 1.5875,1.5875 0,0.87312 -0.714375,1.5875 -1.5875,1.5875 z m 33.125829,1.85208 c -0.87312,0 -1.5875,-0.71437 -1.5875,-1.5875 0,-0.87312 0.71438,-1.5875 1.5875,-1.5875 0.87313,0 1.5875,0.71438 1.5875,1.5875 0,0.87313 -0.71437,1.5875 -1.5875,1.5875 z m 18.01813,12.17084 c -0.87313,0 -1.5875,-0.71438 -1.5875,-1.5875 0,-0.87313 0.71437,-1.5875 1.5875,-1.5875 0.87312,0 1.5875,0.71437 1.5875,1.5875 0,0.87312 -0.71438,1.5875 -1.5875,1.5875 z m -6.87917,12.7 c -0.87312,0 -1.5875,-0.71438 -1.5875,-1.5875 0,-0.87313 0.71438,-1.5875 1.5875,-1.5875 0.87313,0 1.5875,0.71437 1.5875,1.5875 0,0.87312 -0.71437,1.5875 -1.5875,1.5875 z m 7.40834,-37.83542 c -0.87313,0 -1.5875,-0.71438 -1.5875,-1.5875 0,-0.87313 0.71437,-1.5875 1.5875,-1.5875 0.87312,0 1.5875,0.71437 1.5875,1.5875 0,0.87312 -0.71438,1.5875 -1.5875,1.5875 z m -8.73125,-10.31875 c -0.87313,0 -1.5875,-0.71438 -1.5875,-1.587502 0,-0.873125 0.71437,-1.5875 1.5875,-1.5875 0.87312,0 1.5875,0.714375 1.5875,1.5875 0,0.873122 -0.71438,1.587502 -1.5875,1.587502 z m -10.6098,-6.350002 c -0.87312,0 -1.5875,-0.714375 -1.5875,-1.5875 0,-0.873125 0.71438,-1.5875 1.5875,-1.5875 0.87313,0 1.5875,0.714375 1.5875,1.5875 0,0.873125 -0.71437,1.5875 -1.5875,1.5875 z m -16.959787,0 c -0.873125,0 -1.5875,-0.714375 -1.5875,-1.5875 0,-0.873125 0.714375,-1.5875 1.5875,-1.5875 0.873125,0 1.5875,0.714375 1.5875,1.5875 0,0.873125 -0.714375,1.5875 -1.5875,1.5875 z m -13.784792,6.085422 c -0.873125,0 -1.5875,-0.71438 -1.5875,-1.587505 0,-0.873125 0.714375,-1.5875 1.5875,-1.5875 0.873125,0 1.5875,0.714375 1.5875,1.5875 0,0.873125 -0.714375,1.587505 -1.5875,1.587505 z m 10.054167,9.78958 c -0.873125,0 -1.5875,-0.71438 -1.5875,-1.5875 0,-0.87313 0.714375,-1.5875 1.5875,-1.5875 0.873125,0 1.5875,0.71437 1.5875,1.5875 0.02646,0.87312 -0.687917,1.5875 -1.5875,1.5875 z m 22.542502,0.79375 c -0.87313,0 -1.5875,-0.71438 -1.5875,-1.5875 0,-0.87313 0.71437,-1.5875 1.5875,-1.5875 0.87312,0 1.5875,0.71437 1.5875,1.5875 0,0.87312 -0.71438,1.5875 -1.5875,1.5875 z" fill="#ffffff" id="path11"
            style="stroke-width:0.264583"/>
        </g>
    </g>
  </svg>