<svg width="103" height="95" viewBox="0 0 103 95" fill="none" xmlns="http://www.w3.org/2000/svg">
<path d="M27.8003 72.0024L34.2065 63.9972L13.5835 47.4998L34.2065 31.0024L27.8003 22.9972L2.17526 43.4972C1.57484 43.9773 1.09013 44.5864 0.757031 45.2792C0.423931 45.9721 0.250977 46.731 0.250977 47.4998C0.250977 48.2686 0.423931 49.0275 0.757031 49.7204C1.09013 50.4133 1.57484 51.0223 2.17526 51.5024L27.8003 72.0024ZM75.2065 22.9972L68.8003 31.0024L89.4233 47.4998L68.8003 63.9972L75.2065 72.0024L100.832 51.5024C101.432 51.0223 101.917 50.4133 102.25 49.7204C102.583 49.0275 102.756 48.2686 102.756 47.4998C102.756 46.731 102.583 45.9721 102.25 45.2792C101.917 44.5864 101.432 43.9773 100.832 43.4972L75.2065 22.9972ZM66.7554 2.48182L46.2554 94.7318L36.2463 92.5076L56.7463 0.257568L66.7554 2.48182Z" fill="rgba(0, 0, 0, .1)"/>
</svg>
