<svg width="115" height="74" viewBox="0 0 115 74" fill="none" xmlns="http://www.w3.org/2000/svg">
<path opacity="0.1" d="M9.2 72V15.8H2.83122e-07L3.7 2H23V72H9.2ZM59.3609 73.3C55.3276 73.3 51.6443 72.3667 48.3109 70.5C44.9776 68.6 42.0776 65.9833 39.6109 62.65C37.1776 59.3167 35.2943 55.4667 33.9609 51.1C32.6276 46.7 31.9609 42 31.9609 37C31.9609 32 32.6276 27.3167 33.9609 22.95C35.2943 18.55 37.1776 14.6833 39.6109 11.35C42.0776 8.01666 44.9776 5.41666 48.3109 3.55C51.6443 1.64999 55.3276 0.699994 59.3609 0.699994C63.3943 0.699994 67.0776 1.64999 70.4109 3.55C73.7443 5.41666 76.6109 8.01666 79.0109 11.35C81.4443 14.6833 83.3276 18.55 84.6609 22.95C85.9943 27.3167 86.6609 32 86.6609 37C86.6609 42 85.9943 46.7 84.6609 51.1C83.3276 55.4667 81.4443 59.3167 79.0109 62.65C76.6109 65.9833 73.7443 68.6 70.4109 70.5C67.0776 72.3667 63.3943 73.3 59.3609 73.3ZM59.3609 59.5C62.6609 59.5 65.3776 58.4333 67.5109 56.3C69.6443 54.1667 71.2109 51.3833 72.2109 47.95C73.2443 44.5167 73.7609 40.8667 73.7609 37C73.7609 32.9 73.2109 29.15 72.1109 25.75C71.0443 22.35 69.4443 19.6333 67.3109 17.6C65.1776 15.5333 62.5276 14.5 59.3609 14.5C56.8609 14.5 54.6943 15.1167 52.8609 16.35C51.0609 17.5833 49.5609 19.2667 48.3609 21.4C47.1943 23.5333 46.3109 25.95 45.7109 28.65C45.1443 31.3167 44.8609 34.1 44.8609 37C44.8609 40.8667 45.3776 44.5167 46.4109 47.95C47.4776 51.35 49.0776 54.1333 51.2109 56.3C53.3776 58.4333 56.0943 59.5 59.3609 59.5ZM100.903 72V15.8H91.7031L95.4031 2H114.703V72H100.903Z" fill="black"/>
</svg>
