<svg width="22" height="22" viewBox="0 0 22 22" fill="none" xmlns="http://www.w3.org/2000/svg">
<path fill-rule="evenodd" clip-rule="evenodd" d="M11 1.83333C5.93739 1.83333 1.83333 5.93739 1.83333 11C1.83333 16.0626 5.93739 20.1667 11 20.1667C16.0626 20.1667 20.1667 16.0626 20.1667 11C20.1667 5.93739 16.0626 1.83333 11 1.83333ZM0 11C0 4.92488 4.92488 0 11 0C17.0751 0 22 4.92488 22 11C22 17.0751 17.0751 22 11 22C4.92488 22 0 17.0751 0 11Z" fill="black"/>
<path fill-rule="evenodd" clip-rule="evenodd" d="M8.7922 20.8411C8.70356 20.7267 8.70356 19.7071 8.7922 17.7824C7.84262 17.8152 7.24266 17.7493 6.99232 17.5847C6.61686 17.3378 6.24093 16.5764 5.9074 16.0398C5.57387 15.5031 4.83357 15.4183 4.53465 15.2984C4.23571 15.1784 4.16067 14.6894 5.35836 15.0592C6.55608 15.429 6.61447 16.4361 6.99232 16.6716C7.37017 16.9071 8.27345 16.8041 8.68293 16.6154C9.09236 16.4268 9.06225 15.7244 9.13526 15.4461C9.22757 15.1864 8.9022 15.1288 8.89505 15.1267C8.49533 15.1267 6.39543 14.67 5.81862 12.6365C5.24186 10.6031 5.98486 9.27394 6.38123 8.70258C6.64546 8.32166 6.62208 7.50986 6.3111 6.26709C7.44025 6.12281 8.31159 6.4782 8.9252 7.33336C8.9258 7.33826 9.72963 6.85536 11 6.85536C12.2704 6.85536 12.7211 7.2487 13.0689 7.33336C13.4167 7.41801 13.6949 5.83644 15.843 6.26709C15.3945 7.14856 15.0189 8.25002 15.3056 8.70258C15.5923 9.15514 16.7173 10.5942 16.0263 12.6365C15.5655 13.9981 14.6598 14.8281 13.3092 15.1267C13.1542 15.1761 13.0768 15.2558 13.0768 15.3658C13.0768 15.5309 13.2862 15.5489 13.5879 16.322C13.7889 16.8374 13.8035 18.3095 13.6314 20.7382C13.1956 20.8491 12.8565 20.9236 12.6142 20.9617C12.1846 21.0292 11.7181 21.0671 11.2597 21.0817C10.8013 21.0963 10.6422 21.0947 10.0085 21.0357C9.58608 20.9964 9.18063 20.9315 8.7922 20.8411Z" fill="black"/>
</svg>
