<svg width="20" height="18" viewBox="0 0 18 18" fill="none" xmlns="http://www.w3.org/2000/svg">
    <path d="M5.5625 16.1875C3.6875 16.8125 1.8125 15.5625 1.1875 14.9375M6.1875 16.8125C6.1875 16.8125 5.5625 14.3125 6.8125 13.0625C6.8125 13.0625 4.3125 13.0625 2.4375 11.1875C0.5625 9.3125 1.1875 5.5625 2.4375 4.3125C1.8125 2.4375 3.0625 1.1875 3.0625 1.1875C3.0625 1.1875 4.9375 1.1875 6.1875 2.4375C7.4375 1.8125 10.5625 1.8125 11.8125 2.4375C13.0625 1.1875 14.9375 1.1875 14.9375 1.1875C14.9375 1.1875 16.1875 2.4375 15.5625 4.3125C16.8125 5.5625 17.4375 9.3125 15.5625 11.1875C13.6875 13.0625 11.1875 13.0625 11.1875 13.0625C12.4375 14.3125 11.8125 16.8125 11.8125 16.8125H6.1875Z" stroke="black" stroke-width="1.875" stroke-linecap="round" stroke-linejoin="round" />
</svg>