<svg width="28" height="28" viewBox="0 0 28 28" fill="none" xmlns="http://www.w3.org/2000/svg">
<path d="M14 0.666504C6.64002 0.666504 0.666687 6.63984 0.666687 13.9998C0.666687 21.3598 6.64002 27.3332 14 27.3332C21.36 27.3332 27.3334 21.3598 27.3334 13.9998C27.3334 6.63984 21.36 0.666504 14 0.666504ZM10.3867 19.7198L5.60002 14.9332C5.47658 14.8097 5.37866 14.6632 5.31185 14.5019C5.24504 14.3406 5.21066 14.1677 5.21066 13.9932C5.21066 13.8186 5.24504 13.6457 5.31185 13.4844C5.37866 13.3232 5.47658 13.1766 5.60002 13.0532C5.72346 12.9297 5.87001 12.8318 6.0313 12.765C6.19258 12.6982 6.36545 12.6638 6.54002 12.6638C6.71459 12.6638 6.88746 12.6982 7.04874 12.765C7.21003 12.8318 7.35658 12.9297 7.48002 13.0532L11.3334 16.8932L20.5067 7.71984C20.756 7.47053 21.0941 7.33048 21.4467 7.33048C21.7993 7.33048 22.1374 7.47053 22.3867 7.71984C22.636 7.96914 22.776 8.30727 22.776 8.65984C22.776 9.01241 22.636 9.35053 22.3867 9.59984L12.2667 19.7198C12.1433 19.8434 11.9968 19.9415 11.8355 20.0084C11.6742 20.0753 11.5013 20.1098 11.3267 20.1098C11.1521 20.1098 10.9792 20.0753 10.8179 20.0084C10.6566 19.9415 10.51 19.8434 10.3867 19.7198Z" fill="#5ACF96"/>
</svg>
