<?xml version="1.0" encoding="UTF-8" standalone="no"?>
<!-- Created with Inkscape (http://www.inkscape.org/) -->

<svg
   width="132.29166mm"
   height="132.29167mm"
   viewBox="0 0 132.29166 132.29167"
   version="1.1"
   id="svg5"
   xmlns:inkscape="http://www.inkscape.org/namespaces/inkscape"
   xmlns:sodipodi="http://sodipodi.sourceforge.net/DTD/sodipodi-0.dtd"
   xmlns="http://www.w3.org/2000/svg"
   xmlns:svg="http://www.w3.org/2000/svg">
  <sodipodi:namedview
     id="namedview7"
     pagecolor="#ffffff"
     bordercolor="#666666"
     borderopacity="1.0"
     inkscape:showpageshadow="2"
     inkscape:pageopacity="0.0"
     inkscape:pagecheckerboard="0"
     inkscape:deskcolor="#d1d1d1"
     inkscape:document-units="mm"
     showgrid="false" />
  <defs
     id="defs2">
    <filter
       id="filter0_d_0_1"
       x="166"
       y="200.937"
       width="469.08801"
       height="422.06299"
       filterUnits="userSpaceOnUse"
       color-interpolation-filters="sRGB">
      <feFlood
         flood-opacity="0"
         result="BackgroundImageFix"
         id="feFlood184" />
      <feColorMatrix
         in="SourceAlpha"
         type="matrix"
         values="0 0 0 0 0 0 0 0 0 0 0 0 0 0 0 0 0 0 127 0"
         result="hardAlpha"
         id="feColorMatrix186" />
      <feOffset
         dy="17"
         id="feOffset188" />
      <feGaussianBlur
         stdDeviation="18"
         id="feGaussianBlur190" />
      <feComposite
         in2="hardAlpha"
         operator="out"
         id="feComposite192" />
      <feColorMatrix
         type="matrix"
         values="0 0 0 0 0 0 0 0 0 0 0 0 0 0 0 0 0 0 0.2 0"
         id="feColorMatrix194" />
      <feBlend
         mode="normal"
         in2="BackgroundImageFix"
         result="effect1_dropShadow_0_1"
         id="feBlend196" />
      <feBlend
         mode="normal"
         in="SourceGraphic"
         in2="effect1_dropShadow_0_1"
         result="shape"
         id="feBlend198" />
    </filter>
  </defs>
  <g
     inkscape:label="Layer 1"
     inkscape:groupmode="layer"
     id="layer1"
     transform="translate(19.007569,-110.26117)">
    <path
       fill-rule="evenodd"
       clip-rule="evenodd"
       d="M -9.4825685,110.26118 H 103.7591 c 5.2652,0 9.525,4.25979 9.525,9.525 v 113.24167 c 0,5.2652 -4.2598,9.525 -9.525,9.525 H -9.4825685 c -5.2652085,0 -9.5250005,-4.2598 -9.5250005,-9.525 V 119.78618 c 0,-5.26521 4.259792,-9.525 9.5250005,-9.525 z"
       fill="#03a9f4"
       id="path178"
       style="stroke-width:0.264583" />
    <g
       filter="url(#filter0_d_0_1)"
       id="g182"
       transform="matrix(0.26458333,0,0,0.26458333,-58.695069,70.573675)">
      <path
         fill-rule="evenodd"
         clip-rule="evenodd"
         d="m 407.5,570 29.1,-29 h 26.8 c 2.1,5.8 7.6,10 14.2,10 8.3,0 15,-6.7 15,-15 0,-8.3 -6.7,-15 -15,-15 -6.5,0 -12.1,4.2 -14.2,10 h -31 l -27,26.9 V 525 l 32.1,-32.1 h 51.9 c 2.1,5.8 7.6,10 14.2,10 8.3,0 15,-6.7 15,-15 0,-8.3 -6.7,-15 -15,-15 -6.5,0 -12.1,4.2 -14.2,10 h -41.9 l 30,-29.9 v -25 l 21.6,-21.5 c 2,0.9 4.2,1.5 6.5,1.5 8.3,0 15,-6.7 15,-15 0,-8.3 -6.7,-15 -15,-15 -8.3,0 -15,6.7 -15,15 0,2.3 0.5,4.5 1.5,6.5 L 477.6,414 v -45.8 c 5.8,-2.1 10,-7.6 10,-14.1 0,-8.3 -6.7,-15 -15,-15 -8.3,0 -15,6.7 -15,15 0,6.5 4.2,12.1 10,14.1 V 414 l -14.5,-14.5 c 0.9,-2 1.5,-4.2 1.5,-6.5 0,-8.3 -6.7,-15 -15,-15 -8.3,0 -15,6.7 -15,15 0,8.3 6.7,15 15,15 2.3,0 4.5,-0.5 6.5,-1.5 l 21.6,21.5 v 20.9 l -27,27 v -19.8 c 5.8,-2.1 10,-7.6 10,-14.1 0,-8.3 -6.7,-15 -15,-15 -8.3,0 -15,6.7 -15,15 0,6.5 4.2,12.1 10,14.1 v 29.8 l -25,25 V 364.1 l 20.6,-20.5 c 2,0.9 4.2,1.5 6.5,1.5 8.3,0 15,-6.7 15,-15 0,-8.3 -6.7,-15 -15,-15 -8.3,0 -15,6.7 -15,15 0,2.3 0.5,4.5 1.5,6.5 l -18.5,18.5 -18.5,-18.5 c 0.9,-2 1.5,-4.2 1.5,-6.5 0,-8.3 -6.7,-15 -15,-15 -8.3,0 -15,6.7 -15,15 0,8.3 6.7,15 15,15 2.3,0 4.5,-0.5 6.5,-1.5 l 20.6,20.5 V 469 l -36.1,-36 v -28.8 c 5.8,-2.1 10,-7.6 10,-14.1 0,-8.3 -6.7,-15 -15,-15 -8.3,0 -15,6.7 -15,15 0,6.5 4.2,12.1 10,14.1 V 423 l -28.1,-28 v -27.8 c 5.8,-2.1 10,-7.6 10,-14.1 0,-8.3 -6.7,-15 -15,-15 -8.3,0 -15,6.7 -15,15 0,6.5 4.2,12.1 10,14.1 v 31.9 l 31,30.9 h -17.8 c -2.1,-5.8 -7.6,-10 -14.2,-10 -8.3,0 -15,6.7 -15,15 0,8.3 6.7,15 15,15 6.5,0 12.1,-4.2 14.2,-10 h 27.8 l 43.1,43.1 V 558 l -23,-23 v -28.8 c 5.8,-2.1 10,-7.6 10,-14.1 0,-8.3 -6.7,-15 -15,-15 -8.3,0 -15,6.7 -15,15 0,6.5 4.2,12.1 10,14.1 V 525 l -33.5,-33.5 c 0.9,-2 1.5,-4.2 1.5,-6.5 0,-8.3 -6.7,-15 -15,-15 -8.3,0 -15,6.7 -15,15 0,8.3 6.7,15 15,15 2.3,0 4.5,-0.5 6.5,-1.5 L 355.8,532 H 338 c -2.1,-5.8 -7.6,-10 -14.2,-10 -8.3,0 -15,6.7 -15,15 0,8.3 6.7,15 15,15 6.5,0 12.1,-4.2 14.2,-10 h 27.8 l 28.1,28 H 254.5 c -4.3,0 -7.8,-3.5 -7.8,-7.8 V 429 h -35.4 c -5.2,0 -9.3,-4.2 -9.3,-9.3 0,-2.5 1,-4.8 2.7,-6.6 L 392.2,223.4 c 4.5,-4.6 11.9,-4.6 16.5,-0.1 l 0.1,0.1 97.9,98.6 v -18.2 c 0,-4.3 3.5,-7.8 7.8,-7.8 H 547 c 4.3,0 7.8,3.5 7.8,7.8 v 66.9 l 41.6,42.4 c 3.6,3.7 3.6,9.6 -0.1,13.2 -1.7,1.7 -4.1,2.7 -6.5,2.7 h -34.9 v 133.2 c 0,4.3 -3.5,7.8 -7.8,7.8 z m -84.2,-27 c -3.3,0 -6,-2.7 -6,-6 0,-3.3 2.7,-6 6,-6 3.3,0 6,2.7 6,6 0,3.3 -2.7,6 -6,6 z m 44.1,-45 c -3.3,0 -6,-2.7 -6,-6 0,-3.3 2.7,-6 6,-6 3.3,0 6,2.7 6,6 0,3.3 -2.7,6 -6,6 z m -52.1,-7 c -3.3,0 -6,-2.7 -6,-6 0,-3.3 2.7,-6 6,-6 3.3,0 6,2.7 6,6 0,3.3 -2.7,6 -6,6 z m -5,-50 c -3.3,0 -6,-2.7 -6,-6 0,-3.3 2.7,-6 6,-6 3.3,0 6,2.7 6,6 0,3.3 -2.7,6 -6,6 z m 125.2,7 c -3.3,0 -6,-2.7 -6,-6 0,-3.3 2.7,-6 6,-6 3.3,0 6,2.7 6,6 0,3.3 -2.7,6 -6,6 z m 68.1,46 c -3.3,0 -6,-2.7 -6,-6 0,-3.3 2.7,-6 6,-6 3.3,0 6,2.7 6,6 0,3.3 -2.7,6 -6,6 z m -26,48 c -3.3,0 -6,-2.7 -6,-6 0,-3.3 2.7,-6 6,-6 3.3,0 6,2.7 6,6 0,3.3 -2.7,6 -6,6 z m 28,-143 c -3.3,0 -6,-2.7 -6,-6 0,-3.3 2.7,-6 6,-6 3.3,0 6,2.7 6,6 0,3.3 -2.7,6 -6,6 z m -33,-39 c -3.3,0 -6,-2.7 -6,-6 0,-3.3 2.7,-6 6,-6 3.3,0 6,2.7 6,6 0,3.3 -2.7,6 -6,6 z m -40.1,-24 c -3.3,0 -6,-2.7 -6,-6 0,-3.3 2.7,-6 6,-6 3.3,0 6,2.7 6,6 0,3.3 -2.7,6 -6,6 z m -64.1,0 c -3.3,0 -6,-2.7 -6,-6 0,-3.3 2.7,-6 6,-6 3.3,0 6,2.7 6,6 0,3.3 -2.7,6 -6,6 z m -52.1,23 c -3.3,0 -6,-2.7 -6,-6 0,-3.3 2.7,-6 6,-6 3.3,0 6,2.7 6,6 0,3.3 -2.7,6 -6,6 z m 38,37 c -3.3,0 -6,-2.7 -6,-6 0,-3.3 2.7,-6 6,-6 3.3,0 6,2.7 6,6 0.1,3.3 -2.6,6 -6,6 z m 85.2,3 c -3.3,0 -6,-2.7 -6,-6 0,-3.3 2.7,-6 6,-6 3.3,0 6,2.7 6,6 0,3.3 -2.7,6 -6,6 z"
         fill="#ffffff"
         id="path180" />
    </g>
  </g>
</svg>
