<svg width="127" height="127" viewBox="0 0 127 127" fill="none" xmlns="http://www.w3.org/2000/svg">
<g opacity="0.1">
<path d="M95.25 19.8438H31.75C25.1744 19.8438 19.8438 25.1744 19.8438 31.75V95.25C19.8438 101.826 25.1744 107.156 31.75 107.156H95.25C101.826 107.156 107.156 101.826 107.156 95.25V31.75C107.156 25.1744 101.826 19.8438 95.25 19.8438Z" stroke="black" stroke-width="7.9375" stroke-linejoin="round"/>
<path d="M87.3125 35.7188H39.6875C37.4956 35.7188 35.7188 37.4956 35.7188 39.6875V87.3125C35.7188 89.5044 37.4956 91.2812 39.6875 91.2812H87.3125C89.5044 91.2812 91.2812 89.5044 91.2812 87.3125V39.6875C91.2812 37.4956 89.5044 35.7188 87.3125 35.7188Z" stroke="black" stroke-width="7.9375" stroke-linejoin="round"/>
<path d="M11.9062 43.6562H19.8438M63.5 19.8438V11.9062V19.8438ZM83.3438 19.8438V11.9062V19.8438ZM43.6562 19.8438V11.9062V19.8438ZM63.5 115.094V107.156V115.094ZM83.3438 115.094V107.156V115.094ZM43.6562 115.094V107.156V115.094ZM107.156 63.5H115.094H107.156ZM107.156 83.3438H115.094H107.156ZM107.156 43.6562H115.094H107.156ZM11.9062 63.5H19.8438H11.9062ZM11.9062 83.3438H19.8438H11.9062Z" stroke="black" stroke-width="7.9375" stroke-linecap="round" stroke-linejoin="round"/>
</g>
</svg>
