<svg width="25" height="22" viewBox="0 0 25 22" fill="none" xmlns="http://www.w3.org/2000/svg">
<path d="M12.8125 15.625C14.3658 15.625 15.625 14.3658 15.625 12.8125C15.625 11.2592 14.3658 10 12.8125 10C11.2592 10 10 11.2592 10 12.8125C10 14.3658 11.2592 15.625 12.8125 15.625Z" fill="black"/>
<path fill-rule="evenodd" clip-rule="evenodd" d="M2.78255 12.6329V20.6889C2.78255 20.8133 2.83428 20.9325 2.92635 21.0205C3.01842 21.1084 3.14327 21.1578 3.27347 21.1578H21.718C21.8482 21.1578 21.9731 21.1084 22.0652 21.0205C22.1572 20.9325 22.209 20.8133 22.209 20.6889V12.6329H24.4109C24.5267 12.633 24.6401 12.6003 24.7366 12.5391C24.8332 12.4779 24.9087 12.3909 24.9537 12.2889C24.9988 12.1869 25.0113 12.0745 24.9897 11.9658C24.9682 11.857 24.9135 11.7567 24.8326 11.6775L22.209 9.10847V5.06138C22.209 4.9998 22.1963 4.93883 22.1716 4.88194C22.1469 4.82505 22.1107 4.77336 22.0651 4.72982C22.0196 4.68628 21.9654 4.65175 21.9059 4.62819C21.8463 4.60463 21.7824 4.59251 21.718 4.59252H19.6723C19.6079 4.59252 19.544 4.60464 19.4845 4.62821C19.4249 4.65177 19.3708 4.6863 19.3252 4.72984C19.2796 4.77338 19.2435 4.82507 19.2188 4.88195C19.1941 4.93884 19.1814 4.99981 19.1814 5.06138V6.16433L13.0211 0.208995L13.0136 0.201761C12.7235 -0.0705249 12.2574 -0.0667269 11.9723 0.210199L0.16901 11.6759C0.0876235 11.755 0.0325202 11.8552 0.0106048 11.9641C-0.0113297 12.073 0.000934508 12.1856 0.0457953 12.2878C0.0906752 12.3901 0.166187 12.4774 0.262833 12.5388C0.359478 12.6002 0.472965 12.6329 0.589046 12.6329H2.78255ZM18.125 12.8125C18.125 15.7465 15.7465 18.125 12.8125 18.125C9.87848 18.125 7.5 15.7465 7.5 12.8125C7.5 9.87849 9.87848 7.5 12.8125 7.5C15.7465 7.5 18.125 9.87849 18.125 12.8125Z" fill="black"/>
</svg>
