<?xml version="1.0" encoding="UTF-8"?>
<svg xmlns="http://www.w3.org/2000/svg" xmlns:xlink="http://www.w3.org/1999/xlink" width="20px" height="20px" viewBox="0 0 20 20" version="1.1">
<g id="surface1">
<path style=" stroke:none;fill-rule:nonzero;fill:rgb(0%,0%,0%);fill-opacity:1;" d="M 8.253906 11.148438 C 8.253906 11.882812 7.660156 12.476562 6.925781 12.476562 C 6.191406 12.476562 5.59375 11.882812 5.59375 11.148438 C 5.59375 10.414062 6.191406 9.820312 6.925781 9.820312 C 7.660156 9.820312 8.253906 10.414062 8.253906 11.148438 Z M 8.253906 11.148438 "/>
<path style=" stroke:none;fill-rule:nonzero;fill:rgb(0%,0%,0%);fill-opacity:1;" d="M 19.71875 10.074219 C 19.71875 8.429688 18.429688 7.09375 16.839844 7.09375 C 16.28125 7.09375 15.765625 7.265625 15.324219 7.546875 C 13.957031 6.753906 12.234375 6.257812 10.351562 6.191406 L 11.4375 3.078125 L 13.683594 3.613281 C 13.675781 3.6875 13.660156 3.761719 13.660156 3.835938 C 13.660156 5.074219 14.667969 6.082031 15.910156 6.082031 C 17.144531 6.082031 18.15625 5.078125 18.15625 3.835938 C 18.15625 2.597656 17.148438 1.589844 15.910156 1.589844 C 15.101562 1.589844 14.398438 2.019531 14.003906 2.660156 L 10.789062 1.894531 L 9.289062 6.199219 C 7.414062 6.292969 5.710938 6.816406 4.367188 7.632812 C 4.394531 7.613281 4.417969 7.59375 4.445312 7.574219 C 3.992188 7.273438 3.457031 7.09375 2.882812 7.09375 C 1.292969 7.09375 0 8.429688 0 10.070312 C 0 11.171875 0.585938 12.121094 1.445312 12.636719 C 1.796875 15.707031 5.457031 18.128906 9.914062 18.128906 C 14.398438 18.128906 18.078125 15.675781 18.386719 12.578125 C 19.1875 12.050781 19.71875 11.125 19.71875 10.074219 Z M 15.90625 2.589844 C 16.59375 2.589844 17.152344 3.152344 17.152344 3.839844 C 17.152344 4.523438 16.59375 5.085938 15.90625 5.085938 C 15.21875 5.085938 14.660156 4.523438 14.660156 3.839844 C 14.660156 3.148438 15.21875 2.589844 15.90625 2.589844 Z M 2.882812 8.09375 C 3.109375 8.09375 3.320312 8.144531 3.523438 8.222656 C 2.4375 9.09375 1.703125 10.1875 1.484375 11.394531 C 1.183594 11.042969 1 10.582031 1 10.074219 C 1 8.984375 1.84375 8.09375 2.882812 8.09375 Z M 9.914062 17.132812 C 5.773438 17.132812 2.410156 14.898438 2.410156 12.15625 C 2.410156 9.410156 5.773438 7.175781 9.914062 7.175781 C 14.050781 7.175781 17.414062 9.410156 17.414062 12.15625 C 17.414062 14.898438 14.050781 17.132812 9.914062 17.132812 Z M 18.316406 11.285156 C 18.070312 10.109375 17.339844 9.046875 16.269531 8.199219 C 16.453125 8.136719 16.640625 8.09375 16.839844 8.09375 C 17.875 8.09375 18.71875 8.980469 18.71875 10.074219 C 18.71875 10.53125 18.566406 10.949219 18.316406 11.285156 Z M 18.316406 11.285156 "/>
<path style=" stroke:none;fill-rule:nonzero;fill:rgb(0%,0%,0%);fill-opacity:1;" d="M 13.96875 11.148438 C 13.96875 11.882812 13.371094 12.476562 12.636719 12.476562 C 11.902344 12.476562 11.308594 11.882812 11.308594 11.148438 C 11.308594 10.414062 11.902344 9.820312 12.636719 9.820312 C 13.371094 9.820312 13.96875 10.414062 13.96875 11.148438 Z M 13.96875 11.148438 "/>
<path style=" stroke:none;fill-rule:nonzero;fill:rgb(0%,0%,0%);fill-opacity:1;" d="M 12.425781 14.101562 C 9.609375 15.960938 7.339844 14.207031 7.238281 14.128906 C 7.019531 13.957031 6.707031 13.992188 6.535156 14.203125 C 6.363281 14.421875 6.394531 14.734375 6.609375 14.90625 C 6.628906 14.921875 7.925781 15.945312 9.8125 15.945312 C 10.746094 15.945312 11.832031 15.691406 12.972656 14.9375 C 13.203125 14.785156 13.269531 14.472656 13.117188 14.246094 C 12.964844 14.011719 12.65625 13.949219 12.425781 14.101562 Z M 12.425781 14.101562 "/>
</g>
</svg>
