<svg width="20" height="20" viewBox="0 0 20 20" fill="none" xmlns="http://www.w3.org/2000/svg">
<path fill-rule="evenodd" clip-rule="evenodd" d="M7.60039 2.79985C6.32735 2.79985 5.10645 3.30556 4.20628 4.20573C3.3061 5.10591 2.80039 6.32681 2.80039 7.59985C2.80039 8.87288 3.3061 10.0938 4.20628 10.994C5.10645 11.8941 6.32735 12.3998 7.60039 12.3998C8.87343 12.3998 10.0943 11.8941 10.9945 10.994C11.8947 10.0938 12.4004 8.87288 12.4004 7.59985C12.4004 6.32681 11.8947 5.10591 10.9945 4.20573C10.0943 3.30556 8.87343 2.79985 7.60039 2.79985ZM0.400391 7.59985C0.400246 6.46669 0.667562 5.3495 1.1806 4.33914C1.69363 3.32877 2.4379 2.45376 3.35287 1.78528C4.26783 1.11679 5.32767 0.6737 6.44617 0.492045C7.56467 0.31039 8.71025 0.395299 9.78975 0.739866C10.8692 1.08443 11.8522 1.67893 12.6586 2.475C13.465 3.27107 14.0721 4.24625 14.4306 5.3212C14.7891 6.39616 14.8888 7.54056 14.7216 8.66131C14.5544 9.78206 14.125 10.8475 13.4684 11.771L19.2488 17.5514C19.4674 17.7778 19.5883 18.0809 19.5856 18.3955C19.5829 18.7102 19.4567 19.0111 19.2342 19.2336C19.0117 19.4561 18.7107 19.5823 18.3961 19.5851C18.0814 19.5878 17.7783 19.4668 17.552 19.2482L11.7728 13.469C10.6956 14.235 9.42841 14.6896 8.11 14.7832C6.7916 14.8767 5.47288 14.6056 4.29835 13.9994C3.12382 13.3932 2.13881 12.4755 1.45126 11.3467C0.763703 10.2179 0.400134 8.92157 0.400391 7.59985V7.59985Z" fill="black"/>
</svg>
