<svg width="643" height="546" viewBox="0 0 643 546" fill="none" xmlns="http://www.w3.org/2000/svg">
<path d="M489.858 127.771L489.858 127.771C489.125 129.463 488.745 131.28 488.745 133.118V156.379L335.878 8.59764L335.869 8.58942L335.677 8.40594L335.671 8.39994L335.665 8.39399C327.53 0.75683 314.488 0.861583 306.489 8.63148L306.489 8.63156L7.09559 299.464C4.74824 301.744 3.14799 304.647 2.51054 307.813C1.87236 310.98 2.23021 314.256 3.53231 317.223L3.53243 317.224C4.8347 320.19 7.01909 322.709 9.79653 324.473C12.5732 326.237 15.8247 327.173 19.1434 327.173H72.7826V529.516C72.7826 533.231 74.3288 536.774 77.0487 539.372L78.43 537.925L77.0487 539.372C79.7653 541.966 83.4307 543.409 87.2348 543.409H555.087C558.892 543.409 562.557 541.966 565.274 539.372C567.994 536.774 569.54 533.231 569.54 529.516V327.173H623.392C626.705 327.174 629.951 326.241 632.726 324.483C635.501 322.724 637.685 320.213 638.992 317.254C640.299 314.294 640.664 311.025 640.037 307.861C639.41 304.698 637.823 301.794 635.489 299.509L569.54 234.933V133.118C569.54 131.28 569.161 129.463 568.426 127.77C567.693 126.078 566.619 124.547 565.273 123.262L563.942 124.656L565.273 123.262C563.927 121.976 562.334 120.961 560.587 120.27C558.84 119.579 556.971 119.225 555.085 119.225H503.198C501.312 119.225 499.443 119.58 497.697 120.271C495.95 120.962 494.357 121.977 493.011 123.262C491.665 124.548 490.592 126.079 489.858 127.771ZM461.949 329.728C461.949 403.045 402.513 462.481 329.195 462.481C255.878 462.481 196.442 403.045 196.442 329.728C196.442 256.41 255.878 196.974 329.195 196.974C402.513 196.974 461.949 256.41 461.949 329.728ZM329.195 403.068C369.7 403.068 402.536 370.232 402.536 329.728C402.536 289.223 369.7 256.388 329.195 256.388C288.691 256.388 255.855 289.223 255.855 329.728C255.855 370.232 288.691 403.068 329.195 403.068Z" stroke="white" stroke-width="4"/>
</svg>
