<?xml version="1.0" encoding="UTF-8"?>
<svg id="Layer_2" data-name="Layer 2" xmlns="http://www.w3.org/2000/svg" viewBox="0 0 80 80.5">
  <defs>
    <style>
      .cls-1, .cls-2, .cls-3 {
        fill: none;
      }

      .cls-4 {
        fill: #14cc9e;
      }

      .cls-2 {
        stroke-width: 4px;
      }

      .cls-2, .cls-3 {
        stroke: #14cc9e;
        stroke-miterlimit: 10;
      }
    </style>
  </defs>
  <g id="Layer_2-2" data-name="Layer 2">
    <g>
      <g>
        <g>
          <path class="cls-2" d="m5.98,23.61v47.89c0,3.12,2.55,5.67,5.67,5.67s5.67-2.55,5.67-5.67V26.14c0-3.12,2.55-5.67,5.67-5.67h0c3.12,0,5.67,2.55,5.67,5.67v45.35c0,3.12,2.55,5.67,5.67,5.67s5.67-2.55,5.67-5.67V26.14c0-3.12,2.55-5.67,5.67-5.67h0c3.12,0,5.67,2.55,5.67,5.67v45.35c0,3.12,2.55,5.67,5.67,5.67s5.67-2.55,5.67-5.67V26.14c0-3.12,2.55-5.67,5.67-5.67h0c3.12,0,5.67,2.55,5.67,5.67v47.89"/>
          <rect class="cls-4" x="2.68" y="20.47" width="6.6" height="6.6"/>
          <rect class="cls-4" x="70.71" y="70.56" width="6.6" height="6.6"/>
        </g>
        <rect class="cls-3" x="3.15" y="17.64" width="5.67" height="5.67"/>
        <rect class="cls-3" x="71.18" y="74.33" width="5.67" height="5.67"/>
      </g>
      <rect class="cls-1" width="80" height="80"/>
    </g>
  </g>
</svg>