<svg xmlns="http://www.w3.org/2000/svg" viewBox="0 0 252.84 214.38"><defs><style>.cls-1{fill:#b1e2f8}.cls-2{fill:#174b62}.cls-3{fill:#fff}</style></defs><title>logo-text</title><g id="Layer_2" data-name="Layer 2"><g id="Layer_1-2" data-name="Layer 1"><path d="M218.27,75c0-.75.06-1.49.06-2.25A72.79,72.79,0,0,0,83.79,34.26a62.39,62.39,0,1,0-21.41,121H162.92V114.71H179.7v40.55h32.82A40.32,40.32,0,0,0,218.27,75Z" class="cls-1"/><path d="M212.1,91.65H194.89V59.79h4.36a3.91,3.91,0,0,0,0-7.81H69a3.91,3.91,0,0,0,0,7.81h4.36V91.65H56.16a3.91,3.91,0,0,0,0,7.82h4.35v55.79H162.92V114.71H179.7v40.55h28V99.47h4.36a3.91,3.91,0,1,0,0-7.82Z" class="cls-2"/><rect width="42.19" height="16.78" x="73.37" y="114.71" class="cls-3"/><rect width="16.78" height="16.8" x="139.08" y="67.35" class="cls-3"/><rect width="58.74" height="16.8" x="73.37" y="67.35" class="cls-3"/><rect width="16.78" height="16.8" x="162.92" y="67.35" class="cls-3"/><rect width="16.78" height="40.56" x="162.92" y="114.7" class="cls-3"/><path d="M16.84,214.1H12.57l-8.3-13.62V214.1H0V193.4H4.27l8.32,13.65V193.4h4.25Z"/><path d="M44.16,209.83H36.68l-1.43,4.27H30.72l7.71-20.7h4l7.75,20.7H45.59Zm-6.33-3.45H43l-2.6-7.75Z"/><path d="M63.71,214.1V193.4H71a13.66,13.66,0,0,1,3.22.34,6.77,6.77,0,0,1,2.42,1,4.65,4.65,0,0,1,1.5,1.77,5.64,5.64,0,0,1,.52,2.52,5.07,5.07,0,0,1-.18,1.36,4.23,4.23,0,0,1-.54,1.23,4.41,4.41,0,0,1-.91,1,4.63,4.63,0,0,1-1.33.76,4.46,4.46,0,0,1,1.56.69,4.21,4.21,0,0,1,1.68,2.4A5.59,5.59,0,0,1,79.1,208a5.46,5.46,0,0,1-1.94,4.55,8.68,8.68,0,0,1-5.52,1.54Zm4.27-12h3.16a3.87,3.87,0,0,0,2.43-.69,2.31,2.31,0,0,0,.79-1.88,2.39,2.39,0,0,0-.81-2,4.34,4.34,0,0,0-2.58-.62H68Zm0,3v5.59h3.66a4.35,4.35,0,0,0,1.42-.2,2.8,2.8,0,0,0,1-.57,2.21,2.21,0,0,0,.59-.86,2.83,2.83,0,0,0,.19-1.07,3.74,3.74,0,0,0-.17-1.2,2.23,2.23,0,0,0-.53-.91,2.43,2.43,0,0,0-.95-.58,4.34,4.34,0,0,0-1.39-.2Z"/><path d="M109.62,193.4v13.66a7.86,7.86,0,0,1-.6,3.17,6.42,6.42,0,0,1-1.65,2.29,7,7,0,0,1-2.51,1.4,10.38,10.38,0,0,1-3.17.46,10.53,10.53,0,0,1-3.2-.46,7.07,7.07,0,0,1-2.51-1.4,6.28,6.28,0,0,1-1.64-2.29,8,8,0,0,1-.59-3.17V193.4H98v13.66a4,4,0,0,0,1,3,3.75,3.75,0,0,0,2.7.93,3.71,3.71,0,0,0,2.69-.93,4,4,0,0,0,1-3V193.4Z"/><path d="M159.92,207.2a8.24,8.24,0,0,1-.71,2.9,6.58,6.58,0,0,1-1.65,2.27,7.44,7.44,0,0,1-2.55,1.48,10.07,10.07,0,0,1-3.42.53,8.73,8.73,0,0,1-3.58-.69,7.22,7.22,0,0,1-2.68-2,9.07,9.07,0,0,1-1.7-3.13,13.66,13.66,0,0,1-.59-4.14v-1.36a13,13,0,0,1,.62-4.14,9.06,9.06,0,0,1,1.72-3.14,7.54,7.54,0,0,1,2.71-2,8.7,8.7,0,0,1,3.56-.7,9.74,9.74,0,0,1,3.42.55,7.23,7.23,0,0,1,2.52,1.52,6.93,6.93,0,0,1,1.62,2.32,9.5,9.5,0,0,1,.74,2.92h-4.26a6.91,6.91,0,0,0-.32-1.64,3.3,3.3,0,0,0-.72-1.19,2.93,2.93,0,0,0-1.21-.73,5.52,5.52,0,0,0-1.79-.25,3.61,3.61,0,0,0-3.22,1.57,8.82,8.82,0,0,0-1.06,4.87v1.39a15.52,15.52,0,0,0,.23,2.82,5.91,5.91,0,0,0,.74,2,3.17,3.17,0,0,0,1.31,1.21,4.15,4.15,0,0,0,1.94.41,6,6,0,0,0,1.74-.23,2.94,2.94,0,0,0,2-1.85,5.72,5.72,0,0,0,.34-1.62Z"/><path d="M186.06,209.83h-7.48l-1.42,4.27h-4.53l7.7-20.7h4L192,214.1H187.5Zm-6.32-3.45h5.17l-2.6-7.75Z"/><path d="M216.36,208.67a2.76,2.76,0,0,0-.16-1,1.92,1.92,0,0,0-.6-.8,5.14,5.14,0,0,0-1.24-.72,20.42,20.42,0,0,0-2-.76,24.08,24.08,0,0,1-2.68-1,9.8,9.8,0,0,1-2.21-1.35,6,6,0,0,1-1.49-1.78,4.81,4.81,0,0,1-.55-2.36,5.11,5.11,0,0,1,.56-2.37,5.53,5.53,0,0,1,1.58-1.83,7.9,7.9,0,0,1,2.42-1.17,10.67,10.67,0,0,1,3.08-.42,9.65,9.65,0,0,1,3.13.48,7,7,0,0,1,2.4,1.33,6,6,0,0,1,1.54,2,6.1,6.1,0,0,1,.54,2.57h-4.27a3.38,3.38,0,0,0-.21-1.21,2.27,2.27,0,0,0-.63-1,2.91,2.91,0,0,0-1.06-.62,4.58,4.58,0,0,0-1.51-.22,5.25,5.25,0,0,0-1.46.18,3.06,3.06,0,0,0-1,.52,2.15,2.15,0,0,0-.62.76,2.33,2.33,0,0,0-.2.94,2,2,0,0,0,1,1.72,11.58,11.58,0,0,0,3.07,1.28,19.71,19.71,0,0,1,3,1.17,9.07,9.07,0,0,1,2.15,1.45,5.35,5.35,0,0,1,1.74,4.11,5.3,5.3,0,0,1-.54,2.43,5,5,0,0,1-1.51,1.8,7,7,0,0,1-2.37,1.12,11.36,11.36,0,0,1-3.09.39,12.89,12.89,0,0,1-2-.17,10,10,0,0,1-2-.55,8.58,8.58,0,0,1-1.72-.92,6.41,6.41,0,0,1-1.39-1.31,6,6,0,0,1-.92-1.72,6.24,6.24,0,0,1-.34-2.12H209a3.82,3.82,0,0,0,.3,1.59,2.75,2.75,0,0,0,.83,1.06,3.48,3.48,0,0,0,1.29.59,7.21,7.21,0,0,0,1.68.18,5.05,5.05,0,0,0,1.43-.17,3.07,3.07,0,0,0,1-.49,1.84,1.84,0,0,0,.59-.75A2.25,2.25,0,0,0,216.36,208.67Z"/><path d="M246.86,209.83h-7.48L238,214.1h-4.54l7.71-20.7h4l7.76,20.7H248.3Zm-6.33-3.45h5.18l-2.6-7.75Z"/></g></g></svg>