<svg id="opensource-logo" xmlns="http://www.w3.org/2000/svg" width="460" height="50" viewBox="0 0 460 50"><path fill="#000" d="M30.9,23.6c0,4.2-1.4,7.8-4,10.5c-2.6,2.6-6.3,4-10.5,4c-4.2,0-7.9-1.4-10.5-4c-2.6-2.6-4-6.3-4-10.5v-7.4 C2,12,3.4,8.4,6,5.8c2.6-2.6,6.3-4,10.5-4c4.2,0,7.8,1.4,10.5,4c2.6,2.6,4,6.3,4,10.5V23.6z M23.8,15.7c0-4.3-2.8-7.4-7.4-7.4 c-4.7,0-7.4,2.7-7.4,7.4v8.5c0,4.6,2.7,7.3,7.4,7.3c4.7,0,7.4-2.7,7.4-7.3V15.7z M38.4,7.7c0-1.9,1.2-3.7,3-4.2 c3.4-1.1,7-1.8,10.8-1.8c4.1,0,7.5,1.3,10,3.9c2.5,2.5,3.9,5.9,3.9,9.9v8.7c0,4.1-1.3,7.6-3.8,10.1c-2.5,2.6-5.5,3.7-9.6,3.7 c-2.3,0-5-0.8-7.2-1.8v8.4c0,2-1.6,3.6-3.5,3.6c-2,0-3.6-1.6-3.6-3.6V7.7z M58.9,15c0-4.2-2.5-6.7-6.7-6.7c-2.3,0-4.5,0.3-6.7,0.8 v20c1.9,1.6,4.2,2.4,6.7,2.4c4.3,0,6.7-2.4,6.7-6.7V15z M79.6,23.2c0,2.8,0.5,4.7,1.4,5.9c1.2,1.5,3,2.3,5.3,2.3 c2.6,0,5.1-0.8,7.4-1.8c0.5-0.2,1-0.3,1.4-0.3c1.7,0,3.4,1.4,3.4,3.2c0,1.3-0.5,2.5-1.8,3.1c-3.3,1.6-6.8,2.3-10.5,2.3 c-4,0-7.4-1.3-10-3.9c-2.5-2.5-3.8-5.9-3.8-10v-8.7c0-4,1.3-7.4,3.8-9.9c2.6-2.5,6-3.9,10-3.9c4.1,0,7.5,1.3,10,3.9 c2.5,2.5,3.9,5.9,3.9,9.9v3.2c0,2.5-2,4.5-4.5,4.5H79.6z M93,16.7c0-5.7-2.3-8.4-6.7-8.4c-4.3,0-6.7,2.6-6.7,8.4H93z M128.1,34.5 c0,2,1.5,3.6,3.5,3.6c2,0,3.6-1.6,3.6-3.6V15.5c0-4-1.4-7.4-3.9-9.9c-2.5-2.5-5.9-3.9-10-3.9c-3.7,0-7.4,0.6-10.7,1.8 c-1.9,0.6-3,2.3-3,4.2v26.7c0,2,1.6,3.6,3.6,3.6c1.9,0,3.5-1.6,3.5-3.6V9.2c2.1-0.6,4.4-0.9,6.7-0.9c4.3,0,6.7,2.5,6.7,6.7V34.5z M154.6,23.7c2.6,0.9,4.6,1.7,4.6,4.3c0,2.3-1.7,3.6-5,3.6c-3,0-5.3-0.6-7.2-1.6c-0.5-0.2-1.1-0.4-1.6-0.4c-1.9,0-3.4,1.7-3.4,3.4 c0,1.4,0.8,2.6,2.1,3.2c2.5,1.2,5.8,1.9,9.9,1.9c7.4,0,12.3-4.8,12.3-10.8c0-5-2.8-8.1-7.3-9.6l-6.8-2.2c-1.4-0.5-2.8-1.6-2.8-3.4 c0-2.3,1.9-3.7,4.7-3.7c2.3,0,5.1,0.6,6.8,1.4c0.5,0.2,1.2,0.3,1.7,0.3c1.9,0,3.3-1.5,3.3-3.3c0-1.4-0.9-2.7-2.3-3.2 c-2.3-1-4.7-1.7-9.4-1.7c-6.9,0-11.9,4.3-11.9,10.4c0,5.2,2.9,8,6.6,9.4L154.6,23.7z M201.2,23.7c0,4.2-1.4,7.8-4,10.5 c-2.6,2.6-6.3,4-10.5,4c-4.2,0-7.9-1.4-10.5-4c-2.6-2.6-4-6.3-4-10.5v-7.4c0-4.2,1.4-7.8,4-10.5c2.6-2.6,6.3-4,10.5-4 c4.2,0,7.8,1.4,10.5,4c2.6,2.6,4,6.3,4,10.5V23.7z M194.1,15.7c0-4.3-2.8-7.4-7.4-7.4c-4.7,0-7.4,2.7-7.4,7.4v8.5 c0,4.6,2.7,7.3,7.4,7.3s7.4-2.7,7.4-7.3V15.7z M228.8,30.7c-2.1,0.5-4.4,0.8-6.7,0.8c-4.2,0-6.7-2.4-6.7-6.7V5.4 c0-2-1.6-3.6-3.5-3.6c-2,0-3.6,1.6-3.6,3.6v18.9c0,4.1,1.2,7.7,3.7,10.1c2.5,2.5,6.1,3.7,10.1,3.7c3.8,0,7.4-0.6,10.8-1.8 c1.8-0.6,3-2.3,3-4.2V5.4c0-2-1.6-3.6-3.6-3.6c-2,0-3.5,1.6-3.5,3.6V30.7z M244.6,34.5c0,2,1.6,3.6,3.6,3.6c1.9,0,3.5-1.6,3.5-3.6 v-23c0-1.7,1.5-3.2,3.2-3.2c1.1,0,2.3,0.3,3.4,0.5c0.6,0.1,0.8,0.1,1.2,0.1c2,0,3.4-1.4,3.4-3.3c0-1.6-1.2-3-2.8-3.4 c-1.7-0.3-3.4-0.6-5.2-0.6c-5.9,0-10.3,4.4-10.3,10.3V34.5z M266.3,24.3c0,4.1,1.3,7.5,3.8,10c2.6,2.6,6,3.9,10,3.9 c3.4,0,6.5-0.8,9.5-2.2c1.3-0.6,2.1-1.9,2.1-3.2c0-1.9-1.6-3.3-3.3-3.3c-0.6,0-1,0.1-1.5,0.3c-2,1-4.5,1.7-6.8,1.7 c-4.2,0-6.7-2.4-6.7-6.7v-9.8c0-4.2,2.5-6.7,6.7-6.7c2.3,0,4.5,0.8,6.5,1.7c0.5,0.2,1,0.4,1.7,0.4c1.9,0,3.4-1.5,3.4-3.2 c0-1.3-0.7-2.6-2-3.2c-3-1.4-6.2-2.2-9.6-2.2c-4,0-7.4,1.3-10,3.9c-2.5,2.5-3.8,5.9-3.8,9.9V24.3z M303.7,23.3 c0,2.8,0.5,4.7,1.4,5.9c1.2,1.5,3,2.3,5.3,2.3c2.6,0,5.1-0.8,7.4-1.8c0.5-0.2,1-0.3,1.4-0.3c1.7,0,3.4,1.4,3.4,3.2 c0,1.3-0.5,2.5-1.8,3.1c-3.3,1.6-6.8,2.3-10.5,2.3c-4,0-7.4-1.3-10-3.9c-2.5-2.5-3.8-5.9-3.8-10v-8.7c0-4,1.3-7.4,3.8-9.9 c2.5-2.6,6-3.9,10-3.9c4.1,0,7.5,1.3,10,3.9c2.5,2.5,3.9,5.9,3.9,9.9v3.2c0,2.5-2,4.5-4.5,4.5H303.7z M317.1,16.8 c0-5.7-2.3-8.4-6.7-8.4c-4.3,0-6.7,2.6-6.7,8.4H317.1z M336.5,29.9c-2.3-1-5.1,0.1-6.1,2.4c-0.9,2.2,0.2,5,2.5,6 c2.3,1,5-0.2,5.9-2.4C339.9,33.7,338.9,30.9,336.5,29.9 M346.4,25.2c0,4.1,1.3,7.5,3.8,10c2.5,2.6,6,3.9,10,3.9 c3.4,0,6.5-0.8,9.5-2.2c1.3-0.6,2.1-1.9,2.1-3.2c0-1.9-1.6-3.3-3.3-3.3c-0.5,0-1,0.1-1.5,0.3c-2,1-4.5,1.7-6.7,1.7 c-4.2,0-6.7-2.4-6.7-6.7V16c0-4.2,2.5-6.7,6.7-6.7c2.3,0,4.5,0.8,6.5,1.6c0.5,0.2,1,0.4,1.6,0.4c1.9,0,3.4-1.5,3.4-3.2 c0-1.3-0.7-2.5-2-3.2c-3-1.4-6.2-2.2-9.6-2.2c-4,0-7.4,1.3-10,3.9c-2.5,2.5-3.8,5.9-3.8,9.9V25.2z M405.6,24.6c0,4.2-1.4,7.9-4,10.5 c-2.6,2.6-6.3,4-10.5,4c-4.2,0-7.8-1.4-10.5-4c-2.6-2.6-4-6.3-4-10.5v-7.4c0-4.2,1.4-7.8,4-10.5c2.6-2.6,6.3-4,10.5-4 c4.2,0,7.9,1.4,10.5,4c2.6,2.6,4,6.3,4,10.5V24.6z M398.5,16.7c0-4.3-2.8-7.4-7.4-7.4c-4.7,0-7.4,2.7-7.4,7.4v8.5 c0,4.6,2.7,7.3,7.4,7.3c4.7,0,7.4-2.7,7.4-7.3V16.7z M450.9,35.5c0,2,1.5,3.6,3.5,3.6c2,0,3.6-1.6,3.6-3.6V15.8c0-7.4-5.6-13-13-13 c-3.4,0-6.8,1-9.6,2.8c-2.1-1.8-5-2.8-8.3-2.8c-4,0-7.5,0.6-11.1,2C414.2,5.5,413,7.1,413,9v26.5c0,2,1.6,3.6,3.6,3.6 c1.9,0,3.5-1.6,3.5-3.6V10.3c2.2-0.6,3.7-1,6.2-1c3,0,5.7,1,5.7,5v21.1c0,2,1.6,3.6,3.5,3.6c2,0,3.6-1.6,3.6-3.6V11.1 c1.7-1.1,3.8-1.8,5.9-1.8c3.2,0,5.9,2.7,5.9,5.9V35.5z"/></svg>