<svg xmlns="http://www.w3.org/2000/svg" viewBox="0 0 399 73"><g fill="none" fill-rule="evenodd"><path d="M71.63 16.18V12c0-1.47 1.19-2.66 2.66-2.66 1.47 0 2.66 1.19 2.66 2.66v4.18m-14.27 0V12c0-1.47 1.19-2.66 2.66-2.66A2.65 2.65 0 0 1 68 11.99v4.18m-14.28.01V12c0-1.47 1.19-2.66 2.66-2.66 1.47 0 2.66 1.19 2.66 2.66v4.18m-14.28 0V12c0-1.47 1.19-2.66 2.66-2.66 1.47 0 2.66 1.19 2.66 2.66v4.18m-14.28 0V12c0-1.47 1.19-2.66 2.66-2.66 1.47 0 2.66 1.19 2.66 2.66v4.18m-14.27 0V12c0-1.47 1.19-2.66 2.66-2.66 1.47 0 2.66 1.19 2.66 2.66v4.18M76.95 56.07v4.68c0 1.47-1.19 2.66-2.66 2.66-1.47 0-2.66-1.19-2.66-2.66v-4.68m-3.63 0v4.68c0 1.47-1.19 2.66-2.66 2.66-1.47 0-2.66-1.19-2.66-2.66v-4.68m-3.64 0v4.68c0 1.47-1.19 2.66-2.66 2.66-1.47 0-2.66-1.19-2.66-2.66v-4.68m-3.64 0v4.68c0 1.47-1.19 2.66-2.66 2.66-1.47 0-2.66-1.19-2.66-2.66v-4.68m-3.64 0v4.68c0 1.47-1.19 2.66-2.66 2.66-1.47 0-2.66-1.19-2.66-2.66v-4.68m-3.63.26v4.43c0 1.47-1.19 2.66-2.66 2.66-1.47 0-2.66-1.19-2.66-2.66v-4.43" fill="#fff" stroke="#000" stroke-width="2.178"/><path fill="#fff" stroke="#000" stroke-width="2.42" d="M78.29 16.18H25.51a.97.97 0 0 0-.97.97v37.96c0 .53.43.97.97.97h52.77c.53 0 .97-.43.97-.97V17.15c0-.54-.43-.97-.96-.97z"/><path fill="#000" fill-rule="nonzero" d="M40.5 38.32h2.87v7.75h17.25v-7.75h2.87l-2.89-2.9v-5.07h-1.8v3.28l-6.81-6.81z"/><path stroke="#000" stroke-linecap="round" stroke-linejoin="round" stroke-width="1.961" d="M40.5 38.32h2.87v7.75h17.25v-7.75h2.87l-2.89-2.9v-5.07h-1.8v3.28l-6.81-6.81z"/><path d="M24.34 53.77H8.52v-3.89h11.86v-3.89H8.52v-3.88h11.86v-3.89H8.52v-3.89h11.86v-3.88H8.52V18.47" stroke="#000" stroke-linecap="round" stroke-linejoin="round" stroke-width="2.159"/><path d="M100.19 13.586h31.816v12.568H126v-7.5h-15.85v14.21h13.33v5.038h-13.33v15.059H126v-7.5h6.006V58h-31.817v-5.04h4.22V18.655h-4.22zm60.498 12.07q0-2.578-.938-3.867t-2.08-1.963q-1.113-.703-2.461-1.055-1.348-.38-2.695-.38-2.227 0-3.897.527-1.67.498-2.783 1.377-1.084.879-1.64 2.05t-.557 2.462q0 1.933.674 3.134.703 1.172 1.757 1.905 1.055.703 2.315 1.113 1.289.41 2.46.82l5.919 1.934q2.666.85 4.687 1.933 2.051 1.084 3.428 2.579 1.377 1.464 2.08 3.398.732 1.934.732 4.482 0 2.754-1.142 5.098-1.113 2.344-3.135 4.072-2.021 1.729-4.834 2.725-2.783.967-6.123.967-3.428 0-5.86-.791-2.43-.762-4.1-2.051-1.641-1.318-2.638-2.988-.996-1.67-1.552-3.428h-2.227v-5.04h7.383q0 3.253.674 4.6.703 1.348 1.933 2.256 1.23.88 2.93 1.348 1.7.44 3.75.44 1.992 0 3.574-.47 1.612-.468 2.725-1.347 1.142-.908 1.728-2.168.616-1.289.616-2.9 0-1.787-.762-3.018-.733-1.26-1.904-2.139-1.172-.878-2.579-1.435-1.376-.557-2.666-.967l-6.416-1.816q-2.109-.645-3.867-1.64-1.728-.997-2.988-2.433-1.23-1.435-1.904-3.34-.674-1.933-.674-4.453 0-2.548.996-4.775.996-2.226 2.93-3.896 1.933-1.67 4.716-2.608 2.813-.967 6.416-.967 2.374 0 4.366.557 2.021.557 3.633 1.582 1.64.996 2.87 2.432 1.26 1.406 2.11 3.105h2.197v5.04zm12.744-12.07h17.959q2.988 0 5.478.791 2.52.762 4.336 2.285 1.846 1.494 2.842 3.75 1.025 2.256 1.025 5.186 0 2.431-.996 4.6-.996 2.138-2.812 3.75-1.817 1.61-4.366 2.548-2.52.938-5.625.938h-7.88V52.96h4.453V58h-14.414v-5.04h4.218V18.655h-4.218zm9.96 5.068V32.63h7.999q1.67 0 3.046-.44 1.407-.468 2.403-1.347 1.025-.88 1.582-2.197.586-1.319.586-3.047 0-3.282-1.992-5.098-1.993-1.846-6.358-1.846zm58.506-5.068h14.414v5.039h-4.218v34.336h4.219V58h-14.415v-5.04h4.454V36.995h-25.694v15.967h4.453V58h-14.414v-5.04h4.219V18.626h-4.219v-5.04h14.414v5.04h-4.453v13.447h25.694V18.625h-4.454zm21.153 29.238q.03-3.603 1.142-6.562 1.143-2.96 3.164-5.069 2.022-2.138 4.805-3.28 2.783-1.143 6.123-1.143 3.37 0 6.152 1.142 2.813 1.143 4.805 3.252 1.992 2.08 3.106 5.04 1.113 2.958 1.113 6.562 0 3.545-1.113 6.533-1.114 2.959-3.106 5.097-1.992 2.14-4.805 3.34-2.783 1.172-6.152 1.172-3.428 0-6.21-1.172-2.784-1.172-4.776-3.28-1.992-2.14-3.106-5.099-1.113-2.959-1.142-6.533zm5.771 0q0 2.608.733 4.717.761 2.11 2.05 3.604 1.319 1.464 3.018 2.285 1.729.79 3.662.79 2.022 0 3.75-.79 1.758-.791 3.047-2.256 1.29-1.494 2.022-3.604.732-2.11.732-4.746 0-2.754-.732-4.892-.733-2.139-2.022-3.575-1.26-1.435-3.018-2.168-1.757-.732-3.779-.732-1.933 0-3.662.732-1.7.733-3.018 2.168-1.289 1.436-2.05 3.575-.733 2.138-.733 4.892zm30.498-15.176h9.668v3.545h.059q.996-.85 2.08-1.582 1.113-.761 2.314-1.318 1.202-.557 2.49-.879 1.319-.322 2.725-.322 3.282 0 5.655 1.23 2.373 1.201 3.662 3.78 1.113-.997 2.343-1.905 1.23-.937 2.55-1.611 1.347-.674 2.812-1.084 1.465-.41 3.047-.41 2.46 0 4.423.674 1.963.673 3.34 2.05 1.377 1.377 2.08 3.545.733 2.139.733 5.069v14.53h4.219V58h-14.18v-5.04h4.277V39.105q0-3.487-1.758-5.274-1.757-1.816-5.068-1.816-1.963 0-4.014.937-2.05.938-3.515 2.373v17.637h4.19V58H319.3v-5.04h4.277V39.105q0-3.487-1.787-5.274-1.758-1.816-5.068-1.816-1.905 0-3.838.908-1.934.908-3.662 2.256V52.96h4.277V58h-14.18v-5.04h4.22V32.688h-4.22zm65.274 15.88q0 1.288.176 2.372.205 1.055.556 2.022 1.084 2.93 3.457 4.424 2.403 1.465 5.42 1.465 2.373 0 4.6-.645 2.256-.674 4.717-2.08l2.197 3.72q-2.988 2.051-6.006 3.048-3.018.996-6.27.996-3.076 0-5.712-1.026-2.608-1.025-4.512-3.047-1.875-2.021-2.96-5.039-1.054-3.017-1.054-7.031 0-3.252.908-6.123.909-2.9 2.696-5.04 1.816-2.167 4.482-3.427 2.666-1.26 6.211-1.26 3.428 0 5.713 1.055 2.314 1.026 3.75 2.754 1.465 1.7 2.197 3.897.762 2.197 1.055 4.482.146 1.113.176 2.256.058 1.142.058 2.226zm8.525-12.1q-1.904 0-3.34.556-1.406.528-2.402 1.553-.996.996-1.611 2.461-.586 1.465-.88 3.281h15.733q-.117-1.699-.557-3.134-.41-1.436-1.289-2.49-.878-1.055-2.255-1.641-1.377-.586-3.399-.586z" fill="#000" aria-label="ESPHome"/></g></svg>