<?xml version="1.0" encoding="UTF-8" standalone="no"?>
<svg
   xmlns:dc="http://purl.org/dc/elements/1.1/"
   xmlns:cc="http://creativecommons.org/ns#"
   xmlns:rdf="http://www.w3.org/1999/02/22-rdf-syntax-ns#"
   xmlns:svg="http://www.w3.org/2000/svg"
   xmlns="http://www.w3.org/2000/svg"
   viewBox="0 0 164.10268 138.46133"
   height="138.46133"
   width="164.10268"
   xml:space="preserve"
   id="svg2"
   version="1.1"><metadata
     id="metadata8"><rdf:RDF><cc:Work
         rdf:about=""><dc:format>image/svg+xml</dc:format><dc:type
           rdf:resource="http://purl.org/dc/dcmitype/StillImage" /></cc:Work></rdf:RDF></metadata><defs
     id="defs6"><clipPath
       id="clipPath18"
       clipPathUnits="userSpaceOnUse"><path
         id="path16"
         d="m 6.998,7.392 h 109.08 V 96.455 H 6.998 Z" /></clipPath><clipPath
       id="clipPath44"
       clipPathUnits="userSpaceOnUse"><path
         id="path42"
         d="m 61.723,52.808 c -3.456,0.157 -6.115,1.034 -8.175,2.303 v 0 c 1.395,-6.055 6.612,-9.029 6.864,-9.17 v 0 l 1.538,-0.848 c 11.768,0.786 18.656,8.383 18.656,18.317 v 0 2.153 C 77.809,56.437 71.299,52.377 61.723,52.808" /></clipPath><linearGradient
       id="linearGradient54"
       spreadMethod="pad"
       gradientTransform="matrix(27.057007,0,0,27.057007,53.548492,55.328064)"
       gradientUnits="userSpaceOnUse"
       y2="0"
       x2="1"
       y1="0"
       x1="0"><stop
         id="stop50"
         offset="0"
         style="stop-opacity:1;stop-color:#656263" /><stop
         id="stop52"
         offset="1"
         style="stop-opacity:1;stop-color:#a7a5a6" /></linearGradient><clipPath
       id="clipPath66"
       clipPathUnits="userSpaceOnUse"><path
         id="path64"
         d="m 6.998,7.392 h 109.08 V 96.455 H 6.998 Z" /></clipPath></defs><g
     transform="matrix(1.3333333,0,0,-1.3333333,0,138.46133)"
     id="g10"><g
       id="g12"><g
         clip-path="url(#clipPath18)"
         id="g14"><g
           transform="translate(79.6021,65.8706)"
           id="g20"><path
             id="path22"
             style="fill:#0d0d0d;fill-opacity:1;fill-rule:nonzero;stroke:none"
             d="m 0,0 1.004,3.275 v 22.437 c -11.734,0 -12.956,-4.499 -12.956,-8.796 v -24.64 c 0,-1.276 -0.124,-2.629 -0.382,-3.956 C -6.112,-10.547 -2.053,-6.701 0,0" /></g><path
           id="path24"
           style="fill:#39a2e1;fill-opacity:1;fill-rule:nonzero;stroke:none"
           d="m 49.566,86.46 h -2.593 v 2.561 h 2.593 z" /><path
           id="path26"
           style="fill:#39a2e1;fill-opacity:1;fill-rule:nonzero;stroke:none"
           d="m 52.156,82.59 h -2.59 v 2.563 h 2.59 z" /><path
           id="path28"
           style="fill:#39a2e1;fill-opacity:1;fill-rule:nonzero;stroke:none"
           d="m 49.551,79.367 h -2.563 v 2.562 h 2.563 z" /><path
           id="path30"
           style="fill:#39a2e1;fill-opacity:1;fill-rule:nonzero;stroke:none"
           d="m 46.96,75.525 h -2.562 v 2.562 h 2.562 z" /><path
           id="path32"
           style="fill:#39a2e1;fill-opacity:1;fill-rule:nonzero;stroke:none"
           d="m 41.792,89.021 h -2.59 v 2.589 h 2.59 z" /><g
           transform="translate(44.3853,72.9648)"
           id="g34"><path
             id="path36"
             style="fill:#39a2e1;fill-opacity:1;fill-rule:nonzero;stroke:none"
             d="m 0,0 h 2.587 v -5.707 h 2.594 v 9.548 h 2.59 v -18.659 c 0,-8.855 7.749,-13.126 7.749,-13.126 -13.017,0 -20.703,7.891 -20.703,18.39 V 11.56 h 2.589 V -2.562 H 0 Z" /></g></g></g><g
       id="g38"><g
         clip-path="url(#clipPath44)"
         id="g40"><g
           id="g46"><g
             id="g48"><path
               id="path56"
               style="fill:url(#linearGradient54);stroke:none"
               d="m 61.723,52.808 c -3.456,0.157 -6.115,1.034 -8.175,2.303 v 0 c 1.395,-6.055 6.612,-9.029 6.864,-9.17 v 0 l 1.538,-0.848 c 11.768,0.786 18.656,8.383 18.656,18.317 v 0 2.153 C 77.809,56.437 71.299,52.377 61.723,52.808" /></g></g></g></g><path
       id="path58"
       style="fill:#39a2e1;fill-opacity:1;fill-rule:nonzero;stroke:none"
       d="m 46.958,83.872 h -2.56 v 2.562 h 2.56 z" /><g
       id="g60"><g
         clip-path="url(#clipPath66)"
         id="g62"><g
           transform="translate(74.624,21.8422)"
           id="g68"><path
             id="path70"
             style="fill:#4f4c4d;fill-opacity:1;fill-rule:nonzero;stroke:none"
             d="M 0,0 C -2.232,0 -3.973,0.618 -5.173,1.839 -6.4,3.086 -7.005,4.891 -6.969,7.206 L -6.97,18.012 h 0.023 c 0.598,0 2.553,-0.142 2.553,-1.97 L -4.393,6.638 C -4.325,3.846 -2.724,2.247 0,2.247 c 2.723,0 4.324,1.601 4.391,4.393 v 9.402 c 0,1.828 1.956,1.97 2.556,1.97 H 6.969 L 6.966,7.204 C 7.004,4.891 6.4,3.086 5.172,1.839 3.97,0.618 2.23,0 0,0" /></g><g
           transform="translate(15.1595,21.8422)"
           id="g72"><path
             id="path74"
             style="fill:#4f4c4d;fill-opacity:1;fill-rule:nonzero;stroke:none"
             d="M 0,0 C -2.232,0 -3.972,0.618 -5.172,1.839 -6.4,3.086 -7.004,4.891 -6.966,7.206 l 0.036,10.806 h 0.021 c 0.599,0 2.554,-0.142 2.554,-1.97 L -4.391,6.638 C -4.324,3.846 -2.724,2.247 0,2.247 c 2.725,0 4.325,1.601 4.392,4.393 l 0.038,9.402 c 0,1.828 1.956,1.97 2.555,1.97 H 7.008 L 6.968,7.204 C 7.005,4.891 6.4,3.086 5.173,1.839 3.972,0.618 2.23,0 0,0" /></g><g
           transform="translate(56.3387,24.0893)"
           id="g76"><path
             id="path78"
             style="fill:#4f4c4d;fill-opacity:1;fill-rule:nonzero;stroke:none"
             d="m 0,0 c -4.375,0 -5.028,4.213 -5.028,6.725 0,2.022 0.488,6.803 5.028,6.803 4.374,0 5.028,-4.292 5.028,-6.803 C 5.028,4.703 4.537,0 0,0 m 9.879,-1.894 c 0,0.272 -0.042,1.181 -0.56,1.728 C 9.043,0.122 8.676,0.268 8.218,0.268 h -3.01 c 1.621,1.579 2.514,3.861 2.514,6.457 0,4.336 -2.03,9.048 -7.722,9.048 -5.693,0 -7.721,-4.712 -7.721,-9.048 0,-4.335 2.026,-8.968 7.711,-8.972 l 0.015,0.002 c 0.437,0.02 0.89,0.067 1.35,0.14 0.275,0.031 0.569,0.083 0.852,0.132 l 0.449,0.079 z" /></g><g
           transform="translate(85.9779,22.0111)"
           id="g80"><path
             id="path82"
             style="fill:#4f4c4d;fill-opacity:1;fill-rule:nonzero;stroke:none"
             d="m 0,0 -0.002,15.872 c 0,1.83 1.955,1.971 2.554,1.971 H 2.575 V 0.293 C 2.575,0.132 2.444,0 2.283,0 Z" /></g><g
           transform="translate(42.6704,21.9496)"
           id="g84"><path
             id="path86"
             style="fill:#4f4c4d;fill-opacity:1;fill-rule:nonzero;stroke:none"
             d="m 0,0 -0.003,15.934 c 0,1.828 1.956,1.971 2.555,1.971 H 2.575 V 0.293 C 2.575,0.132 2.444,0 2.283,0 Z" /></g><g
           transform="translate(106.4436,22.0111)"
           id="g88"><path
             id="path90"
             style="fill:#4f4c4d;fill-opacity:1;fill-rule:nonzero;stroke:none"
             d="m 0,0 v 15.916 c 0,1.829 1.949,1.971 2.549,1.971 H 2.572 V 0.293 C 2.572,0.132 2.441,0 2.28,0 Z" /></g><g
           transform="translate(91.0876,39.8103)"
           id="g92"><path
             id="path94"
             style="fill:#4f4c4d;fill-opacity:1;fill-rule:nonzero;stroke:none"
             d="M 0,0 V -2.246 H 5.267 V -17.8 h 2.282 c 0.158,0 0.289,0.13 0.293,0.286 v 15.268 h 4.798 c 0.157,0 0.288,0.129 0.291,0.285 l 0,1.961 z" /></g><g
           transform="translate(91.1307,39.8103)"
           id="g96"><path
             id="path98"
             style="fill:#4f4c4d;fill-opacity:1;fill-rule:nonzero;stroke:none"
             d="M 0,0 V -2.246 H 5.267 V -17.8 H 7.55 c 0.158,0 0.288,0.13 0.291,0.286 v 15.268 h 4.799 c 0.158,0 0.289,0.129 0.292,0.285 V 0 Z" /></g><g
           transform="translate(33.3493,24.2646)"
           id="g100"><path
             id="path102"
             style="fill:#4f4c4d;fill-opacity:1;fill-rule:nonzero;stroke:none"
             d="m 0,0 h -4.099 v 5.836 h 3.827 C 0.929,5.836 2.943,5.341 2.943,2.914 2.943,0.663 1.21,0.058 0,0 M 2.249,10.671 C 2.249,9.725 1.959,8.946 1.363,8.562 0.939,8.285 0.347,8.134 -0.471,8.088 h -3.803 v 5.175 h 2.816 0.841 c 2.054,-0.079 2.866,-0.92 2.866,-2.592 M 2.547,6.962 2.326,7.028 2.538,7.12 c 1.482,0.644 2.404,2.148 2.404,3.716 0,2.886 -2.043,4.672 -5.602,4.672 H -6.85 V -2.253 l 6.188,0.001 c 0.173,-0.004 0.346,-0.006 0.522,-0.006 0.713,0 1.636,0.04 2.44,0.343 1.949,0.718 3.159,2.468 3.159,4.358 0,1.625 -0.762,3.881 -2.912,4.519" /></g><g
           transform="translate(8.5432,16.664)"
           id="g104"><path
             id="path106"
             style="fill:#4f4c4d;fill-opacity:1;fill-rule:nonzero;stroke:none"
             d="M 0,0 H 0.952 L 3.307,-3.8 H 3.321 V 0 h 0.86 V -5.157 H 3.227 L 0.88,-1.365 H 0.858 V -5.157 H 0 Z" /></g><g
           transform="translate(22.4235,16.664)"
           id="g108"><path
             id="path110"
             style="fill:#4f4c4d;fill-opacity:1;fill-rule:nonzero;stroke:none"
             d="M 0,0 H 3.713 V -0.78 H 0.904 V -2.131 H 3.503 V -2.867 H 0.904 v -1.509 h 2.859 v -0.781 l -3.763,0 z" /></g><g
           transform="translate(35.2121,16.664)"
           id="g112"><path
             id="path114"
             style="fill:#4f4c4d;fill-opacity:1;fill-rule:nonzero;stroke:none"
             d="M 0,0 H 4.176 V -0.78 H 2.535 V -5.157 H 1.633 V -0.78 L 0,-0.78 Z" /></g><g
           transform="translate(48.3348,16.664)"
           id="g116"><path
             id="path118"
             style="fill:#4f4c4d;fill-opacity:1;fill-rule:nonzero;stroke:none"
             d="M 0,0 H 0.917 L 1.849,-3.944 H 1.863 L 2.903,0 H 3.827 L 4.839,-3.944 H 4.853 L 5.814,0 H 6.732 L 5.309,-5.157 H 4.391 L 3.358,-1.213 H 3.344 L 2.288,-5.157 H 1.359 Z" /></g><g
           transform="translate(66.3609,16.0497)"
           id="g120"><path
             id="path122"
             style="fill:#4f4c4d;fill-opacity:1;fill-rule:nonzero;stroke:none"
             d="m 0,0 c -0.274,0 -0.512,-0.055 -0.711,-0.166 -0.199,-0.11 -0.362,-0.259 -0.488,-0.444 -0.124,-0.186 -0.218,-0.396 -0.277,-0.633 -0.06,-0.235 -0.091,-0.476 -0.091,-0.721 0,-0.247 0.031,-0.487 0.091,-0.722 0.059,-0.237 0.153,-0.447 0.277,-0.633 0.126,-0.185 0.289,-0.334 0.488,-0.444 0.199,-0.111 0.437,-0.166 0.711,-0.166 0.276,0 0.511,0.055 0.711,0.166 0.2,0.11 0.362,0.259 0.489,0.444 0.124,0.186 0.217,0.396 0.276,0.633 0.062,0.235 0.092,0.475 0.092,0.722 0,0.245 -0.03,0.486 -0.092,0.721 C 1.417,-1.006 1.324,-0.796 1.2,-0.61 1.073,-0.425 0.911,-0.276 0.711,-0.166 0.511,-0.055 0.276,0 0,0 M 0,0.738 C 0.385,0.738 0.731,0.665 1.036,0.52 1.342,0.376 1.6,0.181 1.813,-0.065 2.025,-0.31 2.188,-0.597 2.3,-0.924 2.414,-1.251 2.471,-1.598 2.471,-1.964 2.471,-2.335 2.414,-2.684 2.3,-3.012 2.188,-3.34 2.025,-3.625 1.813,-3.871 1.6,-4.116 1.342,-4.311 1.036,-4.452 0.731,-4.594 0.385,-4.665 0,-4.665 c -0.385,0 -0.73,0.071 -1.037,0.213 -0.305,0.141 -0.563,0.336 -0.776,0.581 -0.21,0.246 -0.374,0.531 -0.487,0.859 -0.113,0.328 -0.17,0.677 -0.17,1.048 0,0.366 0.057,0.713 0.17,1.04 0.113,0.327 0.277,0.614 0.487,0.859 C -1.6,0.181 -1.342,0.376 -1.037,0.52 -0.73,0.665 -0.385,0.738 0,0.738" /></g><g
           transform="translate(79.1802,14.3163)"
           id="g124"><path
             id="path126"
             style="fill:#4f4c4d;fill-opacity:1;fill-rule:nonzero;stroke:none"
             d="M 0,0 H 1.481 C 1.77,0 1.988,0.068 2.139,0.206 2.287,0.343 2.362,0.549 2.362,0.823 2.362,0.987 2.338,1.121 2.29,1.224 2.241,1.328 2.175,1.409 2.091,1.466 2.006,1.525 1.91,1.563 1.802,1.582 1.693,1.601 1.582,1.61 1.466,1.61 H 0 Z M -0.904,2.348 H 1.56 C 2.128,2.348 2.554,2.225 2.839,1.979 3.122,1.733 3.264,1.391 3.264,0.954 3.264,0.707 3.228,0.504 3.156,0.343 3.084,0.182 3,0.052 2.904,-0.046 2.807,-0.145 2.712,-0.217 2.618,-0.259 2.524,-0.303 2.455,-0.333 2.412,-0.347 v -0.014 c 0.078,-0.01 0.161,-0.033 0.25,-0.072 0.089,-0.039 0.172,-0.1 0.249,-0.184 0.076,-0.085 0.14,-0.194 0.191,-0.329 0.051,-0.134 0.076,-0.303 0.076,-0.506 0,-0.303 0.022,-0.579 0.069,-0.826 0.045,-0.249 0.117,-0.426 0.213,-0.531 H 2.491 c -0.067,0.11 -0.107,0.233 -0.118,0.368 -0.013,0.134 -0.018,0.265 -0.018,0.39 0,0.236 -0.015,0.439 -0.044,0.61 -0.029,0.171 -0.082,0.314 -0.159,0.427 -0.077,0.113 -0.181,0.195 -0.315,0.248 -0.133,0.053 -0.301,0.08 -0.508,0.08 H 0 v -2.123 h -0.904 z" /></g><g
           transform="translate(92.0189,16.664)"
           id="g128"><path
             id="path130"
             style="fill:#4f4c4d;fill-opacity:1;fill-rule:nonzero;stroke:none"
             d="M 0,0 H 0.902 V -2.347 L 3.2,0 H 4.312 L 2.253,-2.058 4.456,-5.157 H 3.329 L 1.64,-2.694 0.902,-3.423 V -5.157 H 0 Z" /></g><g
           transform="translate(106.0308,13.2265)"
           id="g132"><path
             id="path134"
             style="fill:#4f4c4d;fill-opacity:1;fill-rule:nonzero;stroke:none"
             d="m 0,0 c 0,-0.198 0.033,-0.367 0.1,-0.506 0.068,-0.14 0.162,-0.255 0.282,-0.343 0.12,-0.09 0.259,-0.155 0.416,-0.195 0.156,-0.041 0.326,-0.062 0.508,-0.062 0.199,0 0.366,0.023 0.506,0.07 0.14,0.045 0.253,0.104 0.34,0.176 0.087,0.072 0.148,0.155 0.188,0.248 0.038,0.095 0.057,0.19 0.057,0.287 0,0.197 -0.044,0.343 -0.133,0.436 C 2.175,0.206 2.078,0.271 1.971,0.31 1.788,0.377 1.575,0.442 1.333,0.501 1.088,0.561 0.79,0.639 0.432,0.737 0.211,0.795 0.027,0.87 -0.119,0.963 -0.266,1.058 -0.383,1.162 -0.47,1.278 c -0.086,0.115 -0.148,0.238 -0.184,0.368 -0.036,0.13 -0.054,0.262 -0.054,0.397 0,0.261 0.054,0.485 0.163,0.676 0.108,0.189 0.251,0.347 0.428,0.472 0.18,0.126 0.381,0.218 0.608,0.279 0.226,0.06 0.455,0.091 0.686,0.091 0.27,0 0.524,-0.036 0.762,-0.106 C 2.178,3.386 2.387,3.281 2.568,3.141 2.747,3.001 2.891,2.83 2.997,2.624 3.103,2.42 3.156,2.183 3.156,1.913 H 2.253 C 2.229,2.245 2.115,2.48 1.914,2.617 1.711,2.754 1.454,2.823 1.14,2.823 1.034,2.823 0.926,2.812 0.815,2.791 0.705,2.769 0.603,2.733 0.513,2.683 0.421,2.632 0.346,2.563 0.284,2.477 0.226,2.39 0.194,2.282 0.194,2.152 0.194,1.969 0.251,1.825 0.365,1.723 0.477,1.619 0.626,1.54 0.808,1.487 0.828,1.482 0.903,1.463 1.036,1.425 1.169,1.39 1.317,1.35 1.479,1.307 1.644,1.263 1.804,1.221 1.96,1.18 2.117,1.139 2.229,1.109 2.295,1.09 2.465,1.037 2.612,0.964 2.737,0.873 2.862,0.782 2.966,0.677 3.051,0.559 3.135,0.442 3.199,0.315 3.238,0.18 3.28,0.045 3.3,-0.089 3.3,-0.224 3.3,-0.513 3.242,-0.761 3.123,-0.965 3.005,-1.17 2.85,-1.337 2.657,-1.467 2.465,-1.596 2.246,-1.691 2,-1.752 c -0.245,-0.06 -0.495,-0.09 -0.751,-0.09 -0.293,0 -0.57,0.035 -0.83,0.109 -0.261,0.072 -0.487,0.181 -0.68,0.331 -0.193,0.149 -0.346,0.341 -0.462,0.574 -0.115,0.235 -0.176,0.51 -0.181,0.828 z" /></g><g
           transform="translate(112.2806,38.2932)"
           id="g136"><path
             id="path138"
             style="fill:#4f4c4d;fill-opacity:1;fill-rule:nonzero;stroke:none"
             d="M 0,0 H 0.311 C 0.575,0 0.816,0.013 0.816,0.316 0.816,0.571 0.597,0.61 0.395,0.61 H 0 Z m -0.298,0.852 h 0.742 c 0.456,0 0.671,-0.18 0.671,-0.549 0,-0.347 -0.22,-0.492 -0.505,-0.522 L 1.159,-1.067 H 0.838 L 0.316,-0.241 H 0 v -0.826 h -0.298 z m 0.64,-2.362 c 0.76,0 1.347,0.606 1.347,1.409 0,0.786 -0.587,1.391 -1.347,1.391 -0.768,0 -1.356,-0.605 -1.356,-1.391 0,-0.803 0.588,-1.409 1.356,-1.409 m 0,3.041 c 0.896,0 1.646,-0.706 1.646,-1.632 0,-0.944 -0.75,-1.65 -1.646,-1.65 -0.9,0 -1.654,0.706 -1.654,1.65 0,0.926 0.754,1.632 1.654,1.632" /></g></g></g></g></svg>