<?xml version="1.0" encoding="UTF-8"?>
<svg id="Layer_2" data-name="Layer 2" xmlns="http://www.w3.org/2000/svg" xmlns:xlink="http://www.w3.org/1999/xlink" viewBox="0 0 277.55 43.62">
  <defs>
    <style>
      .cls-1, .cls-2, .cls-3 {
        fill: none;
      }

      .cls-2 {
        stroke-width: 3px;
      }

      .cls-2, .cls-4 {
        stroke: #f2f4f9;
        stroke-miterlimit: 10;
      }

      .cls-5 {
        fill: #1d2126;
      }

      .cls-6 {
        fill: #18bcf2;
      }

      .cls-4 {
        fill: #f2f4f9;
        stroke-width: 1.5px;
      }

      .cls-3 {
        clip-path: url(#clippath);
      }
    </style>
    <clipPath id="clippath">
      <polygon class="cls-1" points="40 40 0 40 0 20 20 0 40 20 40 40"/>
    </clipPath>
  </defs>
  <g id="Layer_2-2" data-name="Layer 2">
    <g>
      <path class="cls-5" d="m55.96,9.01h3.97v9.77l10.3.03v-9.8h4v23.36h-4v-10.05l-10.3-.03v10.08h-3.97V9.01Z"/>
      <path class="cls-5" d="m85.84,16.15c2.42,0,4.39.78,5.91,2.33,1.52,1.55,2.28,3.55,2.28,5.98s-.76,4.42-2.28,5.97c-1.52,1.55-3.49,2.33-5.91,2.33s-4.42-.78-5.94-2.33c-1.52-1.55-2.28-3.54-2.28-5.97s.76-4.45,2.28-5.99c1.52-1.55,3.5-2.32,5.94-2.32Zm0,13.2c1.29,0,2.34-.46,3.15-1.37.81-.91,1.21-2.1,1.21-3.55s-.4-2.64-1.21-3.54c-.81-.9-1.86-1.35-3.15-1.35s-2.39.45-3.2,1.35c-.81.9-1.22,2.08-1.22,3.54s.41,2.64,1.22,3.55c.81.91,1.88,1.37,3.2,1.37Z"/>
      <path class="cls-5" d="m121.02,22.32v10.05h-3.67v-9.47c0-1.09-.28-1.95-.84-2.56-.56-.61-1.33-.92-2.3-.92-1.03,0-1.85.34-2.47,1.01-.61.67-.92,1.61-.92,2.82v9.12h-3.72v-9.47c0-1.09-.27-1.95-.82-2.56-.55-.61-1.3-.92-2.27-.92-1.03,0-1.86.34-2.48,1.01s-.94,1.61-.94,2.82v9.12h-3.78v-15.78h3.52l.12,1.52c.92-1.34,2.41-2.02,4.48-2.02,1.21,0,2.25.25,3.14.75.89.5,1.56,1.23,2.02,2.19.39-.92,1.02-1.64,1.91-2.16.89-.52,1.95-.78,3.18-.78,1.79,0,3.21.55,4.27,1.66,1.05,1.1,1.58,2.63,1.58,4.58Z"/>
      <path class="cls-5" d="m139.36,25.86h-12.09c.12,1.19.57,2.09,1.34,2.72.77.62,1.75.94,2.94.94,1.93,0,3.28-.8,4.05-2.41l3.16,1.25c-.59,1.39-1.53,2.47-2.8,3.25-1.28.78-2.74,1.17-4.4,1.17-2.33,0-4.23-.76-5.68-2.29-1.45-1.53-2.18-3.53-2.18-6.01s.73-4.49,2.2-6.05c1.46-1.55,3.38-2.33,5.74-2.33s4.19.77,5.61,2.3c1.42,1.53,2.12,3.55,2.12,6.05v1.41Zm-12.03-2.66h8.19c-.07-1.28-.46-2.26-1.16-2.93s-1.65-1.01-2.84-1.01-2.14.34-2.88,1.02c-.74.68-1.18,1.65-1.31,2.91Z"/>
      <path class="cls-5" d="m163.72,26.93h-8.89l-1.92,5.44h-4.09l8.44-23.36h4.09l8.45,23.36h-4.19l-1.89-5.44Zm-1.16-3.36l-3.27-9.34-3.3,9.34h6.56Z"/>
      <path class="cls-5" d="m177.21,29.74c.78,0,1.4-.15,1.85-.46.45-.31.68-.76.68-1.37,0-.84-.57-1.41-1.7-1.69l-2.17-.58c-2.99-.81-4.48-2.35-4.48-4.61,0-1.45.53-2.63,1.58-3.55,1.05-.92,2.47-1.38,4.25-1.38,1.59,0,2.93.36,4.01,1.09,1.08.73,1.74,1.73,1.98,3l-3.39.8c-.07-.57-.34-1.03-.79-1.36-.45-.33-1.01-.5-1.68-.5s-1.22.17-1.64.51c-.42.34-.62.78-.62,1.32,0,.44.16.8.47,1.09.31.29.8.53,1.45.7l2.14.53c1.43.39,2.52.97,3.27,1.75s1.12,1.75,1.12,2.89c0,1.48-.56,2.66-1.67,3.53-1.11.88-2.65,1.31-4.61,1.31-1.81,0-3.27-.4-4.36-1.2s-1.74-1.87-1.94-3.23l3.45-.61c.06.62.34,1.11.84,1.46.49.35,1.15.52,1.98.52Z"/>
      <path class="cls-5" d="m191.55,29.74c.78,0,1.4-.15,1.85-.46.45-.31.68-.76.68-1.37,0-.84-.57-1.41-1.7-1.69l-2.17-.58c-2.99-.81-4.48-2.35-4.48-4.61,0-1.45.53-2.63,1.58-3.55,1.05-.92,2.47-1.38,4.25-1.38,1.59,0,2.93.36,4.01,1.09,1.08.73,1.74,1.73,1.98,3l-3.39.8c-.07-.57-.34-1.03-.79-1.36-.45-.33-1.01-.5-1.68-.5s-1.22.17-1.64.51c-.42.34-.62.78-.62,1.32,0,.44.16.8.47,1.09.31.29.8.53,1.45.7l2.14.53c1.43.39,2.52.97,3.27,1.75s1.12,1.75,1.12,2.89c0,1.48-.56,2.66-1.67,3.53-1.11.88-2.65,1.31-4.61,1.31-1.81,0-3.27-.4-4.36-1.2s-1.74-1.87-1.94-3.23l3.45-.61c.06.62.34,1.11.84,1.46.49.35,1.15.52,1.98.52Z"/>
      <path class="cls-5" d="m200.26,11.11c0-.68.23-1.24.7-1.7.46-.46,1.03-.69,1.7-.69s1.22.23,1.68.7c.46.47.7,1.03.7,1.69s-.23,1.22-.7,1.7c-.46.47-1.02.71-1.68.71s-1.22-.24-1.69-.71c-.47-.47-.7-1.04-.7-1.7Zm4.28,5.47v15.78h-3.78v-15.78h3.78Z"/>
      <path class="cls-5" d="m213.69,29.74c.78,0,1.4-.15,1.85-.46.45-.31.68-.76.68-1.37,0-.84-.57-1.41-1.7-1.69l-2.17-.58c-2.99-.81-4.48-2.35-4.48-4.61,0-1.45.53-2.63,1.58-3.55,1.05-.92,2.47-1.38,4.25-1.38,1.59,0,2.93.36,4.01,1.09,1.08.73,1.74,1.73,1.98,3l-3.39.8c-.07-.57-.34-1.03-.79-1.36-.45-.33-1.01-.5-1.68-.5s-1.22.17-1.64.51c-.42.34-.62.78-.62,1.32,0,.44.16.8.47,1.09.31.29.8.53,1.45.7l2.14.53c1.43.39,2.52.97,3.27,1.75s1.12,1.75,1.12,2.89c0,1.48-.56,2.66-1.67,3.53-1.11.88-2.65,1.31-4.61,1.31-1.81,0-3.27-.4-4.36-1.2s-1.74-1.87-1.94-3.23l3.45-.61c.06.62.34,1.11.84,1.46.49.35,1.15.52,1.98.52Z"/>
      <path class="cls-5" d="m231.29,32.36c-1.08.24-2,.36-2.75.36-1.59,0-2.84-.44-3.73-1.31s-1.34-2.18-1.34-3.91v-7.72h-2.42v-3.2h2.42v-4.92h3.75v4.92h3.64v3.2h-3.64v7.05c0,1.71.66,2.56,1.98,2.56.43,0,.96-.11,1.59-.33l.48,3.3Z"/>
      <path class="cls-5" d="m243.95,32.36c-.12-.51-.21-1.11-.27-1.8-.46.68-1.11,1.22-1.95,1.62-.84.4-1.81.6-2.91.6-1.73,0-3.11-.46-4.16-1.38-1.04-.92-1.56-2.17-1.56-3.74s.51-2.75,1.54-3.62c1.03-.87,2.43-1.3,4.21-1.3h4.73v-.61c0-.99-.29-1.73-.87-2.22-.58-.49-1.39-.73-2.43-.73-1.84,0-3.17.77-3.97,2.31l-2.75-1.61c1.33-2.51,3.64-3.77,6.92-3.77,1.99,0,3.62.51,4.89,1.53,1.28,1.03,1.92,2.69,1.92,4.98v6.28c0,1.78.09,2.93.28,3.45h-3.64Zm-.33-7.02h-3.89c-.89,0-1.57.2-2.06.61-.49.41-.73.96-.73,1.67s.25,1.3.75,1.69c.5.39,1.21.58,2.14.58,1.11,0,2.03-.35,2.73-1.05.71-.7,1.06-1.75,1.06-3.13v-.36Z"/>
      <path class="cls-5" d="m265.48,22.63v9.73h-3.77v-8.92c0-1.5-.35-2.53-1.06-3.08-.68-.55-1.47-.83-2.38-.83-1.09,0-2.01.35-2.73,1.05-.73.7-1.09,1.69-1.09,2.98v8.8h-3.78v-15.78h3.55l.12,1.7c.45-.67,1.1-1.2,1.95-1.59.85-.39,1.79-.59,2.8-.59,2.04,0,3.62.57,4.73,1.7,1.11,1.13,1.66,2.74,1.66,4.82Z"/>
      <path class="cls-5" d="m277.55,32.36c-1.08.24-2,.36-2.75.36-1.59,0-2.84-.44-3.73-1.31s-1.34-2.18-1.34-3.91v-7.72h-2.42v-3.2h2.42v-4.92h3.75v4.92h3.64v3.2h-3.64v7.05c0,1.71.66,2.56,1.98,2.56.43,0,.96-.11,1.59-.33l.48,3.3Z"/>
    </g>
    <g class="cls-3">
      <g>
        <path class="cls-6" d="m40,37.5c0,1.37-1.12,2.5-2.5,2.5H2.5c-1.37,0-2.5-1.12-2.5-2.5v-15c0-1.37.8-3.3,1.77-4.27L18.23,1.77c.97-.97,2.56-.97,3.54,0l16.46,16.46c.97.97,1.77,2.89,1.77,4.27v15Z"/>
        <path class="cls-1" d="m9.33,32.67c-1.1,0-2-.9-2-2v-5.63c0-1.1.64-2.64,1.41-3.41l9.84-9.84c.78-.78,2.05-.78,2.83,0l9.84,9.84c.78.78,1.41,2.31,1.41,3.41v5.63c0,1.1-.9,2-2,2H9.33Z"/>
        <circle class="cls-4" cx="20" cy="14" r="2.67"/>
        <circle class="cls-4" cx="30" cy="24.33" r="2.67"/>
        <circle class="cls-4" cx="10" cy="30" r="2.67"/>
        <polyline class="cls-2" points="20 13.98 20 40 10 30"/>
        <line class="cls-2" x1="30" y1="24.23" x2="20.12" y2="34.11"/>
      </g>
    </g>
  </g>
</svg>