<?xml version="1.0" encoding="utf-8"?>
<svg viewBox="80.101 257.301 228.399 50" width="228.399px" height="50px" xmlns="http://www.w3.org/2000/svg">
  <defs>
    <filter id="white-gloss-edge" x="-0.5%" y="-0.6%" width="101.0%" height="101.1%" filterUnits="objectBoundingBox">
      <feGaussianBlur stdDeviation="1.5" in="SourceAlpha" result="shadowBlurInner1"/>
      <feOffset dx="0" dy="-1" in="shadowBlurInner1" result="shadowOffsetInner1"/>
      <feComposite in="shadowOffsetInner1" in2="SourceAlpha" operator="arithmetic" k2="-1" k3="1" result="shadowInnerInner1"/>
      <feColorMatrix values="0 0 0 0 1   0 0 0 0 1   0 0 0 0 1  0 0 0 1 0" type="matrix" in="shadowInnerInner1"/>
    </filter>
    <mask id="big-tree-mask">
      <rect width="1440" height="900.001" fill="white"/>
      <path d="M 303.534 250.48 L 317.996 264.942 L 317.996 219.159 C 312.17 217.1 307.996 211.544 307.996 205.013 C 307.996 196.728 314.712 190.013 322.996 190.013 C 331.28 190.013 337.996 196.728 337.996 205.013 C 337.996 211.544 333.822 217.1 327.996 219.159 L 327.996 264.942 L 342.458 250.48 C 341.521 248.522 340.996 246.329 340.996 244.013 C 340.996 235.728 347.712 229.013 355.996 229.013 C 364.28 229.013 370.996 235.728 370.996 244.013 C 370.996 252.297 364.28 259.013 355.996 259.013 C 353.68 259.013 351.487 258.488 349.529 257.551 L 327.996 279.084 L 327.996 304.084 L 298.067 334.013 L 339.85 334.013 C 341.909 328.187 347.465 324.013 353.996 324.013 C 362.28 324.013 368.996 330.729 368.996 339.013 C 368.996 347.297 362.28 354.013 353.996 354.013 C 347.465 354.013 341.909 349.839 339.85 344.013 L 288.067 344.013 L 255.996 376.084 L 255.996 408.942 L 282.925 382.013 L 313.85 382.013 C 315.909 376.187 321.465 372.013 327.996 372.013 C 336.28 372.013 342.996 378.729 342.996 387.013 C 342.996 395.297 336.28 402.013 327.996 402.013 C 321.465 402.013 315.909 397.839 313.85 392.013 L 287.067 392.013 L 258.067 421.013 L 243.925 421.013 L 215.925 393.013 L 188.143 393.013 C 186.083 398.839 180.527 403.013 173.996 403.013 C 165.712 403.013 158.996 396.297 158.996 388.013 C 158.996 379.729 165.712 373.013 173.996 373.013 C 180.527 373.013 186.083 377.187 188.143 383.013 L 205.925 383.013 L 172.463 349.551 C 170.505 350.488 168.312 351.013 165.996 351.013 C 157.712 351.013 150.996 344.297 150.996 336.013 C 150.996 327.729 157.712 321.013 165.996 321.013 C 174.28 321.013 180.996 327.729 180.996 336.013 C 180.996 338.329 180.471 340.522 179.534 342.48 L 212.996 375.942 L 212.996 357.159 C 207.17 355.1 202.996 349.544 202.996 343.013 C 202.996 334.729 209.712 328.013 217.996 328.013 C 226.28 328.013 232.996 334.729 232.996 343.013 C 232.996 349.544 228.822 355.1 222.996 357.159 L 222.996 385.942 L 245.996 408.942 L 245.996 334.084 L 202.925 291.013 L 175.143 291.013 C 173.083 296.839 167.527 301.013 160.996 301.013 C 152.712 301.013 145.996 294.297 145.996 286.013 C 145.996 277.729 152.712 271.013 160.996 271.013 C 167.527 271.013 173.083 275.187 175.143 281.013 L 192.925 281.013 L 161.996 250.084 L 161.996 218.159 C 156.17 216.1 151.996 210.544 151.996 204.013 C 151.996 195.728 158.712 189.013 166.996 189.013 C 175.28 189.013 181.996 195.728 181.996 204.013 C 181.996 210.544 177.822 216.1 171.996 218.159 L 171.996 245.942 L 199.996 273.942 L 199.996 255.159 C 194.17 253.1 189.996 247.544 189.996 241.013 C 189.996 232.728 196.712 226.013 204.996 226.013 C 213.28 226.013 219.996 232.728 219.996 241.013 C 219.996 247.544 215.822 253.1 209.996 255.159 L 209.996 283.942 L 245.996 319.942 L 245.996 215.084 L 225.463 194.551 C 223.505 195.488 221.312 196.013 218.996 196.013 C 210.712 196.013 203.996 189.297 203.996 181.013 C 203.996 172.728 210.712 166.013 218.996 166.013 C 227.28 166.013 233.996 172.728 233.996 181.013 C 233.996 183.328 233.471 185.522 232.534 187.48 L 250.996 205.942 L 269.458 187.48 C 268.521 185.522 267.996 183.328 267.996 181.013 C 267.996 172.728 274.712 166.013 282.996 166.013 C 291.28 166.013 297.996 172.728 297.996 181.013 C 297.996 189.297 291.28 196.013 282.996 196.013 C 280.68 196.013 278.487 195.488 276.529 194.551 L 255.996 215.084 L 255.996 361.942 L 280.996 336.942 L 280.996 307.159 C 275.17 305.1 270.996 299.544 270.996 293.013 C 270.996 284.729 277.712 278.013 285.996 278.013 C 294.28 278.013 300.996 284.729 300.996 293.013 C 300.996 299.544 296.822 305.1 290.996 307.159 L 290.996 326.942 L 317.996 299.942 L 317.996 279.084 L 296.463 257.551 C 294.505 258.488 292.312 259.013 289.996 259.013 C 281.712 259.013 274.996 252.297 274.996 244.013 C 274.996 235.728 281.712 229.013 289.996 229.013 C 298.28 229.013 304.996 235.728 304.996 244.013 C 304.996 246.329 304.471 248.522 303.534 250.48 Z M 173.996 394.013 C 177.31 394.013 179.996 391.327 179.996 388.013 C 179.996 384.699 177.31 382.013 173.996 382.013 C 170.683 382.013 167.996 384.699 167.996 388.013 C 167.996 391.327 170.683 394.013 173.996 394.013 Z M 217.996 349.013 C 221.31 349.013 223.996 346.327 223.996 343.013 C 223.996 339.699 221.31 337.013 217.996 337.013 C 214.682 337.013 211.996 339.699 211.996 343.013 C 211.996 346.327 214.682 349.013 217.996 349.013 Z M 165.996 342.013 C 169.31 342.013 171.996 339.327 171.996 336.013 C 171.996 332.699 169.31 330.013 165.996 330.013 C 162.683 330.013 159.996 332.699 159.996 336.013 C 159.996 339.327 162.683 342.013 165.996 342.013 Z M 160.996 292.013 C 164.31 292.013 166.996 289.327 166.996 286.013 C 166.996 282.699 164.31 280.013 160.996 280.013 C 157.683 280.013 154.996 282.699 154.996 286.013 C 154.996 289.327 157.683 292.013 160.996 292.013 Z M 285.996 299.013 C 289.31 299.013 291.996 296.327 291.996 293.013 C 291.996 289.699 289.31 287.013 285.996 287.013 C 282.682 287.013 279.996 289.699 279.996 293.013 C 279.996 296.327 282.682 299.013 285.996 299.013 Z M 353.996 345.013 C 357.31 345.013 359.996 342.327 359.996 339.013 C 359.996 335.699 357.31 333.013 353.996 333.013 C 350.682 333.013 347.996 335.699 347.996 339.013 C 347.996 342.327 350.682 345.013 353.996 345.013 Z M 327.996 393.013 C 331.31 393.013 333.996 390.327 333.996 387.013 C 333.996 383.699 331.31 381.013 327.996 381.013 C 324.682 381.013 321.996 383.699 321.996 387.013 C 321.996 390.327 324.682 393.013 327.996 393.013 Z M 355.996 250.013 C 359.31 250.013 361.996 247.326 361.996 244.013 C 361.996 240.699 359.31 238.013 355.996 238.013 C 352.682 238.013 349.996 240.699 349.996 244.013 C 349.996 247.326 352.682 250.013 355.996 250.013 Z M 322.996 211.013 C 326.31 211.013 328.996 208.326 328.996 205.013 C 328.996 201.699 326.31 199.013 322.996 199.013 C 319.682 199.013 316.996 201.699 316.996 205.013 C 316.996 208.326 319.682 211.013 322.996 211.013 Z M 282.996 187.013 C 286.31 187.013 288.996 184.326 288.996 181.013 C 288.996 177.699 286.31 175.013 282.996 175.013 C 279.682 175.013 276.996 177.699 276.996 181.013 C 276.996 184.326 279.682 187.013 282.996 187.013 Z M 218.996 187.013 C 222.31 187.013 224.996 184.326 224.996 181.013 C 224.996 177.699 222.31 175.013 218.996 175.013 C 215.682 175.013 212.996 177.699 212.996 181.013 C 212.996 184.326 215.682 187.013 218.996 187.013 Z M 166.996 210.013 C 170.31 210.013 172.996 207.326 172.996 204.013 C 172.996 200.699 170.31 198.013 166.996 198.013 C 163.683 198.013 160.996 200.699 160.996 204.013 C 160.996 207.326 163.683 210.013 166.996 210.013 Z M 204.996 247.013 C 208.31 247.013 210.996 244.326 210.996 241.013 C 210.996 237.699 208.31 235.013 204.996 235.013 C 201.682 235.013 198.996 237.699 198.996 241.013 C 198.996 244.326 201.682 247.013 204.996 247.013 Z M 289.996 250.013 C 293.31 250.013 295.996 247.326 295.996 244.013 C 295.996 240.699 293.31 238.013 289.996 238.013 C 286.682 238.013 283.996 240.699 283.996 244.013 C 283.996 247.326 286.682 250.013 289.996 250.013 Z" fill="#000000" fill-rule="evenodd"/>
    </mask>
  </defs>
  <g id="home-assistant-logo-responsive" transform="matrix(0.1, 0, 0, 0.1, 80.101379, 257.300964)">
    <g id="background" style="">
      <g id="depth-borders" class="only-on-big" style="">
        <rect id="background-color-rect" width="500" height="500" rx="36" style="fill: rgb(65, 189, 245);" x="-0.004"/>
        <path d="M500,252.5 L500,46.1499336 C500,30.1025963 498.329139,24.283444 495.191611,18.4167773 C492.054084,12.5501107 487.449889,7.94591634 481.583223,4.80838867 C475.716556,1.670861 469.897404,-1.08333549e-15 453.850066,1.86451255e-15 L46.1499336,-1.86451255e-15 C30.1025963,1.08333549e-15 24.283444,1.670861 18.4167773,4.80838867 C12.5501107,7.94591634 7.94591634,12.5501107 4.80838867,18.4167773 C1.670861,24.283444 -7.22223659e-16,30.1025963 1.24300837e-15,46.1499336 L-1.52441497e-17,252.5 L1.24300837e-15,51.1499336 C-7.22223659e-16,35.1025963 1.670861,29.283444 4.80838867,23.4167773 C7.94591634,17.5501107 12.5501107,12.9459163 18.4167773,9.80838867 C24.283444,6.670861 30.1025963,5 46.1499336,5 L453.850066,5 C469.897404,5 475.716556,6.670861 481.583223,9.80838867 C487.449889,12.9459163 492.054084,17.5501107 495.191611,23.4167773 C498.329139,29.283444 500,35.1025963 500,51.1499336 L500,252.5 Z" id="top-depth-border" fill-opacity="0.25" fill="#FFFFFF"/>
        <path d="M500,247.5 L500,453.850066 C500,469.897404 498.329139,475.716556 495.191611,481.583223 C492.054084,487.449889 487.449889,492.054084 481.583223,495.191611 C475.716556,498.329139 469.897404,500 453.850066,500 L46.1499336,500 C30.1025963,500 24.283444,498.329139 18.4167773,495.191611 C12.5501107,492.054084 7.94591634,487.449889 4.80838867,481.583223 C1.670861,475.716556 7.22223659e-16,469.897404 -1.24300837e-15,453.850066 L1.52441497e-17,247.5 L-1.24300837e-15,448.850066 C7.22223659e-16,464.897404 1.670861,470.716556 4.80838867,476.583223 C7.94591634,482.449889 12.5501107,487.054084 18.4167773,490.191611 C24.283444,493.329139 30.1025963,495 46.1499336,495 L453.850066,495 C469.897404,495 475.716556,493.329139 481.583223,490.191611 C487.449889,487.054084 492.054084,482.449889 495.191611,476.583223 C498.329139,470.716556 500,464.897404 500,448.850066 L500,247.5 Z" id="bottom-depth-border" fill-opacity="0.149937726" fill="#000000"/>
      </g>
      <g id="house_big_tree" class="hide-on-small" style="">
        <path d="M 97 412.235 L 97 279 L 62.263 279 L 62.263 279 C 57.108 279 52.93 274.821 52.93 269.667 C 52.93 267.213 53.896 264.858 55.619 263.111 L 242.72 73.49 L 242.72 73.49 C 247.246 68.903 254.633 68.854 259.219 73.379 C 259.249 73.409 259.28 73.44 259.31 73.47 L 357 172 L 357 153.778 L 357 153.778 C 357 149.482 360.482 146 364.778 146 L 397.222 146 L 397.222 146 C 401.518 146 405 149.482 405 153.778 L 405 220.7 L 446.541 263.138 L 446.541 263.138 C 450.147 266.822 450.084 272.731 446.4 276.336 C 444.656 278.044 442.312 279 439.871 279 L 405 279 L 405 412.235 L 405 412.235 C 405 416.53 401.518 420.013 397.222 420.013 L 104.778 420.013 L 104.778 420.013 C 100.482 420.013 97 416.53 97 412.235 Z" fill="black" fill-opacity="1" filter="url(#white-gloss-edge)" fill-rule="evenodd" style="paint-order: fill; stroke: rgb(255, 255, 255); isolation: isolate;" mask="url(#big-tree-mask)"/>
        <path id="house_big_fill" d="M97,412.234971 L97,279 L62.2629241,279 L62.2629241,279 C57.1083081,279 52.9296662,274.821358 52.9296662,269.666742 C52.9296662,267.21304 53.8959237,264.858035 55.6193053,263.111436 L242.720321,73.4897957 L242.720321,73.4897957 C247.245816,68.9033341 254.632515,68.8539102 259.218977,73.3794044 C259.249346,73.4093694 259.27955,73.4395008 259.309588,73.4697971 L357,172 L357,153.777715 L357,153.777715 C357,149.482202 360.482202,146 364.777715,146 L397.222285,146 L397.222285,146 C401.517798,146 405,149.482202 405,153.777715 L405,220.699997 L446.541007,263.137996 L446.541007,263.137996 C450.146734,266.821581 450.083617,272.730736 446.400032,276.336463 C444.655784,278.043843 442.312095,279 439.871286,279 L405,279 L405,412.234971 L405,412.234971 C405,416.530484 401.517798,420.012685 397.222285,420.012685 L104.777715,420.012685 L104.777715,420.012685 C100.482202,420.012685 97,416.530484 97,412.234971 Z" transform="matrix(1, 0, 0, 1, 0, 0)" fill-rule="evenodd" mask="url(#big-tree-mask)" style="fill: rgb(255, 255, 255);"/>
      </g>
    </g>
  </g>
  <path d="M 158.148 273.802 L 158.148 290.152 L 154.778 290.152 L 154.778 283.142 L 148.208 283.142 L 148.208 290.152 L 144.838 290.152 L 144.838 273.802 L 148.208 273.802 L 148.208 280.422 L 154.778 280.422 L 154.778 273.802 L 158.148 273.802 ZM 160.362 284.112 L 160.362 283.962 C 160.362 282.755 160.595 281.682 161.062 280.742 C 161.522 279.795 162.189 279.065 163.062 278.552 C 163.935 278.032 164.949 277.772 166.102 277.772 C 167.742 277.772 169.079 278.275 170.112 279.282 C 171.152 280.282 171.732 281.645 171.852 283.372 L 171.872 284.202 C 171.872 286.062 171.352 287.555 170.312 288.682 C 169.272 289.809 167.875 290.372 166.122 290.372 C 164.369 290.372 162.972 289.812 161.932 288.692 C 160.885 287.572 160.362 286.045 160.362 284.112 Z M 163.612 284.202 C 163.612 285.355 163.829 286.235 164.262 286.842 C 164.695 287.455 165.315 287.762 166.122 287.762 C 166.909 287.762 167.522 287.459 167.962 286.852 C 168.409 286.252 168.632 285.289 168.632 283.962 C 168.632 282.835 168.409 281.959 167.962 281.332 C 167.522 280.712 166.902 280.402 166.102 280.402 C 165.309 280.402 164.695 280.712 164.262 281.332 C 163.829 281.945 163.612 282.902 163.612 284.202 ZM 173.872 278.002 L 176.912 278.002 L 177.012 279.362 C 177.872 278.302 179.035 277.772 180.502 277.772 C 182.068 277.772 183.145 278.392 183.732 279.632 C 184.585 278.392 185.802 277.772 187.382 277.772 C 188.695 277.772 189.675 278.159 190.322 278.932 C 190.968 279.699 191.292 280.852 191.292 282.392 L 191.292 290.152 L 188.032 290.152 L 188.032 282.402 C 188.032 281.715 187.895 281.212 187.622 280.892 C 187.355 280.572 186.882 280.412 186.202 280.412 C 185.228 280.412 184.555 280.879 184.182 281.812 L 184.192 290.152 L 180.942 290.152 L 180.942 282.412 C 180.942 281.712 180.805 281.202 180.532 280.882 C 180.252 280.569 179.778 280.412 179.112 280.412 C 178.192 280.412 177.525 280.795 177.112 281.562 L 177.112 290.152 L 173.872 290.152 L 173.872 278.002 ZM 199.365 290.372 C 197.585 290.372 196.135 289.825 195.015 288.732 C 193.895 287.645 193.335 286.192 193.335 284.372 L 193.335 284.052 C 193.335 282.832 193.572 281.742 194.045 280.782 C 194.512 279.822 195.179 279.079 196.045 278.552 C 196.912 278.032 197.899 277.772 199.005 277.772 C 200.665 277.772 201.975 278.299 202.935 279.352 C 203.889 280.399 204.365 281.882 204.365 283.802 L 204.365 285.132 L 196.625 285.132 C 196.732 285.925 197.049 286.562 197.575 287.042 C 198.102 287.522 198.769 287.762 199.575 287.762 C 200.829 287.762 201.805 287.309 202.505 286.402 L 204.105 288.182 C 203.619 288.875 202.959 289.415 202.125 289.802 C 201.299 290.182 200.379 290.372 199.365 290.372 Z M 198.995 280.402 C 198.349 280.402 197.825 280.619 197.425 281.052 C 197.025 281.485 196.769 282.109 196.655 282.922 L 201.175 282.922 L 201.175 282.662 C 201.162 281.942 200.965 281.385 200.585 280.992 C 200.212 280.599 199.682 280.402 198.995 280.402 ZM 222.508 290.152 L 221.368 286.782 L 215.458 286.782 L 214.338 290.152 L 210.758 290.152 L 216.848 273.802 L 219.968 273.802 L 226.088 290.152 L 222.508 290.152 Z M 218.408 277.932 L 216.368 284.052 L 220.458 284.052 L 218.408 277.932 ZM 233.977 286.792 C 233.977 286.399 233.781 286.085 233.387 285.852 C 232.994 285.625 232.364 285.422 231.497 285.242 C 228.604 284.635 227.157 283.409 227.157 281.562 C 227.157 280.482 227.604 279.582 228.497 278.862 C 229.391 278.135 230.561 277.772 232.007 277.772 C 233.554 277.772 234.787 278.135 235.707 278.862 C 236.634 279.589 237.097 280.532 237.097 281.692 L 233.847 281.692 C 233.847 281.232 233.697 280.849 233.397 280.542 C 233.104 280.242 232.637 280.092 231.997 280.092 C 231.451 280.092 231.027 280.215 230.727 280.462 C 230.427 280.709 230.277 281.022 230.277 281.402 C 230.277 281.762 230.447 282.052 230.787 282.272 C 231.127 282.492 231.704 282.682 232.517 282.842 C 233.324 283.009 234.004 283.192 234.557 283.392 C 236.271 284.019 237.127 285.109 237.127 286.662 C 237.127 287.769 236.654 288.665 235.707 289.352 C 234.754 290.032 233.524 290.372 232.017 290.372 C 231.004 290.372 230.101 290.192 229.307 289.832 C 228.521 289.472 227.901 288.975 227.447 288.342 C 227.001 287.709 226.777 287.025 226.777 286.292 L 229.857 286.292 C 229.884 286.865 230.097 287.305 230.497 287.612 C 230.891 287.919 231.421 288.072 232.087 288.072 C 232.707 288.072 233.177 287.955 233.497 287.722 C 233.817 287.482 233.977 287.172 233.977 286.792 ZM 245.798 286.792 C 245.798 286.399 245.602 286.085 245.208 285.852 C 244.815 285.625 244.185 285.422 243.318 285.242 C 240.425 284.635 238.978 283.409 238.978 281.562 C 238.978 280.482 239.425 279.582 240.318 278.862 C 241.212 278.135 242.382 277.772 243.828 277.772 C 245.375 277.772 246.608 278.135 247.528 278.862 C 248.455 279.589 248.918 280.532 248.918 281.692 L 245.668 281.692 C 245.668 281.232 245.518 280.849 245.218 280.542 C 244.925 280.242 244.458 280.092 243.818 280.092 C 243.272 280.092 242.848 280.215 242.548 280.462 C 242.248 280.709 242.098 281.022 242.098 281.402 C 242.098 281.762 242.268 282.052 242.608 282.272 C 242.948 282.492 243.525 282.682 244.338 282.842 C 245.145 283.009 245.825 283.192 246.378 283.392 C 248.092 284.019 248.948 285.109 248.948 286.662 C 248.948 287.769 248.475 288.665 247.528 289.352 C 246.575 290.032 245.345 290.372 243.838 290.372 C 242.825 290.372 241.922 290.192 241.128 289.832 C 240.342 289.472 239.722 288.975 239.268 288.342 C 238.822 287.709 238.598 287.025 238.598 286.292 L 241.678 286.292 C 241.705 286.865 241.918 287.305 242.318 287.612 C 242.712 287.919 243.242 288.072 243.908 288.072 C 244.528 288.072 244.998 287.955 245.318 287.722 C 245.638 287.482 245.798 287.172 245.798 286.792 ZM 254.459 278.002 L 254.459 290.152 L 251.209 290.152 L 251.209 278.002 L 254.459 278.002 Z M 251.009 274.852 C 251.009 274.365 251.172 273.965 251.499 273.652 C 251.826 273.339 252.269 273.182 252.829 273.182 C 253.382 273.182 253.826 273.339 254.159 273.652 C 254.486 273.965 254.649 274.365 254.649 274.852 C 254.649 275.352 254.482 275.759 254.149 276.072 C 253.816 276.385 253.376 276.542 252.829 276.542 C 252.282 276.542 251.842 276.385 251.509 276.072 C 251.176 275.759 251.009 275.352 251.009 274.852 ZM 263.715 286.792 C 263.715 286.399 263.518 286.085 263.125 285.852 C 262.732 285.625 262.102 285.422 261.235 285.242 C 258.342 284.635 256.895 283.409 256.895 281.562 C 256.895 280.482 257.342 279.582 258.235 278.862 C 259.128 278.135 260.298 277.772 261.745 277.772 C 263.292 277.772 264.525 278.135 265.445 278.862 C 266.372 279.589 266.835 280.532 266.835 281.692 L 263.585 281.692 C 263.585 281.232 263.435 280.849 263.135 280.542 C 262.842 280.242 262.375 280.092 261.735 280.092 C 261.188 280.092 260.765 280.215 260.465 280.462 C 260.165 280.709 260.015 281.022 260.015 281.402 C 260.015 281.762 260.185 282.052 260.525 282.272 C 260.865 282.492 261.442 282.682 262.255 282.842 C 263.062 283.009 263.742 283.192 264.295 283.392 C 266.008 284.019 266.865 285.109 266.865 286.662 C 266.865 287.769 266.392 288.665 265.445 289.352 C 264.492 290.032 263.262 290.372 261.755 290.372 C 260.742 290.372 259.838 290.192 259.045 289.832 C 258.258 289.472 257.638 288.975 257.185 288.342 C 256.738 287.709 256.515 287.025 256.515 286.292 L 259.595 286.292 C 259.622 286.865 259.835 287.305 260.235 287.612 C 260.628 287.919 261.158 288.072 261.825 288.072 C 262.445 288.072 262.915 287.955 263.235 287.722 C 263.555 287.482 263.715 287.172 263.715 286.792 ZM 269.596 275.012 L 272.836 275.012 L 272.836 278.002 L 274.916 278.002 L 274.916 280.382 L 272.836 280.382 L 272.836 286.442 C 272.836 286.895 272.922 287.219 273.096 287.412 C 273.269 287.605 273.599 287.702 274.086 287.702 C 274.446 287.702 274.762 287.675 275.036 287.622 L 275.036 290.082 C 274.402 290.275 273.749 290.372 273.076 290.372 C 270.796 290.372 269.636 289.225 269.596 286.932 L 269.596 280.382 L 267.816 280.382 L 267.816 278.002 L 269.596 278.002 L 269.596 275.012 ZM 287.044 290.152 L 283.764 290.152 C 283.611 289.859 283.501 289.495 283.434 289.062 C 282.648 289.935 281.628 290.372 280.374 290.372 C 279.181 290.372 278.194 290.029 277.414 289.342 C 276.628 288.655 276.234 287.789 276.234 286.742 C 276.234 285.449 276.714 284.459 277.674 283.772 C 278.628 283.085 280.004 282.739 281.804 282.732 L 283.304 282.732 L 283.304 282.032 C 283.304 281.472 283.161 281.022 282.874 280.682 C 282.581 280.349 282.124 280.182 281.504 280.182 C 280.958 280.182 280.528 280.312 280.214 280.572 C 279.908 280.832 279.754 281.192 279.754 281.652 L 276.504 281.652 C 276.504 280.945 276.721 280.292 277.154 279.692 C 277.594 279.099 278.211 278.632 279.004 278.292 C 279.798 277.945 280.688 277.772 281.674 277.772 C 283.174 277.772 284.361 278.149 285.234 278.902 C 286.114 279.655 286.554 280.715 286.554 282.082 L 286.554 287.342 C 286.568 288.495 286.731 289.369 287.044 289.962 L 287.044 290.152 Z M 281.074 287.892 C 281.554 287.892 281.998 287.785 282.404 287.572 C 282.811 287.359 283.111 287.072 283.304 286.712 L 283.304 284.622 L 282.084 284.622 C 280.464 284.622 279.601 285.185 279.494 286.312 L 279.484 286.502 C 279.484 286.909 279.628 287.242 279.914 287.502 C 280.194 287.762 280.581 287.892 281.074 287.892 ZM 288.98 278.002 L 292.03 278.002 L 292.13 279.402 C 293.004 278.315 294.17 277.772 295.63 277.772 C 296.917 277.772 297.874 278.152 298.5 278.912 C 299.134 279.665 299.457 280.795 299.47 282.302 L 299.47 290.152 L 296.22 290.152 L 296.22 282.382 C 296.22 281.695 296.07 281.195 295.77 280.882 C 295.47 280.569 294.974 280.412 294.28 280.412 C 293.367 280.412 292.68 280.802 292.22 281.582 L 292.22 290.152 L 288.98 290.152 L 288.98 278.002 ZM 302.567 275.012 L 305.807 275.012 L 305.807 278.002 L 307.887 278.002 L 307.887 280.382 L 305.807 280.382 L 305.807 286.442 C 305.807 286.895 305.893 287.219 306.067 287.412 C 306.24 287.605 306.57 287.702 307.057 287.702 C 307.417 287.702 307.733 287.675 308.007 287.622 L 308.007 290.082 C 307.373 290.275 306.72 290.372 306.047 290.372 C 303.767 290.372 302.607 289.225 302.567 286.932 L 302.567 280.382 L 300.787 280.382 L 300.787 278.002 L 302.567 278.002 L 302.567 275.012 Z" transform="matrix(1, 0, 0, 1, 0, 0)" style="white-space: pre;"/>
</svg>