<?xml version="1.0" encoding="UTF-8" standalone="no"?>
<!-- Generator: Adobe Illustrator 19.0.0, SVG Export Plug-In . SVG Version: 6.00 Build 0)  -->

<svg
   version="1.1"
   id="Layer_1"
   x="0px"
   y="0px"
   viewBox="0 0 267 267"
   style="enable-background:new 0 0 267 267;"
   xml:space="preserve"
   width="512"
   height="512"
   sodipodi:docname="generic-x86-64.svg"
   inkscape:version="1.1 (c4e8f9ed74, 2021-05-24)"
   xmlns:inkscape="http://www.inkscape.org/namespaces/inkscape"
   xmlns:sodipodi="http://sodipodi.sourceforge.net/DTD/sodipodi-0.dtd"
   xmlns="http://www.w3.org/2000/svg"
   xmlns:svg="http://www.w3.org/2000/svg"><defs
   id="defs107"><rect
   x="115.51609"
   y="150.40669"
   width="36.471042"
   height="78.34749"
   id="rect4772" />
		
		
	
			
			
			
		
				
				
				
			
			
			
			
		
				
				
				
			</defs><sodipodi:namedview
   id="namedview105"
   pagecolor="#ffffff"
   bordercolor="#666666"
   borderopacity="1.0"
   inkscape:pageshadow="2"
   inkscape:pageopacity="0.0"
   inkscape:pagecheckerboard="0"
   showgrid="false"
   inkscape:zoom="0.75878906"
   inkscape:cx="172.6435"
   inkscape:cy="210.20335"
   inkscape:window-width="2560"
   inkscape:window-height="1376"
   inkscape:window-x="26"
   inkscape:window-y="23"
   inkscape:window-maximized="0"
   inkscape:current-layer="g102" />
<g
   id="g102">
	<g
   id="g6"
   style="fill:#1c7287;fill-opacity:1">
				<line
   style="fill:#1c7287;fill-opacity:1"
   x1="83.5"
   y1="15"
   x2="83.5"
   y2="44"
   id="line2" />
				<path
   style="fill:#1c7287;fill-opacity:1"
   d="m 83.5,59 c -8.284,0 -15,-6.716 -15,-15 V 15 c 0,-8.284 6.716,-15 15,-15 8.284,0 15,6.716 15,15 v 29 c 0,8.284 -6.716,15 -15,15 z"
   id="path4" />
			</g><line
   style="fill:#ffffff"
   x1="133.5"
   y1="15"
   x2="133.5"
   y2="44"
   id="line8" /><path
   style="fill:#1c7287"
   d="m 133.5,59 c -8.284,0 -15,-6.716 -15,-15 V 15 c 0,-8.284 6.716,-15 15,-15 8.284,0 15,6.716 15,15 v 29 c 0,8.284 -6.716,15 -15,15 z"
   id="path10" /><g
   id="g20">
				<line
   style="fill:#ffffff"
   x1="183.5"
   y1="15"
   x2="183.5"
   y2="44"
   id="line16" />
				<path
   style="fill:#1c7287"
   d="m 183.5,59 c -8.284,0 -15,-6.716 -15,-15 V 15 c 0,-8.284 6.716,-15 15,-15 8.284,0 15,6.716 15,15 v 29 c 0,8.284 -6.716,15 -15,15 z"
   id="path18" />
			</g><g
   id="g28"
   style="fill:#1c7287;fill-opacity:1">
				<line
   style="fill:#1c7287;fill-opacity:1"
   x1="83.5"
   y1="223"
   x2="83.5"
   y2="252"
   id="line24" />
				<path
   style="fill:#1c7287;fill-opacity:1"
   d="m 83.5,267 c -8.284,0 -15,-6.716 -15,-15 v -29 c 0,-8.284 6.716,-15 15,-15 8.284,0 15,6.716 15,15 v 29 c 0,8.284 -6.716,15 -15,15 z"
   id="path26" />
			</g><line
   style="fill:#ffffff"
   x1="133.5"
   y1="223"
   x2="133.5"
   y2="252"
   id="line30" /><path
   style="fill:#1c7287"
   d="m 133.5,267 c -8.284,0 -15,-6.716 -15,-15 v -29 c 0,-8.284 6.716,-15 15,-15 8.284,0 15,6.716 15,15 v 29 c 0,8.284 -6.716,15 -15,15 z"
   id="path32" /><g
   id="g42">
				<line
   style="fill:#ffffff"
   x1="183.5"
   y1="223"
   x2="183.5"
   y2="252"
   id="line38" />
				<path
   style="fill:#1c7287"
   d="m 183.5,267 c -8.284,0 -15,-6.716 -15,-15 v -29 c 0,-8.284 6.716,-15 15,-15 8.284,0 15,6.716 15,15 v 29 c 0,8.284 -6.716,15 -15,15 z"
   id="path40" />
			</g>
	<g
   id="g88">
		<g
   id="g66"
   style="fill:#1c7287;fill-opacity:1">
			<g
   id="g52"
   style="fill:#1c7287;fill-opacity:1">
				<line
   style="fill:#1c7287;fill-opacity:1"
   x1="45.5"
   y1="83"
   x2="16.5"
   y2="83"
   id="line48" />
				<path
   style="fill:#1c7287;fill-opacity:1"
   d="M45.5,98h-29c-8.284,0-15-6.716-15-15s6.716-15,15-15h29c8.284,0,15,6.716,15,15      S53.784,98,45.5,98z"
   id="path50" />
			</g>
			<g
   id="g58"
   style="fill:#1c7287;fill-opacity:1">
				<line
   style="fill:#1c7287;fill-opacity:1"
   x1="45.5"
   y1="133"
   x2="16.5"
   y2="133"
   id="line54" />
				<path
   style="fill:#1c7287;fill-opacity:1"
   d="M45.5,148h-29c-8.284,0-15-6.716-15-15s6.716-15,15-15h29c8.284,0,15,6.716,15,15      S53.784,148,45.5,148z"
   id="path56" />
			</g>
			<g
   id="g64"
   style="fill:#1c7287;fill-opacity:1">
				<line
   style="fill:#1c7287;fill-opacity:1"
   x1="46.5"
   y1="183"
   x2="17.5"
   y2="183"
   id="line60" />
				<path
   style="fill:#1c7287;fill-opacity:1"
   d="M46.5,198h-29c-8.284,0-15-6.716-15-15s6.716-15,15-15h29c8.284,0,15,6.716,15,15      S54.784,198,46.5,198z"
   id="path62" />
			</g>
		</g>
		<g
   id="g86">
			<g
   id="g72">
				<line
   style="fill:#FFFFFF;"
   x1="249.5"
   y1="83"
   x2="220.5"
   y2="83"
   id="line68" />
				<path
   style="fill:#1C7287;"
   d="M249.5,98h-29c-8.284,0-15-6.716-15-15s6.716-15,15-15h29c8.284,0,15,6.716,15,15      S257.784,98,249.5,98z"
   id="path70" />
			</g>
			<g
   id="g78">
				<line
   style="fill:#FFFFFF;"
   x1="249.5"
   y1="133"
   x2="220.5"
   y2="133"
   id="line74" />
				<path
   style="fill:#1C7287;"
   d="M249.5,148h-29c-8.284,0-15-6.716-15-15s6.716-15,15-15h29c8.284,0,15,6.716,15,15      S257.784,148,249.5,148z"
   id="path76" />
			</g>
			<g
   id="g84">
				<line
   style="fill:#FFFFFF;"
   x1="250.5"
   y1="183"
   x2="221.5"
   y2="183"
   id="line80" />
				<path
   style="fill:#1C7287;"
   d="M250.5,198h-29c-8.284,0-15-6.716-15-15s6.716-15,15-15h29c8.284,0,15,6.716,15,15      S258.784,198,250.5,198z"
   id="path82" />
			</g>
		</g>
	</g>
	<g
   id="g92">
		<path
   style="fill:#c5c4c4;fill-opacity:1;stroke-width:0.942816"
   d="M 57.842664,36.503906 H 208.11437 c 11.7852,0 21.33875,9.553557 21.33875,21.338759 V 208.11437 c 0,11.7852 -9.55355,21.33875 -21.33875,21.33875 H 57.842664 c -11.785202,0 -21.338758,-9.55355 -21.338758,-21.33875 V 57.843608 c 0,-11.785202 9.553556,-21.339702 21.338758,-21.339702 z"
   id="path90" />
	<text
   xml:space="preserve"
   transform="scale(0.52148437)"
   id="text4770"
   style="fill:black;stroke:none;stroke-opacity:1;stroke-width:1px;stroke-linejoin:miter;stroke-linecap:butt;fill-opacity:1;font-family:sans-serif;font-style:normal;font-weight:normal;font-size:17.5px;line-height:125%;letter-spacing:0px;word-spacing:0px;white-space:pre;shape-inside:url(#rect4772)" /><text
   xml:space="preserve"
   style="font-style:normal;font-weight:normal;font-size:52.1484px;line-height:125%;font-family:sans-serif;letter-spacing:0px;word-spacing:0px;fill:#4b4b4b;fill-opacity:1;stroke:none;stroke-width:0.521484px;stroke-linecap:butt;stroke-linejoin:miter;stroke-opacity:1"
   x="50.999413"
   y="151.97679"
   id="text11894"><tspan
     sodipodi:role="line"
     style="font-style:normal;font-variant:normal;font-weight:bold;font-stretch:normal;font-size:52.1484px;font-family:Ubuntu;-inkscape-font-specification:'Ubuntu Bold';fill:#4b4b4b;fill-opacity:1;stroke-width:0.521484px"
     x="50.999413"
     y="151.97679"
     id="tspan25978">x86-64</tspan></text></g>
	
	
	
</g>















</svg>
