<?xml version="1.0" encoding="utf-8"?>
<!-- Generator: Adobe Illustrator 16.0.4, SVG Export Plug-In . SVG Version: 6.00 Build 0)  -->
<!DOCTYPE svg PUBLIC "-//W3C//DTD SVG 1.1//EN" "http://www.w3.org/Graphics/SVG/1.1/DTD/svg11.dtd">
<svg version="1.1"
	 id="svg2328" xmlns:dc="http://purl.org/dc/elements/1.1/" xmlns:cc="http://web.resource.org/cc/" xmlns:rdf="http://www.w3.org/1999/02/22-rdf-syntax-ns#" xmlns:svg="http://www.w3.org/2000/svg" xmlns:sodipodi="http://sodipodi.sourceforge.net/DTD/sodipodi-0.dtd" xmlns:inkscape="http://www.inkscape.org/namespaces/inkscape" sodipodi:docname="aa.svg" sodipodi:docbase="C:\Documents and Settings\Alex Broersma.D2KY7761\Desktop" inkscape:version="0.45.1" sodipodi:version="0.32" inkscape:output_extension="org.inkscape.output.svg.inkscape"
	 xmlns="http://www.w3.org/2000/svg" xmlns:xlink="http://www.w3.org/1999/xlink" x="0px" y="0px" width="616px" height="641px"
	 viewBox="-164 -203.5 616 641" enable-background="new -164 -203.5 616 641" xml:space="preserve">
<sodipodi:namedview  inkscape:cy="131.76504" inkscape:cx="219.80302" inkscape:zoom="4.0618557" pagecolor="#ffffff" bordercolor="#666666" borderopacity="1.0" gridtolerance="10.0" guidetolerance="10.0" objecttolerance="10.0" id="base" inkscape:current-layer="svg2328" inkscape:window-y="-4" inkscape:window-x="-4" inkscape:pageopacity="0.0" inkscape:pageshadow="2" inkscape:window-width="1440" inkscape:window-height="844">
	</sodipodi:namedview>
<g>
	<path id="path6" fill="#127CC1" d="M444.329-86.082c-28.613-139.479-298.504-148.313-472.478-42.048v11.736
		c173.745-89.683,420.28-89.11,442.716,39.371c7.558,42.564-16.252,86.831-58.943,112.303v33.332
		C407.015,49.758,459.548-11.271,444.329-86.082 M127.971,158.123C7.907,169.237-117.193,151.746-134.707,57.557
		c-8.698-46.378,12.475-95.604,40.405-126.146V-84.94c-50.361,44.328-77.717,100.398-61.922,166.598
		c20.144,84.958,127.503,133.047,291.406,117.034c64.897-6.266,149.825-27.233,208.765-59.763V92.713
		C290.384,124.792,201.793,151.294,127.971,158.123z"/>
	<path id="path8" fill="#127CC1" d="M334.331-106.246h-31.473V34.559c0,16.538,7.897,30.918,31.473,33.199"/>
	<path id="path10" fill="#127CC1" d="M-40.624-54.788h-31.476v91.966c0,16.542,7.898,30.922,31.476,33.202"/>
	<rect id="rect12" x="-72.099" y="-101.967" fill="#127CC1" width="31.476" height="29.954"/>
	<path id="path14" fill="#127CC1" d="M147.997,68.9c-25.52,0-36.279-17.803-36.279-35.374V-88.617h31.131v33.829h23.576v25.33
		h-23.576v61.1c0,7.187,3.436,11.128,10.871,11.128h12.705V68.9H147.997"/>
	<path id="path16" fill="#127CC1" d="M230.751-30.995c-10.643,0-18.883,5.533-22.317,13.007c-2.061,4.505-2.747,7.929-3.086,13.467
		h48.184C252.845-18.045,246.773-30.995,230.751-30.995 M205.348,16.812c0,16.033,10.065,27.836,27.692,27.836
		c13.851,0,20.719-3.878,28.73-11.8l19.23,18.539c-12.362,12.205-25.296,19.622-48.187,19.622
		c-29.872,0-58.487-16.371-58.487-64.067c0-40.79,24.949-63.836,57.8-63.836c33.306,0,52.419,26.984,52.419,62.413v11.296h-79.198"
		/>
	<path id="path18" fill="#127CC1" d="M44.189-29.458c9.155,0,12.933,4.509,12.933,11.867V69.07H88.37v-86.774
		c0-17.628-9.386-37.084-36.74-37.084h-64.438V69.068h31.131v-98.526"/>
	<text transform="matrix(1.0217 0 0 1 352.1602 -85.6602)" fill="#127CC1" font-family="'ArialMT'" font-size="28.8313">®</text>
</g>
<text transform="matrix(1 0 0 1 -94.1338 408.9209)" fill="#127CC1" font-family="'Tahoma-Bold'" font-size="218.0193">NUC</text>
</svg>
