<svg width="977" height="676" viewBox="0 0 977 676" fill="none" xmlns="http://www.w3.org/2000/svg">
<path d="M241 626.999C347.407 626.999 433.667 540.74 433.667 434.333C433.667 327.926 347.407 241.666 241 241.666C134.593 241.666 48.3334 327.926 48.3334 434.333C48.3334 540.74 134.593 626.999 241 626.999Z" stroke="white" stroke-width="96.3333" stroke-linecap="round" stroke-linejoin="round"/>
<path d="M819 626.999C925.407 626.999 1011.67 540.74 1011.67 434.333C1011.67 327.926 925.407 241.666 819 241.666C712.593 241.666 626.333 327.926 626.333 434.333C626.333 540.74 712.593 626.999 819 626.999Z" stroke="white" stroke-width="96.3333" stroke-linecap="round" stroke-linejoin="round"/>
<path d="M192.833 49L56.1364 368.008C50.9978 379.986 48.3433 392.882 48.3334 405.915V434.333M433.667 434.333L443.83 429.228C470.585 415.849 500.087 408.884 530 408.884C559.913 408.884 589.416 415.849 616.17 429.228L626.333 434.333H433.667ZM867.167 49L1003.86 368.008C1009.01 380.001 1011.66 392.913 1011.67 405.963V434.333L867.167 49Z" stroke="white" stroke-width="96.3333" stroke-linecap="round" stroke-linejoin="round"/>
</svg>
